SplineFontDB: 3.0
FontName: Plaster
FullName: Plaster
FamilyName: Plaster
Weight: Book
Copyright: Copyright (c) 2011, Sorkin Type Co (www.sorkintype.com)\nwith Reserved Font Name "Plaster".\n\nThis Font Software is licensed under the SIL Open Font License,\nVersion 1.1. This license is available with a FAQ at:\nhttp://scripts.sil.org/OFL
Version: 1.005
ItalicAngle: 0
UnderlinePosition: -91
UnderlineWidth: 164
Ascent: 1638
Descent: 410
LayerCount: 2
Layer: 0 1 "Back"  1
Layer: 1 1 "Fore"  0
XUID: [1021 631 1661839179 8109277]
FSType: 0
OS2Version: 3
OS2_WeightWidthSlopeOnly: 0
OS2_UseTypoMetrics: 1
CreationTime: 1323078960
ModificationTime: 1323068315
PfmFamily: 81
TTFWeight: 400
TTFWidth: 5
LineGap: 0
VLineGap: 0
Panose: 4 0 8 5 0 0 0 0 0 0
OS2TypoAscent: 362
OS2TypoAOffset: 1
OS2TypoDescent: -150
OS2TypoDOffset: 1
OS2TypoLinegap: 0
OS2WinAscent: 0
OS2WinAOffset: 1
OS2WinDescent: 0
OS2WinDOffset: 1
HheadAscent: 0
HheadAOffset: 1
HheadDescent: 0
HheadDOffset: 1
OS2SubXSize: 1434
OS2SubYSize: 1331
OS2SubXOff: 0
OS2SubYOff: 287
OS2SupXSize: 1434
OS2SupYSize: 1331
OS2SupXOff: 0
OS2SupYOff: 977
OS2StrikeYSize: 328
OS2StrikeYPos: 496
OS2Vendor: 'STC '
OS2CodePages: 20000093.00000000
OS2UnicodeRanges: a00000af.4000204a.00000000.00000000
DEI: 91125
TtTable: prep
PUSHW_1
 511
SCANCTRL
PUSHB_1
 4
SVTCA[y-axis]
EndTTInstrs
ShortTable: maxp 16
  1
  0
  426
  100
  7
  100
  6
  1
  0
  0
  0
  0
  0
  0
  2
  1
EndShort

StartChar: a
Encoding: 97 97 5
Width: 1874
Flags: W
LayerCount: 2
Fore
SplineSet
325 502 m 0,0,1
 325 608 325 608 352.5 702.5 c 128,-1,2
 380 797 380 797 438 867.5 c 128,-1,3
 496 938 496 938 585 979 c 128,-1,4
 674 1020 674 1020 797 1020 c 2,5,-1
 849 1020 l 1,6,-1
 849 0 l 1,7,-1
 822 0 l 2,8,9
 699 0 699 0 606 36 c 128,-1,10
 513 72 513 72 450.5 138 c 128,-1,11
 388 204 388 204 356.5 296.5 c 128,-1,12
 325 389 325 389 325 502 c 0,0,1
1549 1020 m 1,13,-1
 1549 0 l 1,14,-1
 1511 0 l 2,15,16
 1388 0 1388 0 1300.5 22 c 128,-1,17
 1213 44 1213 44 1156.5 91 c 128,-1,18
 1100 138 1100 138 1073.5 213 c 128,-1,19
 1047 288 1047 288 1047 395 c 2,20,-1
 1047 1020 l 1,21,-1
 1549 1020 l 1,13,-1
EndSplineSet
EndChar

StartChar: b
Encoding: 98 98 6
Width: 1874
Flags: W
LayerCount: 2
Fore
SplineSet
324 2 m 1,0,-1
 324 1530 l 1,1,-1
 812 1530 l 1,2,-1
 812 2 l 1,3,-1
 324 2 l 1,0,-1
1550 502 m 0,4,5
 1550 389 1550 389 1518.5 296.5 c 128,-1,6
 1487 204 1487 204 1425 138 c 128,-1,7
 1363 72 1363 72 1270.5 36 c 128,-1,8
 1178 0 1178 0 1055 0 c 2,9,-1
 1028 0 l 1,10,-1
 1028 1020 l 1,11,-1
 1080 1020 l 2,12,13
 1203 1020 1203 1020 1292 979 c 128,-1,14
 1381 938 1381 938 1438 867.5 c 128,-1,15
 1495 797 1495 797 1522.5 702.5 c 128,-1,16
 1550 608 1550 608 1550 502 c 0,4,5
EndSplineSet
EndChar

StartChar: c
Encoding: 99 99 7
Width: 1874
Flags: W
LayerCount: 2
Fore
SplineSet
1548 1020 m 1,0,-1
 1548 449 l 1,1,-1
 1502 449 l 2,2,3
 1379 449 1379 449 1292.5 470.5 c 128,-1,4
 1206 492 1206 492 1151.5 538.5 c 128,-1,5
 1097 585 1097 585 1071.5 659.5 c 128,-1,6
 1046 734 1046 734 1046 841 c 2,7,-1
 1046 1020 l 1,8,-1
 1548 1020 l 1,0,-1
1496 261 m 1,9,-1
 1496 233 l 2,10,11
 1496 193 1496 193 1481.5 151.5 c 128,-1,12
 1467 110 1467 110 1434.5 76.5 c 128,-1,13
 1402 43 1402 43 1349.5 21.5 c 128,-1,14
 1297 0 1297 0 1221 0 c 2,15,-1
 1046 0 l 1,16,-1
 1046 261 l 1,17,-1
 1496 261 l 1,9,-1
326 502 m 0,18,19
 326 608 326 608 353.5 702.5 c 128,-1,20
 381 797 381 797 438 867.5 c 128,-1,21
 495 938 495 938 584 979 c 128,-1,22
 673 1020 673 1020 796 1020 c 2,23,-1
 848 1020 l 1,24,-1
 848 0 l 1,25,-1
 821 0 l 2,26,27
 698 0 698 0 605.5 36 c 128,-1,28
 513 72 513 72 450.5 138 c 128,-1,29
 388 204 388 204 357 296.5 c 128,-1,30
 326 389 326 389 326 502 c 0,18,19
EndSplineSet
EndChar

StartChar: d
Encoding: 100 100 8
Width: 1874
Flags: W
LayerCount: 2
Fore
SplineSet
1549 1531 m 1,0,-1
 1549 0 l 1,1,-1
 1066 0 l 1,2,-1
 1066 1531 l 1,3,-1
 1549 1531 l 1,0,-1
325 502 m 0,4,5
 325 608 325 608 352.5 702.5 c 128,-1,6
 380 797 380 797 438 867.5 c 128,-1,7
 496 938 496 938 585 979 c 128,-1,8
 674 1020 674 1020 797 1020 c 2,9,-1
 849 1020 l 1,10,-1
 849 0 l 1,11,-1
 822 0 l 2,12,13
 699 0 699 0 606 36 c 128,-1,14
 513 72 513 72 450.5 138 c 128,-1,15
 388 204 388 204 356.5 296.5 c 128,-1,16
 325 389 325 389 325 502 c 0,4,5
EndSplineSet
EndChar

StartChar: e
Encoding: 101 101 9
Width: 1874
Flags: W
LayerCount: 2
Fore
SplineSet
1046 457 m 1,0,-1
 1046 1020 l 1,1,-1
 1087 1020 l 2,2,3
 1210 1020 1210 1020 1298 991.5 c 128,-1,4
 1386 963 1386 963 1442 906 c 128,-1,5
 1498 849 1498 849 1524 764 c 128,-1,6
 1550 679 1550 679 1550 567 c 2,7,-1
 1550 457 l 1,8,-1
 1046 457 l 1,0,-1
324 502 m 0,9,10
 324 608 324 608 351.5 702.5 c 128,-1,11
 379 797 379 797 437 867.5 c 128,-1,12
 495 938 495 938 584 979 c 128,-1,13
 673 1020 673 1020 796 1020 c 2,14,-1
 848 1020 l 1,15,-1
 848 0 l 1,16,-1
 821 0 l 2,17,18
 698 0 698 0 605 36 c 128,-1,19
 512 72 512 72 449.5 138 c 128,-1,20
 387 204 387 204 355.5 296.5 c 128,-1,21
 324 389 324 389 324 502 c 0,9,10
1496 261 m 1,22,-1
 1496 233 l 2,23,24
 1496 193 1496 193 1481.5 151.5 c 128,-1,25
 1467 110 1467 110 1434.5 76.5 c 128,-1,26
 1402 43 1402 43 1349.5 21.5 c 128,-1,27
 1297 0 1297 0 1221 0 c 2,28,-1
 1046 0 l 1,29,-1
 1046 261 l 1,30,-1
 1496 261 l 1,22,-1
EndSplineSet
EndChar

StartChar: f
Encoding: 102 102 10
Width: 1535
Flags: W
LayerCount: 2
Fore
SplineSet
208 0 m 1,0,-1
 208 1061 l 2,1,2
 208 1167 208 1167 231.5 1257 c 128,-1,3
 255 1347 255 1347 307.5 1411.5 c 128,-1,4
 360 1476 360 1476 445.5 1512.5 c 128,-1,5
 531 1549 531 1549 654 1549 c 2,6,-1
 696 1549 l 1,7,-1
 696 0 l 1,8,-1
 208 0 l 1,0,-1
1327 1550 m 1,9,-1
 1327 1060 l 1,10,-1
 1236 1060 l 2,11,12
 1201 1060 1201 1060 1165 1062 c 128,-1,13
 1129 1064 1129 1064 1095 1073 c 128,-1,14
 1061 1082 1061 1082 1031 1101 c 128,-1,15
 1001 1120 1001 1120 978.5 1154.5 c 128,-1,16
 956 1189 956 1189 943 1241 c 128,-1,17
 930 1293 930 1293 930 1368 c 2,18,-1
 930 1550 l 1,19,-1
 1327 1550 l 1,9,-1
1191 825 m 1,20,-1
 1191 510 l 1,21,-1
 930 510 l 1,22,-1
 930 825 l 1,23,-1
 1191 825 l 1,20,-1
EndSplineSet
EndChar

StartChar: g
Encoding: 103 103 11
Width: 1874
Flags: W
LayerCount: 2
Fore
SplineSet
1549 1020 m 1,0,-1
 1549 -37 l 2,1,2
 1549 -144 1549 -144 1536.5 -231 c 128,-1,3
 1524 -318 1524 -318 1485 -380 c 128,-1,4
 1446 -442 1446 -442 1372 -476 c 128,-1,5
 1298 -510 1298 -510 1175 -510 c 2,6,-1
 1065 -510 l 1,7,-1
 1065 1020 l 1,8,-1
 1549 1020 l 1,0,-1
437 -315 m 0,9,10
 437 -272 437 -272 456 -237.5 c 128,-1,11
 475 -203 475 -203 509 -180 c 128,-1,12
 543 -157 543 -157 589 -144.5 c 128,-1,13
 635 -132 635 -132 689 -132 c 256,14,15
 743 -132 743 -132 791.5 -144.5 c 128,-1,16
 840 -157 840 -157 877 -180 c 128,-1,17
 914 -203 914 -203 935.5 -237.5 c 128,-1,18
 957 -272 957 -272 957 -315 c 0,19,20
 957 -359 957 -359 938 -393.5 c 128,-1,21
 919 -428 919 -428 885.5 -452 c 128,-1,22
 852 -476 852 -476 806 -488.5 c 128,-1,23
 760 -501 760 -501 707 -501 c 0,24,25
 653 -501 653 -501 604 -488.5 c 128,-1,26
 555 -476 555 -476 518 -452 c 128,-1,27
 481 -428 481 -428 459 -393.5 c 128,-1,28
 437 -359 437 -359 437 -315 c 0,9,10
325 502 m 0,29,30
 325 608 325 608 352.5 702.5 c 128,-1,31
 380 797 380 797 438 867.5 c 128,-1,32
 496 938 496 938 585 979 c 128,-1,33
 674 1020 674 1020 797 1020 c 2,34,-1
 849 1020 l 1,35,-1
 849 0 l 1,36,-1
 822 0 l 2,37,38
 699 0 699 0 606 36 c 128,-1,39
 513 72 513 72 450.5 138 c 128,-1,40
 388 204 388 204 356.5 296.5 c 128,-1,41
 325 389 325 389 325 502 c 0,29,30
EndSplineSet
EndChar

StartChar: h
Encoding: 104 104 12
Width: 1874
Flags: W
LayerCount: 2
Fore
SplineSet
1046 0 m 1,0,-1
 1046 1020 l 1,1,-1
 1111 1020 l 2,2,3
 1234 1020 1234 1020 1317.5 991.5 c 128,-1,4
 1401 963 1401 963 1452.5 907.5 c 128,-1,5
 1504 852 1504 852 1526.5 770.5 c 128,-1,6
 1549 689 1549 689 1549 583 c 2,7,-1
 1549 0 l 1,8,-1
 1046 0 l 1,0,-1
812 1531 m 1,9,-1
 812 0 l 1,10,-1
 324 0 l 1,11,-1
 324 1531 l 1,12,-1
 812 1531 l 1,9,-1
EndSplineSet
EndChar

StartChar: i
Encoding: 105 105 13
Width: 1196
Flags: W
LayerCount: 2
Fore
SplineSet
849 1019 m 1,0,-1
 849 0 l 1,1,-1
 361 0 l 1,2,-1
 361 1019 l 1,3,-1
 849 1019 l 1,0,-1
305 1501 m 0,4,5
 305 1607 305 1607 378 1653.5 c 128,-1,6
 451 1700 451 1700 602 1700 c 0,7,8
 749 1700 749 1700 820 1653.5 c 128,-1,9
 891 1607 891 1607 891 1501 c 0,10,11
 891 1394 891 1394 825 1344 c 128,-1,12
 759 1294 759 1294 611 1294 c 0,13,14
 465 1294 465 1294 385 1344 c 128,-1,15
 305 1394 305 1394 305 1501 c 0,4,5
EndSplineSet
EndChar

StartChar: j
Encoding: 106 106 14
Width: 1196
Flags: W
LayerCount: 2
Fore
SplineSet
849 1020 m 1,0,-1
 849 -37 l 2,1,2
 849 -150 849 -150 827 -242.5 c 128,-1,3
 805 -335 805 -335 754 -401 c 128,-1,4
 703 -467 703 -467 619.5 -503.5 c 128,-1,5
 536 -540 536 -540 413 -540 c 2,6,-1
 361 -540 l 1,7,-1
 361 1020 l 1,8,-1
 849 1020 l 1,0,-1
305 1501 m 0,9,10
 305 1607 305 1607 378 1653.5 c 128,-1,11
 451 1700 451 1700 602 1700 c 0,12,13
 749 1700 749 1700 820 1653.5 c 128,-1,14
 891 1607 891 1607 891 1501 c 0,15,16
 891 1394 891 1394 825 1344 c 128,-1,17
 759 1294 759 1294 611 1294 c 0,18,19
 465 1294 465 1294 385 1344 c 128,-1,20
 305 1394 305 1394 305 1501 c 0,9,10
EndSplineSet
EndChar

StartChar: k
Encoding: 107 107 15
Width: 1874
Flags: W
LayerCount: 2
Fore
SplineSet
1003 833 m 256,0,1
 1003 886 1003 886 1026 924 c 128,-1,2
 1049 962 1049 962 1087.5 986 c 128,-1,3
 1126 1010 1126 1010 1176.5 1021.5 c 128,-1,4
 1227 1033 1227 1033 1281 1033 c 0,5,6
 1334 1033 1334 1033 1383.5 1021.5 c 128,-1,7
 1433 1010 1433 1010 1471 986 c 128,-1,8
 1509 962 1509 962 1531.5 924 c 128,-1,9
 1554 886 1554 886 1554 833 c 256,10,11
 1554 780 1554 780 1533 741.5 c 128,-1,12
 1512 703 1512 703 1475.5 677.5 c 128,-1,13
 1439 652 1439 652 1390.5 640 c 128,-1,14
 1342 628 1342 628 1288 628 c 0,15,16
 1235 628 1235 628 1183.5 640 c 128,-1,17
 1132 652 1132 652 1092 677.5 c 128,-1,18
 1052 703 1052 703 1027.5 741.5 c 128,-1,19
 1003 780 1003 780 1003 833 c 256,0,1
1041 0 m 1,20,-1
 1041 509 l 1,21,-1
 1106 509 l 2,22,23
 1229 509 1229 509 1313 480.5 c 128,-1,24
 1397 452 1397 452 1448 396.5 c 128,-1,25
 1499 341 1499 341 1521.5 259.5 c 128,-1,26
 1544 178 1544 178 1544 72 c 2,27,-1
 1544 0 l 1,28,-1
 1041 0 l 1,20,-1
807 1531 m 1,29,-1
 807 0 l 1,30,-1
 320 0 l 1,31,-1
 320 1531 l 1,32,-1
 807 1531 l 1,29,-1
EndSplineSet
EndChar

StartChar: l
Encoding: 108 108 16
Width: 1018
Flags: W
LayerCount: 2
Fore
SplineSet
753 1531 m 1,0,-1
 753 0 l 1,1,-1
 265 0 l 1,2,-1
 265 1531 l 1,3,-1
 753 1531 l 1,0,-1
EndSplineSet
EndChar

StartChar: m
Encoding: 109 109 17
Width: 2548
Flags: W
LayerCount: 2
Fore
SplineSet
1023 0 m 1,0,-1
 1023 1020 l 1,1,-1
 1088 1020 l 2,2,3
 1211 1020 1211 1020 1294.5 991.5 c 128,-1,4
 1378 963 1378 963 1429.5 907.5 c 128,-1,5
 1481 852 1481 852 1503.5 770.5 c 128,-1,6
 1526 689 1526 689 1526 583 c 2,7,-1
 1526 0 l 1,8,-1
 1023 0 l 1,0,-1
785 1020 m 1,9,-1
 785 0 l 1,10,-1
 279 0 l 1,11,-1
 279 1020 l 1,12,-1
 785 1020 l 1,9,-1
1765 0 m 1,13,-1
 1765 1020 l 1,14,-1
 1830 1020 l 2,15,16
 1953 1020 1953 1020 2037 991.5 c 128,-1,17
 2121 963 2121 963 2172 907.5 c 128,-1,18
 2223 852 2223 852 2245.5 770.5 c 128,-1,19
 2268 689 2268 689 2268 583 c 2,20,-1
 2268 0 l 1,21,-1
 1765 0 l 1,13,-1
EndSplineSet
EndChar

StartChar: n
Encoding: 110 110 18
Width: 1874
Flags: W
LayerCount: 2
Fore
SplineSet
831 1020 m 1,0,-1
 831 0 l 1,1,-1
 325 0 l 1,2,-1
 325 1020 l 1,3,-1
 831 1020 l 1,0,-1
1046 0 m 1,4,-1
 1046 1020 l 1,5,-1
 1111 1020 l 2,6,7
 1234 1020 1234 1020 1317.5 991.5 c 128,-1,8
 1401 963 1401 963 1452.5 907.5 c 128,-1,9
 1504 852 1504 852 1526.5 770.5 c 128,-1,10
 1549 689 1549 689 1549 583 c 2,11,-1
 1549 0 l 1,12,-1
 1046 0 l 1,4,-1
EndSplineSet
EndChar

StartChar: o
Encoding: 111 111 19
Width: 1874
Flags: W
LayerCount: 2
Fore
SplineSet
307 502 m 0,0,1
 307 608 307 608 334.5 702.5 c 128,-1,2
 362 797 362 797 420 867.5 c 128,-1,3
 478 938 478 938 567 979 c 128,-1,4
 656 1020 656 1020 779 1020 c 2,5,-1
 831 1020 l 1,6,-1
 831 0 l 1,7,-1
 804 0 l 2,8,9
 681 0 681 0 588 36 c 128,-1,10
 495 72 495 72 432.5 138 c 128,-1,11
 370 204 370 204 338.5 296.5 c 128,-1,12
 307 389 307 389 307 502 c 0,0,1
1567 502 m 0,13,14
 1567 389 1567 389 1535.5 296.5 c 128,-1,15
 1504 204 1504 204 1441.5 138 c 128,-1,16
 1379 72 1379 72 1286 36 c 128,-1,17
 1193 0 1193 0 1070 0 c 2,18,-1
 1043 0 l 1,19,-1
 1043 1020 l 1,20,-1
 1095 1020 l 2,21,22
 1218 1020 1218 1020 1307 979 c 128,-1,23
 1396 938 1396 938 1454 867.5 c 128,-1,24
 1512 797 1512 797 1539.5 702.5 c 128,-1,25
 1567 608 1567 608 1567 502 c 0,13,14
EndSplineSet
EndChar

StartChar: p
Encoding: 112 112 20
Width: 1874
Flags: W
LayerCount: 2
Fore
SplineSet
1549 502 m 0,0,1
 1549 389 1549 389 1517.5 296.5 c 128,-1,2
 1486 204 1486 204 1423.5 138 c 128,-1,3
 1361 72 1361 72 1268 36 c 128,-1,4
 1175 0 1175 0 1052 0 c 2,5,-1
 1025 0 l 1,6,-1
 1025 1020 l 1,7,-1
 1077 1020 l 2,8,9
 1200 1020 1200 1020 1289 979 c 128,-1,10
 1378 938 1378 938 1436 867.5 c 128,-1,11
 1494 797 1494 797 1521.5 702.5 c 128,-1,12
 1549 608 1549 608 1549 502 c 0,0,1
813 1020 m 1,13,-1
 813 -340 l 1,14,-1
 325 -340 l 1,15,-1
 325 1020 l 1,16,-1
 813 1020 l 1,13,-1
EndSplineSet
EndChar

StartChar: q
Encoding: 113 113 21
Width: 1874
Flags: W
LayerCount: 2
Fore
SplineSet
325 502 m 0,0,1
 325 608 325 608 352.5 702.5 c 128,-1,2
 380 797 380 797 438 867.5 c 128,-1,3
 496 938 496 938 585 979 c 128,-1,4
 674 1020 674 1020 797 1020 c 2,5,-1
 849 1020 l 1,6,-1
 849 0 l 1,7,-1
 822 0 l 2,8,9
 699 0 699 0 606 36 c 128,-1,10
 513 72 513 72 450.5 138 c 128,-1,11
 388 204 388 204 356.5 296.5 c 128,-1,12
 325 389 325 389 325 502 c 0,0,1
1549 1020 m 1,13,-1
 1549 -340 l 1,14,-1
 1061 -340 l 1,15,-1
 1061 1020 l 1,16,-1
 1549 1020 l 1,13,-1
EndSplineSet
EndChar

StartChar: r
Encoding: 114 114 22
Width: 1537
Flags: W
LayerCount: 2
Fore
SplineSet
215 0 m 1,0,-1
 215 1020 l 1,1,-1
 721 1020 l 1,2,-1
 721 0 l 1,3,-1
 215 0 l 1,0,-1
915 510 m 1,4,-1
 915 736 l 2,5,6
 915 800 915 800 933.5 852.5 c 128,-1,7
 952 905 952 905 993 942.5 c 128,-1,8
 1034 980 1034 980 1099 1000 c 128,-1,9
 1164 1020 1164 1020 1257 1020 c 2,10,-1
 1322 1020 l 1,11,-1
 1322 510 l 1,12,-1
 915 510 l 1,4,-1
EndSplineSet
EndChar

StartChar: s
Encoding: 115 115 23
Width: 1704
Flags: W
LayerCount: 2
Fore
SplineSet
338 636 m 1,0,1
 336 647 336 647 333.5 660.5 c 128,-1,2
 331 674 331 674 329.5 688.5 c 128,-1,3
 328 703 328 703 327 716.5 c 128,-1,4
 326 730 326 730 326 740 c 0,5,6
 326 801 326 801 342.5 854 c 128,-1,7
 359 907 359 907 396 946 c 128,-1,8
 433 985 433 985 493 1007.5 c 128,-1,9
 553 1030 553 1030 641 1030 c 1,10,-1
 1374 385 l 1,11,12
 1381 363 1381 363 1383.5 333.5 c 128,-1,13
 1386 304 1386 304 1386 283 c 0,14,15
 1386 222 1386 222 1368 168.5 c 128,-1,16
 1350 115 1350 115 1312 75.5 c 128,-1,17
 1274 36 1274 36 1214 13 c 128,-1,18
 1154 -10 1154 -10 1070 -10 c 1,19,-1
 338 636 l 1,0,1
952 1020 m 1,20,-1
 1397 1020 l 1,21,22
 1414 995 1414 995 1418.5 959.5 c 128,-1,23
 1423 924 1423 924 1423 889 c 0,24,25
 1423 809 1423 809 1401 759.5 c 128,-1,26
 1379 710 1379 710 1340 684 c 1,27,-1
 952 1020 l 1,20,-1
751 0 m 1,28,-1
 306 0 l 1,29,30
 289 26 289 26 284.5 59.5 c 128,-1,31
 280 93 280 93 280 131 c 0,32,33
 280 210 280 210 301.5 259.5 c 128,-1,34
 323 309 323 309 362 335 c 1,35,-1
 751 0 l 1,28,-1
EndSplineSet
EndChar

StartChar: t
Encoding: 116 116 24
Width: 1874
Flags: W
LayerCount: 2
Fore
SplineSet
737 1291 m 1,0,-1
 848 1291 l 1,1,-1
 848 0 l 1,2,-1
 795 0 l 2,3,4
 671 0 671 0 582 31 c 128,-1,5
 493 62 493 62 436 120.5 c 128,-1,6
 379 179 379 179 352 262.5 c 128,-1,7
 325 346 325 346 325 452 c 2,8,-1
 325 1021 l 1,9,-1
 737 1291 l 1,0,-1
1549 427 m 1,10,-1
 1549 339 l 2,11,12
 1549 258 1549 258 1526 194.5 c 128,-1,13
 1503 131 1503 131 1450.5 88 c 128,-1,14
 1398 45 1398 45 1313 22.5 c 128,-1,15
 1228 0 1228 0 1105 0 c 2,16,-1
 1044 0 l 1,17,-1
 1044 427 l 1,18,-1
 1549 427 l 1,10,-1
1472 1020 m 1,19,-1
 1472 685 l 1,20,-1
 1043 685 l 1,21,-1
 1043 1020 l 1,22,-1
 1472 1020 l 1,19,-1
EndSplineSet
EndChar

StartChar: u
Encoding: 117 117 25
Width: 1874
Flags: W
LayerCount: 2
Fore
SplineSet
1043 0 m 1,0,-1
 1043 1020 l 1,1,-1
 1549 1020 l 1,2,-1
 1549 0 l 1,3,-1
 1043 0 l 1,0,-1
828 1020 m 1,4,-1
 828 0 l 1,5,-1
 763 0 l 2,6,7
 640 0 640 0 556.5 28.5 c 128,-1,8
 473 57 473 57 421.5 112.5 c 128,-1,9
 370 168 370 168 347.5 249.5 c 128,-1,10
 325 331 325 331 325 437 c 2,11,-1
 325 1020 l 1,12,-1
 828 1020 l 1,4,-1
EndSplineSet
EndChar

StartChar: v
Encoding: 118 118 26
Width: 1874
Flags: W
LayerCount: 2
Fore
SplineSet
788 0 m 2,0,1
 665 0 665 0 577 45.5 c 128,-1,2
 489 91 489 91 433 175 c 128,-1,3
 377 259 377 259 351 377.5 c 128,-1,4
 325 496 325 496 325 642 c 2,5,-1
 325 1020 l 1,6,-1
 361 1020 l 2,7,8
 484 1020 484 1020 572 995.5 c 128,-1,9
 660 971 660 971 716.5 919.5 c 128,-1,10
 773 868 773 868 799 788 c 128,-1,11
 825 708 825 708 825 596 c 2,12,-1
 825 0 l 1,13,-1
 788 0 l 2,0,1
1049 0 m 1,14,-1
 1049 596 l 2,15,16
 1049 708 1049 708 1075.5 788 c 128,-1,17
 1102 868 1102 868 1158 919.5 c 128,-1,18
 1214 971 1214 971 1302 995.5 c 128,-1,19
 1390 1020 1390 1020 1513 1020 c 2,20,-1
 1549 1020 l 1,21,-1
 1549 642 l 2,22,23
 1549 496 1549 496 1523 377.5 c 128,-1,24
 1497 259 1497 259 1440.5 175 c 128,-1,25
 1384 91 1384 91 1296 45.5 c 128,-1,26
 1208 0 1208 0 1085 0 c 2,27,-1
 1049 0 l 1,14,-1
EndSplineSet
EndChar

StartChar: w
Encoding: 119 119 27
Width: 2899
Flags: W
LayerCount: 2
Fore
SplineSet
959 1020 m 1,0,-1
 959 0 l 1,1,-1
 895 0 l 2,2,3
 772 0 772 0 688 28.5 c 128,-1,4
 604 57 604 57 552.5 112.5 c 128,-1,5
 501 168 501 168 478.5 249.5 c 128,-1,6
 456 331 456 331 456 437 c 2,7,-1
 456 1020 l 1,8,-1
 959 1020 l 1,0,-1
1197 -1 m 1,9,-1
 1197 1019 l 1,10,-1
 1703 1019 l 1,11,-1
 1703 -1 l 1,12,-1
 1197 -1 l 1,9,-1
2443 1020 m 1,13,-1
 2443 437 l 2,14,15
 2443 331 2443 331 2420.5 249.5 c 128,-1,16
 2398 168 2398 168 2346.5 112.5 c 128,-1,17
 2295 57 2295 57 2211 28.5 c 128,-1,18
 2127 0 2127 0 2004 0 c 2,19,-1
 1940 0 l 1,20,-1
 1940 1020 l 1,21,-1
 2443 1020 l 1,13,-1
EndSplineSet
EndChar

StartChar: x
Encoding: 120 120 28
Width: 1707
Flags: W
LayerCount: 2
Fore
SplineSet
644 370 m 1,0,-1
 349 636 l 1,1,2
 312 678 312 678 291.5 748.5 c 128,-1,3
 271 819 271 819 271 913 c 2,4,-1
 271 1020 l 1,5,-1
 652 1020 l 1,6,7
 762 929 762 929 848.5 856.5 c 128,-1,8
 935 784 935 784 1003 725 c 1,9,10
 1006 825 1006 825 1034 883.5 c 128,-1,11
 1062 942 1062 942 1113 972.5 c 128,-1,12
 1164 1003 1164 1003 1238 1011.5 c 128,-1,13
 1312 1020 1312 1020 1407 1020 c 2,14,-1
 1436 1020 l 1,15,-1
 1436 903 l 2,16,17
 1436 817 1436 817 1409 766.5 c 128,-1,18
 1382 716 1382 716 1335 690.5 c 128,-1,19
 1288 665 1288 665 1225 657.5 c 128,-1,20
 1162 650 1162 650 1091 650 c 1,21,22
 1157 592 1157 592 1201.5 551.5 c 128,-1,23
 1246 511 1246 511 1274 483 c 128,-1,24
 1302 455 1302 455 1317 438 c 128,-1,25
 1332 421 1332 421 1340 410.5 c 128,-1,26
 1348 400 1348 400 1351.5 393.5 c 128,-1,27
 1355 387 1355 387 1360 381 c 0,28,29
 1395 336 1395 336 1415.5 270 c 128,-1,30
 1436 204 1436 204 1436 107 c 2,31,-1
 1436 0 l 1,32,-1
 1055 0 l 1,33,-1
 704 316 l 1,34,35
 704 209 704 209 677 146 c 128,-1,36
 650 83 650 83 598.5 50.5 c 128,-1,37
 547 18 547 18 472 9 c 128,-1,38
 397 0 397 0 300 0 c 2,39,-1
 271 0 l 1,40,-1
 271 117 l 2,41,42
 271 205 271 205 299 255.5 c 128,-1,43
 327 306 327 306 375.5 331.5 c 128,-1,44
 424 357 424 357 489 363.5 c 128,-1,45
 554 370 554 370 627 370 c 2,46,-1
 644 370 l 1,0,-1
EndSplineSet
EndChar

StartChar: y
Encoding: 121 121 29
Width: 1874
Flags: W
LayerCount: 2
Fore
SplineSet
1549 1020 m 1,0,-1
 1549 -67 l 2,1,2
 1549 -174 1549 -174 1525 -261 c 128,-1,3
 1501 -348 1501 -348 1447 -410 c 128,-1,4
 1393 -472 1393 -472 1307.5 -506 c 128,-1,5
 1222 -540 1222 -540 1099 -540 c 2,6,-1
 1062 -540 l 1,7,-1
 1062 1020 l 1,8,-1
 1549 1020 l 1,0,-1
828 1020 m 1,9,-1
 828 0 l 1,10,-1
 763 0 l 2,11,12
 640 0 640 0 556.5 28.5 c 128,-1,13
 473 57 473 57 421.5 112.5 c 128,-1,14
 370 168 370 168 347.5 249.5 c 128,-1,15
 325 331 325 331 325 437 c 2,16,-1
 325 1020 l 1,17,-1
 828 1020 l 1,9,-1
EndSplineSet
EndChar

StartChar: z
Encoding: 122 122 30
Width: 1706
Flags: W
LayerCount: 2
Fore
SplineSet
1075 1020 m 1,0,-1
 1379 1020 l 1,1,2
 1379 998 1379 998 1378.5 967 c 128,-1,3
 1378 936 1378 936 1378 901 c 128,-1,4
 1378 866 1378 866 1378 830 c 128,-1,5
 1378 794 1378 794 1378 762 c 0,6,7
 1378 722 1378 722 1370.5 690.5 c 128,-1,8
 1363 659 1363 659 1350 633 c 128,-1,9
 1337 607 1337 607 1319 585 c 128,-1,10
 1301 563 1301 563 1279 542 c 1,11,-1
 641 0 l 1,12,-1
 339 0 l 1,13,14
 340 22 340 22 340.5 53 c 128,-1,15
 341 84 341 84 341 119.5 c 128,-1,16
 341 155 341 155 341 191.5 c 128,-1,17
 341 228 341 228 341 261 c 0,18,19
 341 300 341 300 348 331.5 c 128,-1,20
 355 363 355 363 367.5 389.5 c 128,-1,21
 380 416 380 416 398 438.5 c 128,-1,22
 416 461 416 461 439 481 c 2,23,-1
 1075 1020 l 1,0,-1
386 684 m 1,24,25
 347 710 347 710 325.5 759.5 c 128,-1,26
 304 809 304 809 304 889 c 0,27,28
 304 921 304 921 308 955.5 c 128,-1,29
 312 990 312 990 329 1020 c 1,30,-1
 776 1020 l 1,31,-1
 386 684 l 1,24,25
1321 335 m 1,32,33
 1358 309 1358 309 1379.5 259.5 c 128,-1,34
 1401 210 1401 210 1401 131 c 0,35,36
 1401 99 1401 99 1398 64.5 c 128,-1,37
 1395 30 1395 30 1378 0 c 1,38,-1
 931 0 l 1,39,-1
 1321 335 l 1,32,33
EndSplineSet
EndChar

StartChar: A
Encoding: 65 65 31
Width: 1874
Flags: W
LayerCount: 2
Fore
SplineSet
1054 0 m 1,0,-1
 1054 1361 l 1,1,-1
 1119 1361 l 2,2,3
 1242 1361 1242 1361 1325.5 1332.5 c 128,-1,4
 1409 1304 1409 1304 1460.5 1248.5 c 128,-1,5
 1512 1193 1512 1193 1534.5 1111.5 c 128,-1,6
 1557 1030 1557 1030 1557 924 c 2,7,-1
 1557 0 l 1,8,-1
 1054 0 l 1,0,-1
316 0 m 1,9,-1
 316 924 l 2,10,11
 316 1030 316 1030 338.5 1111.5 c 128,-1,12
 361 1193 361 1193 412.5 1248.5 c 128,-1,13
 464 1304 464 1304 547.5 1332.5 c 128,-1,14
 631 1361 631 1361 754 1361 c 2,15,-1
 819 1361 l 1,16,-1
 819 0 l 1,17,-1
 316 0 l 1,9,-1
EndSplineSet
EndChar

StartChar: B
Encoding: 66 66 32
Width: 1874
Flags: W
LayerCount: 2
Fore
SplineSet
304 2 m 1,0,-1
 304 1361 l 1,1,-1
 792 1361 l 1,2,-1
 792 2 l 1,3,-1
 304 2 l 1,0,-1
1530 944 m 0,4,5
 1530 849 1530 849 1496 787.5 c 128,-1,6
 1462 726 1462 726 1395 689 c 1,7,8
 1486 652 1486 652 1528 582 c 128,-1,9
 1570 512 1570 512 1570 406 c 0,10,11
 1570 315 1570 315 1538.5 240 c 128,-1,12
 1507 165 1507 165 1445 112 c 128,-1,13
 1383 59 1383 59 1290.5 29.5 c 128,-1,14
 1198 0 1198 0 1075 0 c 2,15,-1
 1008 0 l 1,16,-1
 1008 1361 l 1,17,-1
 1060 1361 l 2,18,19
 1183 1361 1183 1361 1272 1328 c 128,-1,20
 1361 1295 1361 1295 1418 1238 c 128,-1,21
 1475 1181 1475 1181 1502.5 1105 c 128,-1,22
 1530 1029 1530 1029 1530 944 c 0,4,5
EndSplineSet
EndChar

StartChar: C
Encoding: 67 67 33
Width: 1874
Flags: W
LayerCount: 2
Fore
SplineSet
1548 1361 m 1,0,-1
 1548 661 l 1,1,-1
 1502 661 l 2,2,3
 1379 661 1379 661 1292.5 682.5 c 128,-1,4
 1206 704 1206 704 1151.5 750.5 c 128,-1,5
 1097 797 1097 797 1071.5 871.5 c 128,-1,6
 1046 946 1046 946 1046 1053 c 2,7,-1
 1046 1361 l 1,8,-1
 1548 1361 l 1,0,-1
1496 261 m 1,9,-1
 1496 233 l 2,10,11
 1496 193 1496 193 1481.5 151.5 c 128,-1,12
 1467 110 1467 110 1434.5 76.5 c 128,-1,13
 1402 43 1402 43 1349.5 21.5 c 128,-1,14
 1297 0 1297 0 1221 0 c 2,15,-1
 1046 0 l 1,16,-1
 1046 261 l 1,17,-1
 1496 261 l 1,9,-1
326 723 m 0,18,19
 326 794 326 794 338 868.5 c 128,-1,20
 350 943 350 943 375 1014 c 128,-1,21
 400 1085 400 1085 438 1148 c 128,-1,22
 476 1211 476 1211 528.5 1258.5 c 128,-1,23
 581 1306 581 1306 647.5 1333.5 c 128,-1,24
 714 1361 714 1361 796 1361 c 2,25,-1
 848 1361 l 1,26,-1
 848 0 l 1,27,-1
 821 0 l 2,28,29
 739 0 739 0 670.5 32.5 c 128,-1,30
 602 65 602 65 547 120.5 c 128,-1,31
 492 176 492 176 450.5 249 c 128,-1,32
 409 322 409 322 381.5 402.5 c 128,-1,33
 354 483 354 483 340 565.5 c 128,-1,34
 326 648 326 648 326 723 c 0,18,19
EndSplineSet
EndChar

StartChar: D
Encoding: 68 68 34
Width: 1874
Flags: W
LayerCount: 2
Fore
SplineSet
1570 742 m 0,0,1
 1570 573 1570 573 1540 436 c 128,-1,2
 1510 299 1510 299 1448.5 202 c 128,-1,3
 1387 105 1387 105 1291.5 52.5 c 128,-1,4
 1196 0 1196 0 1066 0 c 2,5,-1
 1007 0 l 1,6,-1
 1007 1361 l 1,7,-1
 1066 1361 l 2,8,9
 1214 1361 1214 1361 1311 1314.5 c 128,-1,10
 1408 1268 1408 1268 1465.5 1185 c 128,-1,11
 1523 1102 1523 1102 1546.5 988.5 c 128,-1,12
 1570 875 1570 875 1570 742 c 0,0,1
303 2 m 1,13,-1
 303 1361 l 1,14,-1
 791 1361 l 1,15,-1
 791 2 l 1,16,-1
 303 2 l 1,13,-1
EndSplineSet
EndChar

StartChar: E
Encoding: 69 69 35
Width: 1874
Flags: W
LayerCount: 2
Fore
SplineSet
329 2 m 1,0,-1
 329 1361 l 1,1,-1
 817 1361 l 1,2,-1
 817 813 l 1,3,-1
 1218 813 l 1,4,-1
 1218 552 l 1,5,-1
 817 552 l 1,6,-1
 817 2 l 1,7,-1
 329 2 l 1,0,-1
1039 0 m 1,8,-1
 1039 97 l 2,9,10
 1039 149 1039 149 1058 204 c 128,-1,11
 1077 259 1077 259 1127.5 304 c 128,-1,12
 1178 349 1178 349 1266 377.5 c 128,-1,13
 1354 406 1354 406 1491 406 c 2,14,-1
 1545 406 l 1,15,-1
 1545 0 l 1,16,-1
 1039 0 l 1,8,-1
1545 1361 m 1,17,-1
 1545 983 l 1,18,-1
 1466 983 l 2,19,20
 1329 983 1329 983 1245.5 1005.5 c 128,-1,21
 1162 1028 1162 1028 1116.5 1069 c 128,-1,22
 1071 1110 1071 1110 1055.5 1167 c 128,-1,23
 1040 1224 1040 1224 1040 1294 c 2,24,-1
 1040 1361 l 1,25,-1
 1545 1361 l 1,17,-1
EndSplineSet
EndChar

StartChar: F
Encoding: 70 70 36
Width: 1874
Flags: W
LayerCount: 2
Fore
SplineSet
329 2 m 1,0,-1
 329 1361 l 1,1,-1
 817 1361 l 1,2,-1
 817 813 l 1,3,-1
 1218 813 l 1,4,-1
 1218 552 l 1,5,-1
 817 552 l 1,6,-1
 817 2 l 1,7,-1
 329 2 l 1,0,-1
1545 1361 m 1,8,-1
 1545 983 l 1,9,-1
 1466 983 l 2,10,11
 1329 983 1329 983 1245.5 1005.5 c 128,-1,12
 1162 1028 1162 1028 1116.5 1069 c 128,-1,13
 1071 1110 1071 1110 1055.5 1167 c 128,-1,14
 1040 1224 1040 1224 1040 1294 c 2,15,-1
 1040 1361 l 1,16,-1
 1545 1361 l 1,8,-1
EndSplineSet
EndChar

StartChar: G
Encoding: 71 71 37
Width: 1874
Flags: W
LayerCount: 2
Fore
SplineSet
326 723 m 0,0,1
 326 794 326 794 338 868.5 c 128,-1,2
 350 943 350 943 375 1014 c 128,-1,3
 400 1085 400 1085 438 1148 c 128,-1,4
 476 1211 476 1211 528.5 1258.5 c 128,-1,5
 581 1306 581 1306 647.5 1333.5 c 128,-1,6
 714 1361 714 1361 796 1361 c 2,7,-1
 848 1361 l 1,8,-1
 848 0 l 1,9,-1
 821 0 l 2,10,11
 739 0 739 0 670.5 32.5 c 128,-1,12
 602 65 602 65 547 120.5 c 128,-1,13
 492 176 492 176 450.5 249 c 128,-1,14
 409 322 409 322 381.5 402.5 c 128,-1,15
 354 483 354 483 340 565.5 c 128,-1,16
 326 648 326 648 326 723 c 0,0,1
1548 636 m 1,17,-1
 1548 392 l 2,18,19
 1548 285 1548 285 1522.5 210.5 c 128,-1,20
 1497 136 1497 136 1442.5 89.5 c 128,-1,21
 1388 43 1388 43 1301.5 21.5 c 128,-1,22
 1215 0 1215 0 1092 0 c 2,23,-1
 1046 0 l 1,24,-1
 1046 636 l 1,25,-1
 1548 636 l 1,17,-1
1548 1361 m 1,26,-1
 1548 907 l 1,27,-1
 1373 907 l 2,28,29
 1297 907 1297 907 1244.5 928.5 c 128,-1,30
 1192 950 1192 950 1159.5 983.5 c 128,-1,31
 1127 1017 1127 1017 1112.5 1058.5 c 128,-1,32
 1098 1100 1098 1100 1098 1140 c 2,33,-1
 1098 1361 l 1,34,-1
 1548 1361 l 1,26,-1
EndSplineSet
EndChar

StartChar: H
Encoding: 72 72 38
Width: 1874
Flags: W
LayerCount: 2
Fore
SplineSet
326 2 m 1,0,-1
 326 1361 l 1,1,-1
 814 1361 l 1,2,-1
 814 680 l 1,3,-1
 1059 680 l 1,4,-1
 1059 1361 l 1,5,-1
 1547 1361 l 1,6,-1
 1547 2 l 1,7,-1
 1059 2 l 1,8,-1
 1059 529 l 1,9,-1
 814 529 l 1,10,-1
 814 2 l 1,11,-1
 326 2 l 1,0,-1
EndSplineSet
EndChar

StartChar: I
Encoding: 73 73 39
Width: 1196
Flags: W
LayerCount: 2
Fore
SplineSet
842 1361 m 1,0,-1
 842 0 l 1,1,-1
 354 0 l 1,2,-1
 354 1361 l 1,3,-1
 842 1361 l 1,0,-1
EndSplineSet
EndChar

StartChar: J
Encoding: 74 74 40
Width: 1874
Flags: W
LayerCount: 2
Fore
SplineSet
855 467 m 1,0,-1
 855 0 l 1,1,-1
 815 0 l 2,2,3
 678 0 678 0 580.5 22 c 128,-1,4
 483 44 483 44 420.5 91.5 c 128,-1,5
 358 139 358 139 329 214 c 128,-1,6
 300 289 300 289 300 395 c 2,7,-1
 300 467 l 1,8,-1
 855 467 l 1,0,-1
1574 1361 m 1,9,-1
 1574 437 l 2,10,11
 1574 331 1574 331 1551.5 249.5 c 128,-1,12
 1529 168 1529 168 1477.5 112.5 c 128,-1,13
 1426 57 1426 57 1342.5 28.5 c 128,-1,14
 1259 0 1259 0 1136 0 c 2,15,-1
 1071 0 l 1,16,-1
 1071 1361 l 1,17,-1
 1574 1361 l 1,9,-1
EndSplineSet
EndChar

StartChar: K
Encoding: 75 75 41
Width: 1874
Flags: W
LayerCount: 2
Fore
SplineSet
1494 0 m 2,0,1
 1358 0 1358 0 1265 20 c 128,-1,2
 1172 40 1172 40 1115 86.5 c 128,-1,3
 1058 133 1058 133 1033 209 c 128,-1,4
 1008 285 1008 285 1008 398 c 2,5,-1
 1008 648 l 1,6,-1
 1077 648 l 2,7,8
 1214 648 1214 648 1308 620 c 128,-1,9
 1402 592 1402 592 1460.5 535.5 c 128,-1,10
 1519 479 1519 479 1544.5 394.5 c 128,-1,11
 1570 310 1570 310 1570 198 c 2,12,-1
 1570 0 l 1,13,-1
 1494 0 l 2,0,1
1570 1359 m 1,14,-1
 1570 1170 l 2,15,16
 1570 1057 1570 1057 1544.5 978 c 128,-1,17
 1519 899 1519 899 1460.5 848.5 c 128,-1,18
 1402 798 1402 798 1308 775 c 128,-1,19
 1214 752 1214 752 1077 752 c 2,20,-1
 1008 752 l 1,21,-1
 1008 991 l 2,22,23
 1008 1103 1008 1103 1033 1175 c 128,-1,24
 1058 1247 1058 1247 1115 1287.5 c 128,-1,25
 1172 1328 1172 1328 1265 1343.5 c 128,-1,26
 1358 1359 1358 1359 1494 1359 c 2,27,-1
 1570 1359 l 1,14,-1
304 2 m 1,28,-1
 304 1361 l 1,29,-1
 792 1361 l 1,30,-1
 792 2 l 1,31,-1
 304 2 l 1,28,-1
EndSplineSet
EndChar

StartChar: L
Encoding: 76 76 42
Width: 1874
Flags: W
LayerCount: 2
Fore
SplineSet
1039 0 m 1,0,-1
 1039 97 l 2,1,2
 1039 149 1039 149 1058 204 c 128,-1,3
 1077 259 1077 259 1127.5 304 c 128,-1,4
 1178 349 1178 349 1266 377.5 c 128,-1,5
 1354 406 1354 406 1491 406 c 2,6,-1
 1545 406 l 1,7,-1
 1545 0 l 1,8,-1
 1039 0 l 1,0,-1
329 2 m 1,9,-1
 329 1361 l 1,10,-1
 817 1361 l 1,11,-1
 817 2 l 1,12,-1
 329 2 l 1,9,-1
EndSplineSet
EndChar

StartChar: M
Encoding: 77 77 43
Width: 2550
Flags: W
LayerCount: 2
Fore
SplineSet
786 1362 m 1,0,-1
 786 0 l 1,1,-1
 280 0 l 1,2,-1
 280 1362 l 1,3,-1
 786 1362 l 1,0,-1
1766 0 m 1,4,-1
 1766 1362 l 1,5,-1
 1831 1362 l 2,6,7
 1954 1362 1954 1362 2038 1333.5 c 128,-1,8
 2122 1305 2122 1305 2173 1249.5 c 128,-1,9
 2224 1194 2224 1194 2246.5 1112.5 c 128,-1,10
 2269 1031 2269 1031 2269 925 c 2,11,-1
 2269 0 l 1,12,-1
 1766 0 l 1,4,-1
1530 1362 m 1,13,-1
 1530 0 l 1,14,-1
 1024 0 l 1,15,-1
 1024 1362 l 1,16,-1
 1530 1362 l 1,13,-1
EndSplineSet
EndChar

StartChar: N
Encoding: 78 78 44
Width: 1874
Flags: W
LayerCount: 2
Fore
SplineSet
1048 0 m 1,0,-1
 1048 1361 l 1,1,-1
 1113 1361 l 2,2,3
 1236 1361 1236 1361 1319.5 1332.5 c 128,-1,4
 1403 1304 1403 1304 1454.5 1248.5 c 128,-1,5
 1506 1193 1506 1193 1528.5 1111.5 c 128,-1,6
 1551 1030 1551 1030 1551 924 c 2,7,-1
 1551 0 l 1,8,-1
 1048 0 l 1,0,-1
322 0 m 1,9,-1
 322 1361 l 1,10,-1
 810 1361 l 1,11,-1
 810 0 l 1,12,-1
 322 0 l 1,9,-1
EndSplineSet
EndChar

StartChar: O
Encoding: 79 79 45
Width: 1874
Flags: W
LayerCount: 2
Fore
SplineSet
1609 717 m 0,0,1
 1609 629 1609 629 1598 541.5 c 128,-1,2
 1587 454 1587 454 1563 374.5 c 128,-1,3
 1539 295 1539 295 1499.5 226.5 c 128,-1,4
 1460 158 1460 158 1403 107.5 c 128,-1,5
 1346 57 1346 57 1270 28.5 c 128,-1,6
 1194 0 1194 0 1096 0 c 2,7,-1
 1043 0 l 1,8,-1
 1043 1361 l 1,9,-1
 1096 1361 l 2,10,11
 1194 1361 1194 1361 1270 1336 c 128,-1,12
 1346 1311 1346 1311 1403 1266.5 c 128,-1,13
 1460 1222 1460 1222 1499.5 1161.5 c 128,-1,14
 1539 1101 1539 1101 1563 1029.5 c 128,-1,15
 1587 958 1587 958 1598 878.5 c 128,-1,16
 1609 799 1609 799 1609 717 c 0,0,1
264 717 m 0,17,18
 264 799 264 799 275 878.5 c 128,-1,19
 286 958 286 958 310 1029.5 c 128,-1,20
 334 1101 334 1101 373.5 1161.5 c 128,-1,21
 413 1222 413 1222 470 1266.5 c 128,-1,22
 527 1311 527 1311 603 1336 c 128,-1,23
 679 1361 679 1361 777 1361 c 2,24,-1
 830 1361 l 1,25,-1
 830 0 l 1,26,-1
 777 0 l 2,27,28
 679 0 679 0 603 28.5 c 128,-1,29
 527 57 527 57 470 107.5 c 128,-1,30
 413 158 413 158 373.5 226.5 c 128,-1,31
 334 295 334 295 310 374.5 c 128,-1,32
 286 454 286 454 275 541.5 c 128,-1,33
 264 629 264 629 264 717 c 0,17,18
EndSplineSet
EndChar

StartChar: P
Encoding: 80 80 46
Width: 1874
Flags: W
LayerCount: 2
Fore
SplineSet
1597 847 m 0,0,1
 1597 745 1597 745 1563.5 657 c 128,-1,2
 1530 569 1530 569 1464 504.5 c 128,-1,3
 1398 440 1398 440 1299.5 403 c 128,-1,4
 1201 366 1201 366 1071 366 c 2,5,-1
 994 366 l 1,6,-1
 994 1361 l 1,7,-1
 1043 1361 l 2,8,9
 1191 1361 1191 1361 1296 1323.5 c 128,-1,10
 1401 1286 1401 1286 1468 1218 c 128,-1,11
 1535 1150 1535 1150 1566 1055.5 c 128,-1,12
 1597 961 1597 961 1597 847 c 0,0,1
276 2 m 1,13,-1
 276 1361 l 1,14,-1
 764 1361 l 1,15,-1
 764 2 l 1,16,-1
 276 2 l 1,13,-1
EndSplineSet
EndChar

StartChar: Q
Encoding: 81 81 47
Width: 1874
Flags: W
LayerCount: 2
Fore
SplineSet
1599 -170 m 1,0,-1
 1599 -510 l 1,1,-1
 1436 -510 l 2,2,3
 1246 -510 1246 -510 1145 -437 c 128,-1,4
 1044 -364 1044 -364 1044 -236 c 2,5,-1
 1044 -170 l 1,6,-1
 1599 -170 l 1,0,-1
1779 717 m 0,7,8
 1779 629 1779 629 1768 541.5 c 128,-1,9
 1757 454 1757 454 1733 374.5 c 128,-1,10
 1709 295 1709 295 1669.5 226.5 c 128,-1,11
 1630 158 1630 158 1573 107.5 c 128,-1,12
 1516 57 1516 57 1440 28.5 c 128,-1,13
 1364 0 1364 0 1266 0 c 2,14,-1
 1213 0 l 1,15,-1
 1213 1361 l 1,16,-1
 1266 1361 l 2,17,18
 1364 1361 1364 1361 1440 1336 c 128,-1,19
 1516 1311 1516 1311 1573 1266.5 c 128,-1,20
 1630 1222 1630 1222 1669.5 1161.5 c 128,-1,21
 1709 1101 1709 1101 1733 1029.5 c 128,-1,22
 1757 958 1757 958 1768 878.5 c 128,-1,23
 1779 799 1779 799 1779 717 c 0,7,8
434 717 m 0,24,25
 434 799 434 799 445 878.5 c 128,-1,26
 456 958 456 958 480 1029.5 c 128,-1,27
 504 1101 504 1101 543.5 1161.5 c 128,-1,28
 583 1222 583 1222 640 1266.5 c 128,-1,29
 697 1311 697 1311 773 1336 c 128,-1,30
 849 1361 849 1361 947 1361 c 2,31,-1
 1000 1361 l 1,32,-1
 1000 0 l 1,33,-1
 947 0 l 2,34,35
 849 0 849 0 773 28.5 c 128,-1,36
 697 57 697 57 640 107.5 c 128,-1,37
 583 158 583 158 543.5 226.5 c 128,-1,38
 504 295 504 295 480 374.5 c 128,-1,39
 456 454 456 454 445 541.5 c 128,-1,40
 434 629 434 629 434 717 c 0,24,25
EndSplineSet
EndChar

StartChar: R
Encoding: 82 82 48
Width: 1874
Flags: W
LayerCount: 2
Fore
SplineSet
800 1361 m 1,0,-1
 800 0 l 1,1,-1
 312 0 l 1,2,-1
 312 1361 l 1,3,-1
 800 1361 l 1,0,-1
1538 938 m 0,4,5
 1538 781 1538 781 1478.5 682 c 128,-1,6
 1419 583 1419 583 1291 541 c 1,7,8
 1367 514 1367 514 1418.5 469 c 128,-1,9
 1470 424 1470 424 1502 366 c 128,-1,10
 1534 308 1534 308 1548 241.5 c 128,-1,11
 1562 175 1562 175 1562 106 c 2,12,-1
 1562 0 l 1,13,-1
 1016 0 l 1,14,-1
 1016 1363 l 1,15,-1
 1043 1363 l 2,16,17
 1166 1363 1166 1363 1258.5 1339 c 128,-1,18
 1351 1315 1351 1315 1413 1263 c 128,-1,19
 1475 1211 1475 1211 1506.5 1130.5 c 128,-1,20
 1538 1050 1538 1050 1538 938 c 0,4,5
EndSplineSet
EndChar

StartChar: S
Encoding: 83 83 49
Width: 1874
Flags: W
LayerCount: 2
Fore
SplineSet
1550 374 m 1,0,1
 1550 271 1550 271 1526.5 200 c 128,-1,2
 1503 129 1503 129 1453.5 84.5 c 128,-1,3
 1404 40 1404 40 1328 20.5 c 128,-1,4
 1252 1 1252 1 1147 1 c 1,5,-1
 324 959 l 1,6,7
 324 1165 324 1165 425.5 1263 c 128,-1,8
 527 1361 527 1361 737 1361 c 1,9,-1
 1550 374 l 1,0,1
977 1361 m 1,10,-1
 1550 1361 l 1,11,-1
 1550 725 l 1,12,-1
 977 1361 l 1,10,-1
877 0 m 1,13,-1
 327 0 l 1,14,-1
 327 638 l 1,15,-1
 877 0 l 1,13,-1
EndSplineSet
EndChar

StartChar: T
Encoding: 84 84 50
Width: 1874
Flags: W
LayerCount: 2
Fore
SplineSet
1182 1361 m 1,0,-1
 1182 0 l 1,1,-1
 694 0 l 1,2,-1
 694 1361 l 1,3,-1
 1182 1361 l 1,0,-1
1739 796 m 1,4,-1
 1652 796 l 2,5,6
 1582 796 1582 796 1525 811.5 c 128,-1,7
 1468 827 1468 827 1427 872.5 c 128,-1,8
 1386 918 1386 918 1363.5 1001.5 c 128,-1,9
 1341 1085 1341 1085 1341 1222 c 2,10,-1
 1341 1361 l 1,11,-1
 1739 1361 l 1,12,-1
 1739 796 l 1,4,-1
134 1361 m 1,13,-1
 532 1361 l 1,14,-1
 532 1222 l 2,15,16
 532 1085 532 1085 509.5 1001.5 c 128,-1,17
 487 918 487 918 446 872.5 c 128,-1,18
 405 827 405 827 348 811.5 c 128,-1,19
 291 796 291 796 221 796 c 2,20,-1
 134 796 l 1,21,-1
 134 1361 l 1,13,-1
EndSplineSet
EndChar

StartChar: U
Encoding: 85 85 51
Width: 1874
Flags: W
LayerCount: 2
Fore
SplineSet
1043 0 m 1,0,-1
 1043 1362 l 1,1,-1
 1549 1362 l 1,2,-1
 1549 0 l 1,3,-1
 1043 0 l 1,0,-1
828 1362 m 1,4,-1
 828 0 l 1,5,-1
 763 0 l 2,6,7
 640 0 640 0 556.5 28.5 c 128,-1,8
 473 57 473 57 421.5 112.5 c 128,-1,9
 370 168 370 168 347.5 249.5 c 128,-1,10
 325 331 325 331 325 437 c 2,11,-1
 325 1362 l 1,12,-1
 828 1362 l 1,4,-1
EndSplineSet
EndChar

StartChar: V
Encoding: 86 86 52
Width: 1874
Flags: W
LayerCount: 2
Fore
SplineSet
788 0 m 2,0,1
 665 0 665 0 577 45.5 c 128,-1,2
 489 91 489 91 433 175 c 128,-1,3
 377 259 377 259 351 377.5 c 128,-1,4
 325 496 325 496 325 642 c 2,5,-1
 325 1361 l 1,6,-1
 361 1361 l 2,7,8
 484 1361 484 1361 572 1336.5 c 128,-1,9
 660 1312 660 1312 716.5 1260.5 c 128,-1,10
 773 1209 773 1209 799 1129 c 128,-1,11
 825 1049 825 1049 825 937 c 2,12,-1
 825 0 l 1,13,-1
 788 0 l 2,0,1
1049 0 m 1,14,-1
 1049 937 l 2,15,16
 1049 1049 1049 1049 1075.5 1129 c 128,-1,17
 1102 1209 1102 1209 1158 1260.5 c 128,-1,18
 1214 1312 1214 1312 1302 1336.5 c 128,-1,19
 1390 1361 1390 1361 1513 1361 c 2,20,-1
 1549 1361 l 1,21,-1
 1549 642 l 2,22,23
 1549 496 1549 496 1523 377.5 c 128,-1,24
 1497 259 1497 259 1440.5 175 c 128,-1,25
 1384 91 1384 91 1296 45.5 c 128,-1,26
 1208 0 1208 0 1085 0 c 2,27,-1
 1049 0 l 1,14,-1
EndSplineSet
EndChar

StartChar: W
Encoding: 87 87 53
Width: 2899
Flags: W
LayerCount: 2
Fore
SplineSet
959 1363 m 1,0,-1
 959 0 l 1,1,-1
 895 0 l 2,2,3
 772 0 772 0 688 28.5 c 128,-1,4
 604 57 604 57 552.5 112.5 c 128,-1,5
 501 168 501 168 478.5 249.5 c 128,-1,6
 456 331 456 331 456 437 c 2,7,-1
 456 1363 l 1,8,-1
 959 1363 l 1,0,-1
1197 -1 m 1,9,-1
 1197 1362 l 1,10,-1
 1703 1362 l 1,11,-1
 1703 -1 l 1,12,-1
 1197 -1 l 1,9,-1
2443 1363 m 1,13,-1
 2443 437 l 2,14,15
 2443 331 2443 331 2420.5 249.5 c 128,-1,16
 2398 168 2398 168 2346.5 112.5 c 128,-1,17
 2295 57 2295 57 2211 28.5 c 128,-1,18
 2127 0 2127 0 2004 0 c 2,19,-1
 1940 0 l 1,20,-1
 1940 1363 l 1,21,-1
 2443 1363 l 1,13,-1
EndSplineSet
EndChar

StartChar: X
Encoding: 88 88 54
Width: 1874
Flags: W
LayerCount: 2
Fore
SplineSet
1166 866 m 1,0,-1
 1166 934 l 2,1,2
 1166 1078 1166 1078 1184.5 1163 c 128,-1,3
 1203 1248 1203 1248 1245 1292 c 128,-1,4
 1287 1336 1287 1336 1354.5 1348.5 c 128,-1,5
 1422 1361 1422 1361 1520 1361 c 2,6,-1
 1549 1361 l 1,7,-1
 1549 1203 l 2,8,9
 1549 1086 1549 1086 1521 1018.5 c 128,-1,10
 1493 951 1493 951 1444.5 917.5 c 128,-1,11
 1396 884 1396 884 1331 875 c 128,-1,12
 1266 866 1266 866 1193 866 c 2,13,-1
 1166 866 l 1,0,-1
402 877 m 1,14,15
 384 904 384 904 369.5 937 c 128,-1,16
 355 970 355 970 345 1011.5 c 128,-1,17
 335 1053 335 1053 329.5 1103.5 c 128,-1,18
 324 1154 324 1154 324 1216 c 2,19,-1
 324 1361 l 1,20,-1
 675 1361 l 1,21,22
 811 1212 811 1212 916 1097 c 128,-1,23
 1021 982 1021 982 1101 894.5 c 128,-1,24
 1181 807 1181 807 1238 744.5 c 128,-1,25
 1295 682 1295 682 1334.5 638.5 c 128,-1,26
 1374 595 1374 595 1398.5 568 c 128,-1,27
 1423 541 1423 541 1438 523.5 c 128,-1,28
 1453 506 1453 506 1460.5 496 c 128,-1,29
 1468 486 1468 486 1473 477 c 0,30,31
 1491 448 1491 448 1505 416 c 128,-1,32
 1519 384 1519 384 1528.5 344.5 c 128,-1,33
 1538 305 1538 305 1543.5 256 c 128,-1,34
 1549 207 1549 207 1549 143 c 2,35,-1
 1549 0 l 1,36,-1
 1209 0 l 1,37,-1
 402 877 l 1,14,15
707 493 m 1,38,-1
 707 425 l 2,39,40
 707 329 707 329 699 260 c 128,-1,41
 691 191 691 191 673 143.5 c 128,-1,42
 655 96 655 96 627.5 68 c 128,-1,43
 600 40 600 40 560.5 24.5 c 128,-1,44
 521 9 521 9 469.5 4.5 c 128,-1,45
 418 0 418 0 353 0 c 2,46,-1
 324 0 l 1,47,-1
 324 156 l 2,48,49
 324 273 324 273 352 340.5 c 128,-1,50
 380 408 380 408 428.5 441.5 c 128,-1,51
 477 475 477 475 542 484 c 128,-1,52
 607 493 607 493 680 493 c 2,53,-1
 707 493 l 1,38,-1
EndSplineSet
EndChar

StartChar: Y
Encoding: 89 89 55
Width: 1874
Flags: W
LayerCount: 2
Fore
SplineSet
1549 1361 m 1,0,-1
 1549 -37 l 2,1,2
 1549 -144 1549 -144 1525 -231 c 128,-1,3
 1501 -318 1501 -318 1447 -380 c 128,-1,4
 1393 -442 1393 -442 1307.5 -476 c 128,-1,5
 1222 -510 1222 -510 1099 -510 c 2,6,-1
 1062 -510 l 1,7,-1
 1062 1361 l 1,8,-1
 1549 1361 l 1,0,-1
828 1361 m 1,9,-1
 828 0 l 1,10,-1
 763 0 l 2,11,12
 640 0 640 0 556.5 28.5 c 128,-1,13
 473 57 473 57 421.5 112.5 c 128,-1,14
 370 168 370 168 347.5 249.5 c 128,-1,15
 325 331 325 331 325 437 c 2,16,-1
 325 1361 l 1,17,-1
 828 1361 l 1,9,-1
EndSplineSet
EndChar

StartChar: Z
Encoding: 90 90 56
Width: 1874
Flags: W
LayerCount: 2
Fore
SplineSet
1130 1361 m 1,0,-1
 1576 1361 l 1,1,-1
 1576 1073 l 2,2,3
 1576 1034 1576 1034 1565.5 998 c 128,-1,4
 1555 962 1555 962 1538.5 929.5 c 128,-1,5
 1522 897 1522 897 1501.5 868 c 128,-1,6
 1481 839 1481 839 1461 814 c 1,7,-1
 725 0 l 1,8,-1
 297 0 l 1,9,-1
 297 263 l 2,10,11
 297 302 297 302 307 336.5 c 128,-1,12
 317 371 317 371 333 401.5 c 128,-1,13
 349 432 349 432 369 459 c 128,-1,14
 389 486 389 486 409 511 c 2,15,-1
 1130 1361 l 1,0,-1
384 814 m 1,16,17
 362 827 362 827 345.5 859 c 128,-1,18
 329 891 329 891 318.5 939 c 128,-1,19
 308 987 308 987 302.5 1049 c 128,-1,20
 297 1111 297 1111 297 1185 c 0,21,22
 297 1200 297 1200 298 1224.5 c 128,-1,23
 299 1249 299 1249 302 1274.5 c 128,-1,24
 305 1300 305 1300 310.5 1323.5 c 128,-1,25
 316 1347 316 1347 325 1361 c 1,26,-1
 898 1361 l 1,27,-1
 384 814 l 1,16,17
1510 567 m 1,28,29
 1532 555 1532 555 1546 519.5 c 128,-1,30
 1560 484 1560 484 1567 432.5 c 128,-1,31
 1574 381 1574 381 1575.5 315.5 c 128,-1,32
 1577 250 1577 250 1576 177 c 0,33,34
 1576 161 1576 161 1576 137 c 128,-1,35
 1576 113 1576 113 1573.5 87.5 c 128,-1,36
 1571 62 1571 62 1565.5 38.5 c 128,-1,37
 1560 15 1560 15 1550 0 c 1,38,-1
 986 0 l 1,39,-1
 1510 567 l 1,28,29
EndSplineSet
EndChar

StartChar: ampersand
Encoding: 38 38 57
Width: 1874
Flags: W
LayerCount: 2
Fore
SplineSet
1530 1020 m 0,0,1
 1530 957 1530 957 1498.5 896 c 128,-1,2
 1467 835 1467 835 1405.5 787 c 128,-1,3
 1344 739 1344 739 1253 709.5 c 128,-1,4
 1162 680 1162 680 1044 680 c 2,5,-1
 1087 680 l 2,6,7
 1224 680 1224 680 1318 669 c 128,-1,8
 1412 658 1412 658 1470.5 622.5 c 128,-1,9
 1529 587 1529 587 1554.5 519.5 c 128,-1,10
 1580 452 1580 452 1580 340 c 2,11,-1
 1580 0 l 1,12,-1
 1504 0 l 2,13,14
 1368 0 1368 0 1275 20 c 128,-1,15
 1182 40 1182 40 1125 86.5 c 128,-1,16
 1068 133 1068 133 1043 209 c 128,-1,17
 1018 285 1018 285 1018 398 c 2,18,-1
 1018 680 l 1,19,-1
 1017 680 l 1,20,-1
 1017 1361 l 1,21,-1
 1069 1361 l 2,22,23
 1178 1361 1178 1361 1263.5 1332 c 128,-1,24
 1349 1303 1349 1303 1408.5 1255 c 128,-1,25
 1468 1207 1468 1207 1499 1145.5 c 128,-1,26
 1530 1084 1530 1084 1530 1020 c 0,0,1
315 1019 m 0,27,28
 315 1084 315 1084 339 1145.5 c 128,-1,29
 363 1207 363 1207 417 1255 c 128,-1,30
 471 1303 471 1303 556.5 1332 c 128,-1,31
 642 1361 642 1361 765 1361 c 2,32,-1
 817 1361 l 1,33,-1
 817 0 l 1,34,-1
 765 0 l 2,35,36
 642 0 642 0 549.5 30.5 c 128,-1,37
 457 61 457 61 395.5 117 c 128,-1,38
 334 173 334 173 303.5 252 c 128,-1,39
 273 331 273 331 273 427 c 0,40,41
 273 549 273 549 323 634.5 c 128,-1,42
 373 720 373 720 476 767 c 1,43,44
 390 809 390 809 352.5 874.5 c 128,-1,45
 315 940 315 940 315 1019 c 0,27,28
EndSplineSet
EndChar

StartChar: zero
Encoding: 48 48 58
Width: 1874
Flags: W
LayerCount: 2
Fore
SplineSet
1610 720 m 0,0,1
 1610 543 1610 543 1585 408.5 c 128,-1,2
 1560 274 1560 274 1500.5 183.5 c 128,-1,3
 1441 93 1441 93 1342.5 46.5 c 128,-1,4
 1244 0 1244 0 1097 0 c 2,5,-1
 1044 0 l 1,6,-1
 1044 1361 l 1,7,-1
 1097 1361 l 2,8,9
 1244 1361 1244 1361 1342.5 1322.5 c 128,-1,10
 1441 1284 1441 1284 1500.5 1204.5 c 128,-1,11
 1560 1125 1560 1125 1585 1004.5 c 128,-1,12
 1610 884 1610 884 1610 720 c 0,0,1
265 720 m 0,13,14
 265 884 265 884 290 1004.5 c 128,-1,15
 315 1125 315 1125 374.5 1204.5 c 128,-1,16
 434 1284 434 1284 532.5 1322.5 c 128,-1,17
 631 1361 631 1361 778 1361 c 2,18,-1
 831 1361 l 1,19,-1
 831 0 l 1,20,-1
 778 0 l 2,21,22
 631 0 631 0 532.5 46.5 c 128,-1,23
 434 93 434 93 374.5 183.5 c 128,-1,24
 315 274 315 274 290 408.5 c 128,-1,25
 265 543 265 543 265 720 c 0,13,14
EndSplineSet
EndChar

StartChar: one
Encoding: 49 49 59
Width: 1192
Flags: W
LayerCount: 2
Fore
SplineSet
326 0 m 1,0,-1
 326 1246 l 1,1,-1
 866 1396 l 1,2,-1
 866 0 l 1,3,-1
 326 0 l 1,0,-1
EndSplineSet
EndChar

StartChar: two
Encoding: 50 50 60
Width: 1874
Flags: W
LayerCount: 2
Fore
SplineSet
1598 331 m 1,0,-1
 1598 0 l 1,1,-1
 1059 0 l 1,2,-1
 1059 331 l 1,3,-1
 1598 331 l 1,0,-1
1649 922 m 0,4,5
 1649 815 1649 815 1615.5 741 c 128,-1,6
 1582 667 1582 667 1516 620.5 c 128,-1,7
 1450 574 1450 574 1351.5 553 c 128,-1,8
 1253 532 1253 532 1123 532 c 2,9,-1
 1046 532 l 1,10,-1
 1046 1361 l 1,11,-1
 1095 1361 l 2,12,13
 1243 1361 1243 1361 1348 1337 c 128,-1,14
 1453 1313 1453 1313 1520 1260 c 128,-1,15
 1587 1207 1587 1207 1618 1123.5 c 128,-1,16
 1649 1040 1649 1040 1649 922 c 0,4,5
313 0 m 1,17,-1
 313 336 l 2,18,19
 313 442 313 442 348.5 517 c 128,-1,20
 384 592 384 592 446 639.5 c 128,-1,21
 508 687 508 687 590.5 709 c 128,-1,22
 673 731 673 731 768 731 c 2,23,-1
 868 731 l 1,24,-1
 868 0 l 1,25,-1
 313 0 l 1,17,-1
313 900 m 1,26,-1
 313 966 l 2,27,28
 313 1072 313 1072 348.5 1147 c 128,-1,29
 384 1222 384 1222 446 1269.5 c 128,-1,30
 508 1317 508 1317 590.5 1339 c 128,-1,31
 673 1361 673 1361 768 1361 c 2,32,-1
 868 1361 l 1,33,-1
 868 900 l 1,34,-1
 313 900 l 1,26,-1
EndSplineSet
EndChar

StartChar: three
Encoding: 51 51 61
Width: 1874
Flags: W
LayerCount: 2
Fore
SplineSet
1554 974 m 0,0,1
 1554 751 1554 751 1287 689 c 1,2,3
 1367 674 1367 674 1425 644 c 128,-1,4
 1483 614 1483 614 1520.5 573.5 c 128,-1,5
 1558 533 1558 533 1576 485 c 128,-1,6
 1594 437 1594 437 1594 386 c 0,7,8
 1594 295 1594 295 1562.5 223 c 128,-1,9
 1531 151 1531 151 1469 101.5 c 128,-1,10
 1407 52 1407 52 1314.5 26 c 128,-1,11
 1222 0 1222 0 1099 0 c 2,12,-1
 1032 0 l 1,13,-1
 1032 611 l 1,14,-1
 850 611 l 1,15,-1
 850 778 l 1,16,-1
 1032 778 l 1,17,-1
 1032 1361 l 1,18,-1
 1084 1361 l 2,19,20
 1207 1361 1207 1361 1296 1332.5 c 128,-1,21
 1385 1304 1385 1304 1442 1253 c 128,-1,22
 1499 1202 1499 1202 1526.5 1130.5 c 128,-1,23
 1554 1059 1554 1059 1554 974 c 0,0,1
313 900 m 1,24,-1
 313 966 l 2,25,26
 313 1072 313 1072 348.5 1147 c 128,-1,27
 384 1222 384 1222 446 1269.5 c 128,-1,28
 508 1317 508 1317 590.5 1339 c 128,-1,29
 673 1361 673 1361 768 1361 c 2,30,-1
 868 1361 l 1,31,-1
 868 900 l 1,32,-1
 313 900 l 1,24,-1
868 461 m 1,33,-1
 868 0 l 1,34,-1
 768 0 l 2,35,36
 673 0 673 0 590.5 22 c 128,-1,37
 508 44 508 44 446 91.5 c 128,-1,38
 384 139 384 139 348.5 214 c 128,-1,39
 313 289 313 289 313 395 c 2,40,-1
 313 461 l 1,41,-1
 868 461 l 1,33,-1
EndSplineSet
EndChar

StartChar: four
Encoding: 52 52 62
Width: 1874
Flags: W
LayerCount: 2
Fore
SplineSet
309 341 m 1,0,-1
 309 853 l 2,1,2
 309 965 309 965 338 1058.5 c 128,-1,3
 367 1152 367 1152 429 1219.5 c 128,-1,4
 491 1287 491 1287 589 1324 c 128,-1,5
 687 1361 687 1361 824 1361 c 2,6,-1
 864 1361 l 1,7,-1
 864 341 l 1,8,-1
 309 341 l 1,0,-1
1554 1020 m 1,9,-1
 1554 0 l 1,10,-1
 1071 0 l 1,11,-1
 1071 1020 l 1,12,-1
 1554 1020 l 1,9,-1
EndSplineSet
EndChar

StartChar: five
Encoding: 53 53 63
Width: 1874
Flags: W
LayerCount: 2
Fore
SplineSet
1649 429 m 0,0,1
 1649 310 1649 310 1618 228.5 c 128,-1,2
 1587 147 1587 147 1520 96 c 128,-1,3
 1453 45 1453 45 1348 22.5 c 128,-1,4
 1243 0 1243 0 1095 0 c 2,5,-1
 1046 0 l 1,6,-1
 1046 869 l 1,7,-1
 1123 869 l 2,8,9
 1383 869 1383 869 1516 756 c 128,-1,10
 1649 643 1649 643 1649 429 c 0,0,1
868 1361 m 1,11,-1
 868 680 l 1,12,-1
 313 681 l 1,13,-1
 313 1361 l 1,14,-1
 868 1361 l 1,11,-1
868 461 m 1,15,-1
 868 0 l 1,16,-1
 768 0 l 2,17,18
 673 0 673 0 590.5 22 c 128,-1,19
 508 44 508 44 446 91.5 c 128,-1,20
 384 139 384 139 348.5 214 c 128,-1,21
 313 289 313 289 313 395 c 2,22,-1
 313 461 l 1,23,-1
 868 461 l 1,15,-1
1059 1080 m 1,24,-1
 1059 1361 l 1,25,-1
 1598 1361 l 1,26,-1
 1598 1080 l 1,27,-1
 1059 1080 l 1,24,-1
EndSplineSet
EndChar

StartChar: six
Encoding: 54 54 64
Width: 1874
Flags: W
LayerCount: 2
Fore
SplineSet
1649 389 m 0,0,1
 1649 270 1649 270 1618 194.5 c 128,-1,2
 1587 119 1587 119 1520 76 c 128,-1,3
 1453 33 1453 33 1348 16.5 c 128,-1,4
 1243 0 1243 0 1095 0 c 2,5,-1
 1046 0 l 1,6,-1
 1046 742 l 1,7,-1
 1123 742 l 2,8,9
 1253 742 1253 742 1351.5 727 c 128,-1,10
 1450 712 1450 712 1516 672.5 c 128,-1,11
 1582 633 1582 633 1615.5 564.5 c 128,-1,12
 1649 496 1649 496 1649 389 c 0,0,1
1601 1361 m 1,13,-1
 1601 894 l 1,14,-1
 1561 894 l 2,15,16
 1424 894 1424 894 1326.5 916 c 128,-1,17
 1229 938 1229 938 1166.5 985.5 c 128,-1,18
 1104 1033 1104 1033 1075 1108 c 128,-1,19
 1046 1183 1046 1183 1046 1289 c 2,20,-1
 1046 1361 l 1,21,-1
 1601 1361 l 1,13,-1
265 720 m 0,22,23
 265 1048 265 1048 393 1204.5 c 128,-1,24
 521 1361 521 1361 778 1361 c 2,25,-1
 831 1361 l 1,26,-1
 831 0 l 1,27,-1
 778 0 l 2,28,29
 514 0 514 0 389.5 183.5 c 128,-1,30
 265 367 265 367 265 720 c 0,22,23
EndSplineSet
EndChar

StartChar: seven
Encoding: 55 55 65
Width: 1874
Flags: W
LayerCount: 2
Fore
SplineSet
728 2 m 1,0,-1
 1049 1361 l 1,1,-1
 1588 1361 l 1,2,-1
 1268 2 l 1,3,-1
 728 2 l 1,0,-1
782 1360 m 1,4,-1
 782 1123 l 2,5,6
 782 1076 782 1076 777.5 1030.5 c 128,-1,7
 773 985 773 985 758.5 944 c 128,-1,8
 744 903 744 903 717 868 c 128,-1,9
 690 833 690 833 645 807.5 c 128,-1,10
 600 782 600 782 535 767.5 c 128,-1,11
 470 753 470 753 379 753 c 2,12,-1
 236 753 l 1,13,-1
 236 1360 l 1,14,-1
 782 1360 l 1,4,-1
EndSplineSet
EndChar

StartChar: eight
Encoding: 56 56 66
Width: 1874
Flags: W
LayerCount: 2
Fore
SplineSet
1574 944 m 0,0,1
 1574 848 1574 848 1536.5 786.5 c 128,-1,2
 1499 725 1499 725 1427 688 c 1,3,4
 1521 650 1521 650 1567.5 581 c 128,-1,5
 1614 512 1614 512 1614 406 c 0,6,7
 1614 315 1614 315 1579.5 240 c 128,-1,8
 1545 165 1545 165 1479 112 c 128,-1,9
 1413 59 1413 59 1317.5 29.5 c 128,-1,10
 1222 0 1222 0 1099 0 c 2,11,-1
 1032 0 l 1,12,-1
 1032 1361 l 1,13,-1
 1084 1361 l 2,14,15
 1207 1361 1207 1361 1299 1328 c 128,-1,16
 1391 1295 1391 1295 1452 1238 c 128,-1,17
 1513 1181 1513 1181 1543.5 1105 c 128,-1,18
 1574 1029 1574 1029 1574 944 c 0,0,1
249 406 m 0,19,20
 249 512 249 512 295 581 c 128,-1,21
 341 650 341 650 435 688 c 1,22,23
 363 725 363 725 326 786.5 c 128,-1,24
 289 848 289 848 289 944 c 0,25,26
 289 1029 289 1029 319.5 1105 c 128,-1,27
 350 1181 350 1181 411 1238 c 128,-1,28
 472 1295 472 1295 564 1328 c 128,-1,29
 656 1361 656 1361 779 1361 c 2,30,-1
 831 1361 l 1,31,-1
 831 0 l 1,32,-1
 764 0 l 2,33,34
 641 0 641 0 545.5 29.5 c 128,-1,35
 450 59 450 59 384 112 c 128,-1,36
 318 165 318 165 283.5 240 c 128,-1,37
 249 315 249 315 249 406 c 0,19,20
EndSplineSet
EndChar

StartChar: nine
Encoding: 57 57 67
Width: 1874
Flags: W
LayerCount: 2
Fore
SplineSet
265 942 m 0,0,1
 265 1060 265 1060 296 1140.5 c 128,-1,2
 327 1221 327 1221 394 1270 c 128,-1,3
 461 1319 461 1319 566 1340 c 128,-1,4
 671 1361 671 1361 819 1361 c 2,5,-1
 868 1361 l 1,6,-1
 868 619 l 1,7,-1
 791 619 l 2,8,9
 661 619 661 619 562.5 629.5 c 128,-1,10
 464 640 464 640 398 673.5 c 128,-1,11
 332 707 332 707 298.5 771 c 128,-1,12
 265 835 265 835 265 942 c 0,0,1
868 467 m 1,13,-1
 868 0 l 1,14,-1
 828 0 l 2,15,16
 691 0 691 0 593.5 22 c 128,-1,17
 496 44 496 44 433.5 91.5 c 128,-1,18
 371 139 371 139 342 214 c 128,-1,19
 313 289 313 289 313 395 c 2,20,-1
 313 467 l 1,21,-1
 868 467 l 1,13,-1
1649 671 m 0,22,23
 1649 343 1649 343 1520.5 171.5 c 128,-1,24
 1392 0 1392 0 1136 0 c 2,25,-1
 1083 0 l 1,26,-1
 1083 1361 l 1,27,-1
 1136 1361 l 2,28,29
 1268 1361 1268 1361 1364.5 1319.5 c 128,-1,30
 1461 1278 1461 1278 1524.5 1192.5 c 128,-1,31
 1588 1107 1588 1107 1618.5 977.5 c 128,-1,32
 1649 848 1649 848 1649 671 c 0,22,23
EndSplineSet
EndChar

StartChar: period
Encoding: 46 46 68
Width: 854
Flags: W
LayerCount: 2
Fore
SplineSet
134 207 m 0,0,1
 134 313 134 313 207 359.5 c 128,-1,2
 280 406 280 406 431 406 c 0,3,4
 578 406 578 406 649 359.5 c 128,-1,5
 720 313 720 313 720 207 c 0,6,7
 720 100 720 100 654 50 c 128,-1,8
 588 0 588 0 440 0 c 0,9,10
 294 0 294 0 214 50 c 128,-1,11
 134 100 134 100 134 207 c 0,0,1
EndSplineSet
EndChar

StartChar: periodcentered
Encoding: 183 183 69
Width: 854
Flags: W
LayerCount: 2
Fore
SplineSet
134 651 m 0,0,1
 134 757 134 757 207 803.5 c 128,-1,2
 280 850 280 850 431 850 c 0,3,4
 578 850 578 850 649 803.5 c 128,-1,5
 720 757 720 757 720 651 c 0,6,7
 720 544 720 544 654 494 c 128,-1,8
 588 444 588 444 440 444 c 0,9,10
 294 444 294 444 214 494 c 128,-1,11
 134 544 134 544 134 651 c 0,0,1
EndSplineSet
EndChar

StartChar: bullet
Encoding: 8226 8226 70
Width: 1018
Flags: W
LayerCount: 2
Fore
SplineSet
870 657 m 0,0,1
 870 585 870 585 839.5 527.5 c 128,-1,2
 809 470 809 470 757 430 c 128,-1,3
 705 390 705 390 637 368.5 c 128,-1,4
 569 347 569 347 494 347 c 0,5,6
 420 347 420 347 356.5 368.5 c 128,-1,7
 293 390 293 390 246.5 430 c 128,-1,8
 200 470 200 470 174 527.5 c 128,-1,9
 148 585 148 585 148 657 c 0,10,11
 148 730 148 730 177.5 787.5 c 128,-1,12
 207 845 207 845 257.5 885 c 128,-1,13
 308 925 308 925 375 945.5 c 128,-1,14
 442 966 442 966 517 966 c 256,15,16
 592 966 592 966 657 945.5 c 128,-1,17
 722 925 722 925 769 885 c 128,-1,18
 816 845 816 845 843 787.5 c 128,-1,19
 870 730 870 730 870 657 c 0,0,1
EndSplineSet
EndChar

StartChar: comma
Encoding: 44 44 71
Width: 854
Flags: W
LayerCount: 2
Fore
SplineSet
437 0 m 1,0,1
 293 0 293 0 213.5 50 c 128,-1,2
 134 100 134 100 134 207 c 0,3,4
 134 313 134 313 207 359.5 c 128,-1,5
 280 406 280 406 431 406 c 0,6,7
 575 406 575 406 645.5 361.5 c 128,-1,8
 716 317 716 317 720 215 c 0,9,10
 720 213 720 213 720.5 211 c 128,-1,11
 721 209 721 209 721 207 c 2,12,-1
 721 24 l 2,13,14
 721 -29 721 -29 696.5 -75 c 128,-1,15
 672 -121 672 -121 631.5 -155.5 c 128,-1,16
 591 -190 591 -190 540 -210 c 128,-1,17
 489 -230 489 -230 437 -230 c 1,18,-1
 437 0 l 1,0,1
EndSplineSet
EndChar

StartChar: semicolon
Encoding: 59 59 73
Width: 854
Flags: W
LayerCount: 2
Fore
SplineSet
437 0 m 1,0,1
 293 0 293 0 213.5 50 c 128,-1,2
 134 100 134 100 134 207 c 0,3,4
 134 313 134 313 207 359.5 c 128,-1,5
 280 406 280 406 431 406 c 0,6,7
 575 406 575 406 645.5 361.5 c 128,-1,8
 716 317 716 317 720 215 c 0,9,10
 720 213 720 213 720.5 211 c 128,-1,11
 721 209 721 209 721 207 c 2,12,-1
 721 24 l 2,13,14
 721 -29 721 -29 696.5 -75 c 128,-1,15
 672 -121 672 -121 631.5 -155.5 c 128,-1,16
 591 -190 591 -190 540 -210 c 128,-1,17
 489 -230 489 -230 437 -230 c 1,18,-1
 437 0 l 1,0,1
134 895 m 0,19,20
 134 1001 134 1001 207 1047.5 c 128,-1,21
 280 1094 280 1094 431 1094 c 0,22,23
 578 1094 578 1094 649 1047.5 c 128,-1,24
 720 1001 720 1001 720 895 c 0,25,26
 720 788 720 788 654 738 c 128,-1,27
 588 688 588 688 440 688 c 0,28,29
 294 688 294 688 214 738 c 128,-1,30
 134 788 134 788 134 895 c 0,19,20
EndSplineSet
EndChar

StartChar: exclam
Encoding: 33 33 74
Width: 1194
Flags: W
LayerCount: 2
Fore
SplineSet
347 679 m 1,0,-1
 307 1700 l 1,1,-1
 887 1700 l 1,2,-1
 848 679 l 1,3,-1
 347 679 l 1,0,-1
304 207 m 0,4,5
 304 313 304 313 377 359.5 c 128,-1,6
 450 406 450 406 601 406 c 0,7,8
 748 406 748 406 819 359.5 c 128,-1,9
 890 313 890 313 890 207 c 0,10,11
 890 100 890 100 824 50 c 128,-1,12
 758 0 758 0 610 0 c 0,13,14
 464 0 464 0 384 50 c 128,-1,15
 304 100 304 100 304 207 c 0,4,5
EndSplineSet
EndChar

StartChar: question
Encoding: 63 63 76
Width: 1874
Flags: W
LayerCount: 2
Fore
SplineSet
656 147 m 256,0,1
 656 191 656 191 677 225 c 128,-1,2
 698 259 698 259 735.5 282.5 c 128,-1,3
 773 306 773 306 824.5 318.5 c 128,-1,4
 876 331 876 331 936 331 c 256,5,6
 996 331 996 331 1049.5 318.5 c 128,-1,7
 1103 306 1103 306 1143.5 282.5 c 128,-1,8
 1184 259 1184 259 1208 225 c 128,-1,9
 1232 191 1232 191 1232 147 c 256,10,11
 1232 103 1232 103 1211 69 c 128,-1,12
 1190 35 1190 35 1153 11 c 128,-1,13
 1116 -13 1116 -13 1065 -25.5 c 128,-1,14
 1014 -38 1014 -38 955 -38 c 256,15,16
 896 -38 896 -38 841.5 -25.5 c 128,-1,17
 787 -13 787 -13 746 11 c 128,-1,18
 705 35 705 35 680.5 69 c 128,-1,19
 656 103 656 103 656 147 c 256,0,1
324 1306 m 1,20,-1
 324 1416 l 2,21,22
 324 1528 324 1528 350 1613 c 128,-1,23
 376 1698 376 1698 432 1755 c 128,-1,24
 488 1812 488 1812 576 1840.5 c 128,-1,25
 664 1869 664 1869 787 1869 c 2,26,-1
 828 1869 l 1,27,-1
 828 1306 l 1,28,-1
 324 1306 l 1,20,-1
1550 1351 m 0,29,30
 1550 1238 1550 1238 1518.5 1145.5 c 128,-1,31
 1487 1053 1487 1053 1424.5 987 c 128,-1,32
 1362 921 1362 921 1269 885 c 128,-1,33
 1176 849 1176 849 1053 849 c 2,34,-1
 1026 849 l 1,35,-1
 1026 1869 l 1,36,-1
 1078 1869 l 2,37,38
 1201 1869 1201 1869 1290 1828 c 128,-1,39
 1379 1787 1379 1787 1437 1716.5 c 128,-1,40
 1495 1646 1495 1646 1522.5 1551.5 c 128,-1,41
 1550 1457 1550 1457 1550 1351 c 0,29,30
EndSplineSet
EndChar

StartChar: quoteleft
Encoding: 8216 8216 78
Width: 1018
Flags: W
LayerCount: 2
Fore
SplineSet
506 1426 m 1,0,1
 650 1425 650 1425 729.5 1375 c 128,-1,2
 809 1325 809 1325 809 1219 c 256,3,4
 809 1113 809 1113 736 1066.5 c 128,-1,5
 663 1020 663 1020 512 1020 c 0,6,7
 367 1020 367 1020 296.5 1064.5 c 128,-1,8
 226 1109 226 1109 223 1211 c 0,9,10
 222 1214 222 1214 222 1219 c 2,11,-1
 222 1456 l 2,12,13
 222 1508 222 1508 246.5 1554.5 c 128,-1,14
 271 1601 271 1601 311.5 1635.5 c 128,-1,15
 352 1670 352 1670 402.5 1690 c 128,-1,16
 453 1710 453 1710 506 1710 c 1,17,-1
 506 1426 l 1,0,1
EndSplineSet
EndChar

StartChar: quoteright
Encoding: 8217 8217 79
Width: 1018
Flags: W
LayerCount: 2
Fore
SplineSet
512 1295 m 1,0,1
 368 1295 368 1295 288.5 1345 c 128,-1,2
 209 1395 209 1395 209 1502 c 0,3,4
 209 1608 209 1608 282 1654.5 c 128,-1,5
 355 1701 355 1701 506 1701 c 0,6,7
 649 1701 649 1701 720.5 1656 c 128,-1,8
 792 1611 792 1611 795 1509 c 0,9,10
 795 1507 795 1507 795.5 1505.5 c 128,-1,11
 796 1504 796 1504 796 1502 c 2,12,-1
 796 1265 l 2,13,14
 796 1212 796 1212 771.5 1166 c 128,-1,15
 747 1120 747 1120 706.5 1085.5 c 128,-1,16
 666 1051 666 1051 615 1031 c 128,-1,17
 564 1011 564 1011 512 1011 c 1,18,-1
 512 1295 l 1,0,1
EndSplineSet
EndChar

StartChar: quotesingle
Encoding: 39 39 82
Width: 1018
Flags: W
LayerCount: 2
Fore
SplineSet
378 1030 m 1,0,1
 352 1102 352 1102 332 1173 c 0,2,3
 323 1203 323 1203 315 1236 c 128,-1,4
 307 1269 307 1269 300.5 1301.5 c 128,-1,5
 294 1334 294 1334 290 1365 c 128,-1,6
 286 1396 286 1396 286 1422 c 2,7,-1
 286 1585 l 1,8,-1
 732 1585 l 1,9,-1
 732 1422 l 2,10,11
 732 1395 732 1395 728 1364 c 128,-1,12
 724 1333 724 1333 717 1300.5 c 128,-1,13
 710 1268 710 1268 702 1235.5 c 128,-1,14
 694 1203 694 1203 685 1173 c 0,15,16
 665 1103 665 1103 639 1030 c 1,17,-1
 378 1030 l 1,0,1
EndSplineSet
EndChar

StartChar: quotesinglbase
Encoding: 8218 8218 83
Width: 1018
Flags: W
LayerCount: 2
Fore
SplineSet
512 0 m 1,0,1
 368 0 368 0 288.5 50 c 128,-1,2
 209 100 209 100 209 207 c 0,3,4
 209 313 209 313 282 359.5 c 128,-1,5
 355 406 355 406 506 406 c 0,6,7
 649 406 649 406 720.5 361 c 128,-1,8
 792 316 792 316 795 214 c 0,9,10
 795 212 795 212 795.5 210.5 c 128,-1,11
 796 209 796 209 796 207 c 2,12,-1
 796 -30 l 2,13,14
 796 -83 796 -83 771.5 -129 c 128,-1,15
 747 -175 747 -175 706.5 -209.5 c 128,-1,16
 666 -244 666 -244 615 -264 c 128,-1,17
 564 -284 564 -284 512 -284 c 1,18,-1
 512 0 l 1,0,1
EndSplineSet
EndChar

StartChar: quotedbl
Encoding: 34 34 84
Width: 1874
Flags: W
LayerCount: 2
Fore
SplineSet
493 1030 m 1,0,1
 472 1102 472 1102 456 1173 c 0,2,3
 449 1203 449 1203 442.5 1236 c 128,-1,4
 436 1269 436 1269 431 1301.5 c 128,-1,5
 426 1334 426 1334 423 1365 c 128,-1,6
 420 1396 420 1396 420 1422 c 2,7,-1
 420 1585 l 1,8,-1
 827 1585 l 1,9,-1
 827 1422 l 2,10,11
 827 1395 827 1395 824 1364 c 128,-1,12
 821 1333 821 1333 816 1300.5 c 128,-1,13
 811 1268 811 1268 804.5 1235.5 c 128,-1,14
 798 1203 798 1203 791 1173 c 0,15,16
 775 1103 775 1103 755 1030 c 1,17,-1
 493 1030 l 1,0,1
1122 1030 m 1,18,19
 1101 1102 1101 1102 1085 1173 c 0,20,21
 1078 1203 1078 1203 1071.5 1236 c 128,-1,22
 1065 1269 1065 1269 1060 1301.5 c 128,-1,23
 1055 1334 1055 1334 1052 1365 c 128,-1,24
 1049 1396 1049 1396 1049 1422 c 2,25,-1
 1049 1585 l 1,26,-1
 1454 1585 l 1,27,-1
 1454 1422 l 2,28,29
 1454 1395 1454 1395 1451 1364 c 128,-1,30
 1448 1333 1448 1333 1443 1300.5 c 128,-1,31
 1438 1268 1438 1268 1431.5 1235.5 c 128,-1,32
 1425 1203 1425 1203 1418 1173 c 0,33,34
 1402 1103 1402 1103 1382 1030 c 1,35,-1
 1122 1030 l 1,18,19
EndSplineSet
EndChar

StartChar: guilsinglleft
Encoding: 8249 8249 86
Width: 1368
Flags: W
LayerCount: 2
Fore
SplineSet
1023 -108 m 1,0,-1
 249 510 l 1,1,-1
 1023 1128 l 1,2,-1
 1023 878 l 1,3,-1
 546 510 l 1,4,-1
 1023 138 l 1,5,-1
 1023 -108 l 1,0,-1
EndSplineSet
EndChar

StartChar: onesuperior
Encoding: 185 185 90
Width: 1195
Flags: W
LayerCount: 2
Fore
SplineSet
343 850 m 1,0,-1
 343 1824 l 1,1,-1
 852 1954 l 1,2,-1
 852 850 l 1,3,-1
 343 850 l 1,0,-1
EndSplineSet
EndChar

StartChar: twosuperior
Encoding: 178 178 91
Width: 1700
Flags: W
LayerCount: 2
Fore
SplineSet
339 1019 m 1,0,1
 337 1160 337 1160 408.5 1240 c 128,-1,2
 480 1320 480 1320 618 1320 c 2,3,-1
 758 1320 l 1,4,-1
 758 850 l 1,5,-1
 340 850 l 1,6,-1
 339 1019 l 1,0,1
1390 1553 m 0,7,8
 1390 1410 1390 1410 1320 1334.5 c 128,-1,9
 1250 1259 1250 1259 1111 1259 c 2,10,-1
 959 1259 l 1,11,-1
 959 1870 l 1,12,-1
 1096 1870 l 2,13,14
 1253 1870 1253 1870 1321.5 1790.5 c 128,-1,15
 1390 1711 1390 1711 1390 1553 c 0,7,8
334 1450 m 1,16,-1
 334 1600 l 2,17,18
 334 1664 334 1664 354 1714 c 128,-1,19
 374 1764 374 1764 407.5 1798.5 c 128,-1,20
 441 1833 441 1833 485 1851.5 c 128,-1,21
 529 1870 529 1870 576 1870 c 2,22,-1
 758 1870 l 1,23,-1
 758 1450 l 1,24,-1
 334 1450 l 1,16,-1
1357 1106 m 1,25,-1
 1357 850 l 1,26,-1
 959 850 l 1,27,-1
 959 1106 l 1,28,-1
 1357 1106 l 1,25,-1
EndSplineSet
EndChar

StartChar: threesuperior
Encoding: 179 179 92
Width: 1698
Flags: W
LayerCount: 2
Fore
SplineSet
1419 1577 m 0,0,1
 1419 1493 1419 1493 1353 1440 c 128,-1,2
 1287 1387 1287 1387 1168 1364 c 1,3,4
 1238 1352 1238 1352 1291 1329.5 c 128,-1,5
 1344 1307 1344 1307 1380 1277 c 128,-1,6
 1416 1247 1416 1247 1434.5 1211.5 c 128,-1,7
 1453 1176 1453 1176 1453 1138 c 0,8,9
 1453 1070 1453 1070 1429.5 1016.5 c 128,-1,10
 1406 963 1406 963 1357 926 c 128,-1,11
 1308 889 1308 889 1232.5 869.5 c 128,-1,12
 1157 850 1157 850 1053 850 c 2,13,-1
 945 850 l 1,14,-1
 945 1306 l 1,15,-1
 785 1306 l 1,16,-1
 785 1431 l 1,17,-1
 945 1431 l 1,18,-1
 945 1866 l 1,19,-1
 1039 1866 l 2,20,21
 1144 1866 1144 1866 1216.5 1844.5 c 128,-1,22
 1289 1823 1289 1823 1334 1785 c 128,-1,23
 1379 1747 1379 1747 1399 1694 c 128,-1,24
 1419 1641 1419 1641 1419 1577 c 0,0,1
741 1194 m 1,25,-1
 741 850 l 1,26,-1
 601 850 l 2,27,28
 521 850 521 850 458.5 866.5 c 128,-1,29
 396 883 396 883 352.5 918 c 128,-1,30
 309 953 309 953 286.5 1009 c 128,-1,31
 264 1065 264 1065 264 1144 c 2,32,-1
 264 1194 l 1,33,-1
 741 1194 l 1,25,-1
264 1522 m 1,34,-1
 264 1571 l 2,35,36
 264 1650 264 1650 286.5 1706 c 128,-1,37
 309 1762 309 1762 352.5 1797.5 c 128,-1,38
 396 1833 396 1833 458.5 1849.5 c 128,-1,39
 521 1866 521 1866 601 1866 c 2,40,-1
 741 1866 l 1,41,-1
 741 1522 l 1,42,-1
 264 1522 l 1,34,-1
EndSplineSet
EndChar

StartChar: onequarter
Encoding: 188 188 93
Width: 2038
Flags: W
LayerCount: 2
Fore
SplineSet
446 -255 m 1,0,-1
 446 127 l 2,1,2
 446 211 446 211 459.5 281.5 c 128,-1,3
 473 352 473 352 514 402.5 c 128,-1,4
 555 453 555 453 630 481.5 c 128,-1,5
 705 510 705 510 829 510 c 2,6,-1
 918 510 l 1,7,-1
 918 -255 l 1,8,-1
 446 -255 l 1,0,-1
1592 252 m 1,9,-1
 1592 -510 l 1,10,-1
 1123 -510 l 1,11,-1
 1123 252 l 1,12,-1
 1592 252 l 1,9,-1
756 850 m 1,13,-1
 756 1824 l 1,14,-1
 1265 1954 l 1,15,-1
 1265 850 l 1,16,-1
 756 850 l 1,13,-1
EndSplineSet
EndChar

StartChar: threequarters
Encoding: 190 190 95
Width: 2038
Flags: W
LayerCount: 2
Fore
SplineSet
440 -255 m 1,0,-1
 440 127 l 2,1,2
 440 211 440 211 453.5 281.5 c 128,-1,3
 467 352 467 352 508 402.5 c 128,-1,4
 549 453 549 453 624 481.5 c 128,-1,5
 699 510 699 510 823 510 c 2,6,-1
 912 510 l 1,7,-1
 912 -255 l 1,8,-1
 440 -255 l 1,0,-1
1586 252 m 1,9,-1
 1586 -510 l 1,10,-1
 1117 -510 l 1,11,-1
 1117 252 l 1,12,-1
 1586 252 l 1,9,-1
1596 1577 m 0,13,14
 1596 1493 1596 1493 1530 1440 c 128,-1,15
 1464 1387 1464 1387 1345 1364 c 1,16,17
 1415 1352 1415 1352 1468 1329.5 c 128,-1,18
 1521 1307 1521 1307 1557 1277 c 128,-1,19
 1593 1247 1593 1247 1611.5 1211.5 c 128,-1,20
 1630 1176 1630 1176 1630 1138 c 0,21,22
 1630 1070 1630 1070 1606.5 1016.5 c 128,-1,23
 1583 963 1583 963 1534 926 c 128,-1,24
 1485 889 1485 889 1409.5 869.5 c 128,-1,25
 1334 850 1334 850 1230 850 c 2,26,-1
 1122 850 l 1,27,-1
 1122 1306 l 1,28,-1
 962 1306 l 1,29,-1
 962 1431 l 1,30,-1
 1122 1431 l 1,31,-1
 1122 1866 l 1,32,-1
 1216 1866 l 2,33,34
 1321 1866 1321 1866 1393.5 1844.5 c 128,-1,35
 1466 1823 1466 1823 1511 1785 c 128,-1,36
 1556 1747 1556 1747 1576 1694 c 128,-1,37
 1596 1641 1596 1641 1596 1577 c 0,13,14
918 1194 m 1,38,-1
 918 850 l 1,39,-1
 778 850 l 2,40,41
 698 850 698 850 635.5 866.5 c 128,-1,42
 573 883 573 883 529.5 918 c 128,-1,43
 486 953 486 953 463.5 1009 c 128,-1,44
 441 1065 441 1065 441 1144 c 2,45,-1
 441 1194 l 1,46,-1
 918 1194 l 1,38,-1
441 1522 m 1,47,-1
 441 1571 l 2,48,49
 441 1650 441 1650 463.5 1706 c 128,-1,50
 486 1762 486 1762 529.5 1797.5 c 128,-1,51
 573 1833 573 1833 635.5 1849.5 c 128,-1,52
 698 1866 698 1866 778 1866 c 2,53,-1
 918 1866 l 1,54,-1
 918 1522 l 1,55,-1
 441 1522 l 1,47,-1
EndSplineSet
EndChar

StartChar: ordfeminine
Encoding: 170 170 96
Width: 2040
Flags: W
LayerCount: 2
Fore
SplineSet
365 1111 m 0,0,1
 365 1190 365 1190 395 1258.5 c 128,-1,2
 425 1327 425 1327 484.5 1378 c 128,-1,3
 544 1429 544 1429 633 1458 c 128,-1,4
 722 1487 722 1487 839 1487 c 2,5,-1
 911 1487 l 1,6,-1
 911 736 l 1,7,-1
 834 734 l 1,8,9
 717 734 717 734 629 766.5 c 128,-1,10
 541 799 541 799 482.5 852 c 128,-1,11
 424 905 424 905 394.5 972.5 c 128,-1,12
 365 1040 365 1040 365 1111 c 0,0,1
1129 1487 m 1,13,-1
 1674 1487 l 1,14,-1
 1674 736 l 1,15,-1
 1600 734 l 1,16,17
 1483 734 1483 734 1394.5 766.5 c 128,-1,18
 1306 799 1306 799 1247 852 c 128,-1,19
 1188 905 1188 905 1158.5 972.5 c 128,-1,20
 1129 1040 1129 1040 1129 1111 c 2,21,-1
 1129 1487 l 1,13,-1
EndSplineSet
EndChar

StartChar: ordmasculine
Encoding: 186 186 97
Width: 2040
Flags: W
LayerCount: 2
Fore
SplineSet
366 1111 m 0,0,1
 366 1190 366 1190 396 1258.5 c 128,-1,2
 426 1327 426 1327 485.5 1378 c 128,-1,3
 545 1429 545 1429 634 1458 c 128,-1,4
 723 1487 723 1487 840 1487 c 2,5,-1
 912 1487 l 1,6,-1
 912 736 l 1,7,-1
 835 734 l 1,8,9
 718 734 718 734 630 766.5 c 128,-1,10
 542 799 542 799 483.5 852 c 128,-1,11
 425 905 425 905 395.5 972.5 c 128,-1,12
 366 1040 366 1040 366 1111 c 0,0,1
1675 1111 m 0,13,14
 1675 1040 1675 1040 1645.5 972.5 c 128,-1,15
 1616 905 1616 905 1557.5 852 c 128,-1,16
 1499 799 1499 799 1411.5 766.5 c 128,-1,17
 1324 734 1324 734 1207 734 c 1,18,-1
 1130 736 l 1,19,-1
 1130 1487 l 1,20,-1
 1202 1487 l 2,21,22
 1320 1487 1320 1487 1408.5 1458 c 128,-1,23
 1497 1429 1497 1429 1556 1378 c 128,-1,24
 1615 1327 1615 1327 1645 1258.5 c 128,-1,25
 1675 1190 1675 1190 1675 1111 c 0,13,14
EndSplineSet
EndChar

StartChar: degree
Encoding: 176 176 98
Width: 1195
Flags: W
LayerCount: 2
Fore
SplineSet
1031 1587 m 0,0,1
 1031 1490 1031 1490 994.5 1413 c 128,-1,2
 958 1336 958 1336 895.5 1282 c 128,-1,3
 833 1228 833 1228 751.5 1199.5 c 128,-1,4
 670 1171 670 1171 580 1171 c 0,5,6
 491 1171 491 1171 414.5 1199.5 c 128,-1,7
 338 1228 338 1228 282.5 1282 c 128,-1,8
 227 1336 227 1336 195.5 1413 c 128,-1,9
 164 1490 164 1490 164 1587 c 0,10,11
 164 1685 164 1685 199.5 1761.5 c 128,-1,12
 235 1838 235 1838 296 1891 c 128,-1,13
 357 1944 357 1944 437 1972 c 128,-1,14
 517 2000 517 2000 607 2000 c 0,15,16
 698 2000 698 2000 775.5 1972 c 128,-1,17
 853 1944 853 1944 910 1891 c 128,-1,18
 967 1838 967 1838 999 1761.5 c 128,-1,19
 1031 1685 1031 1685 1031 1587 c 0,0,1
806 1587 m 256,20,21
 806 1628 806 1628 789.5 1663.5 c 128,-1,22
 773 1699 773 1699 745 1725.5 c 128,-1,23
 717 1752 717 1752 679.5 1767 c 128,-1,24
 642 1782 642 1782 600 1782 c 0,25,26
 556 1782 556 1782 518 1767 c 128,-1,27
 480 1752 480 1752 451 1725.5 c 128,-1,28
 422 1699 422 1699 405.5 1663.5 c 128,-1,29
 389 1628 389 1628 389 1587 c 256,30,31
 389 1546 389 1546 405 1510 c 128,-1,32
 421 1474 421 1474 448 1447.5 c 128,-1,33
 475 1421 475 1421 511.5 1406 c 128,-1,34
 548 1391 548 1391 590 1391 c 0,35,36
 634 1391 634 1391 673.5 1406 c 128,-1,37
 713 1421 713 1421 742.5 1447.5 c 128,-1,38
 772 1474 772 1474 789 1510 c 128,-1,39
 806 1546 806 1546 806 1587 c 256,20,21
EndSplineSet
EndChar

StartChar: less
Encoding: 60 60 99
Width: 1358
Flags: W
LayerCount: 2
Fore
SplineSet
918 -1 m 1,0,-1
 305 548 l 1,1,-1
 918 1114 l 1,2,-1
 1053 978 l 1,3,-1
 587 548 l 1,4,-1
 1053 135 l 1,5,-1
 918 -1 l 1,0,-1
EndSplineSet
EndChar

StartChar: greater
Encoding: 62 62 100
Width: 1358
Flags: W
LayerCount: 2
Fore
SplineSet
305 135 m 1,0,-1
 772 548 l 1,1,-1
 305 978 l 1,2,-1
 429 1124 l 1,3,-1
 1053 548 l 1,4,-1
 429 -11 l 1,5,-1
 305 135 l 1,0,-1
EndSplineSet
EndChar

StartChar: plus
Encoding: 43 43 101
Width: 1538
Flags: W
LayerCount: 2
Fore
SplineSet
1279 479 m 1,0,-1
 855 479 l 1,1,-1
 855 50 l 1,2,-1
 685 50 l 1,3,-1
 685 479 l 1,4,-1
 259 479 l 1,5,-1
 259 650 l 1,6,-1
 685 650 l 1,7,-1
 685 1109 l 1,8,-1
 855 1109 l 1,9,-1
 855 650 l 1,10,-1
 1279 650 l 1,11,-1
 1279 479 l 1,0,-1
EndSplineSet
EndChar

StartChar: plusminus
Encoding: 177 177 102
Width: 1538
Flags: W
LayerCount: 2
Fore
SplineSet
1279 669 m 1,0,-1
 854 669 l 1,1,-1
 854 358 l 1,2,-1
 684 358 l 1,3,-1
 684 669 l 1,4,-1
 259 669 l 1,5,-1
 259 840 l 1,6,-1
 684 840 l 1,7,-1
 684 1298 l 1,8,-1
 854 1298 l 1,9,-1
 854 840 l 1,10,-1
 1279 840 l 1,11,-1
 1279 669 l 1,0,-1
1279 -1 m 1,12,-1
 258 -1 l 1,13,-1
 258 171 l 1,14,-1
 1279 171 l 1,15,-1
 1279 -1 l 1,12,-1
EndSplineSet
EndChar

StartChar: hyphen
Encoding: 45 45 103
Width: 1538
Flags: W
LayerCount: 2
Fore
SplineSet
1360 479 m 1,0,-1
 170 479 l 1,1,-1
 170 650 l 1,2,-1
 1360 650 l 1,3,-1
 1360 479 l 1,0,-1
EndSplineSet
EndChar

StartChar: equal
Encoding: 61 61 104
Width: 1538
Flags: W
LayerCount: 2
Fore
SplineSet
1245 267 m 1,0,-1
 293 267 l 1,1,-1
 293 461 l 1,2,-1
 1245 461 l 1,3,-1
 1245 267 l 1,0,-1
1245 670 m 1,4,-1
 293 670 l 1,5,-1
 293 861 l 1,6,-1
 1245 861 l 1,7,-1
 1245 670 l 1,4,-1
EndSplineSet
EndChar

StartChar: multiply
Encoding: 215 215 105
Width: 1538
Flags: W
LayerCount: 2
Fore
SplineSet
305 229 m 1,0,-1
 632 556 l 1,1,-1
 305 884 l 1,2,-1
 441 1020 l 1,3,-1
 768 692 l 1,4,-1
 1096 1020 l 1,5,-1
 1233 884 l 1,6,-1
 905 556 l 1,7,-1
 1233 229 l 1,8,-1
 1097 93 l 1,9,-1
 769 420 l 1,10,-1
 441 93 l 1,11,-1
 305 229 l 1,0,-1
EndSplineSet
EndChar

StartChar: divide
Encoding: 247 247 106
Width: 1538
Flags: W
LayerCount: 2
Fore
SplineSet
604 992 m 0,0,1
 604 1072 604 1072 644.5 1114 c 128,-1,2
 685 1156 685 1156 769 1156 c 256,3,4
 853 1156 853 1156 893.5 1114 c 128,-1,5
 934 1072 934 1072 934 992 c 0,6,7
 934 911 934 911 893.5 869 c 128,-1,8
 853 827 853 827 769 827 c 256,9,10
 685 827 685 827 644.5 869 c 128,-1,11
 604 911 604 911 604 992 c 0,0,1
604 137 m 0,12,13
 604 218 604 218 644.5 259.5 c 128,-1,14
 685 301 685 301 769 301 c 256,15,16
 853 301 853 301 893.5 259.5 c 128,-1,17
 934 218 934 218 934 137 c 0,18,19
 934 57 934 57 893.5 13.5 c 128,-1,20
 853 -30 853 -30 769 -30 c 256,21,22
 685 -30 685 -30 644.5 13.5 c 128,-1,23
 604 57 604 57 604 137 c 0,12,13
1245 469 m 1,24,-1
 293 469 l 1,25,-1
 293 660 l 1,26,-1
 1245 660 l 1,27,-1
 1245 469 l 1,24,-1
EndSplineSet
EndChar

StartChar: logicalnot
Encoding: 172 172 107
Width: 1707
Flags: W
LayerCount: 2
Fore
SplineSet
1438 138 m 1,0,-1
 1265 138 l 1,1,-1
 1266 655 l 1,2,-1
 268 655 l 1,3,-1
 268 827 l 1,4,-1
 1438 825 l 1,5,-1
 1438 138 l 1,0,-1
EndSplineSet
EndChar

StartChar: mu
Encoding: 181 181 108
AltUni2: 0003bc.ffffffff.0
Width: 1874
Flags: W
LayerCount: 2
Fore
SplineSet
1038 0 m 1,0,-1
 1038 1020 l 1,1,-1
 1544 1020 l 1,2,-1
 1544 0 l 1,3,-1
 1038 0 l 1,0,-1
823 1020 m 1,4,-1
 823 -510 l 1,5,-1
 320 -510 l 1,6,-1
 320 1020 l 1,7,-1
 823 1020 l 1,4,-1
EndSplineSet
EndChar

StartChar: percent
Encoding: 37 37 109
Width: 2740
Flags: W
LayerCount: 2
Fore
SplineSet
922 -274 m 1,0,-1
 1579 1709 l 1,1,-1
 1817 1644 l 1,2,-1
 1160 -340 l 1,3,-1
 922 -274 l 1,0,-1
265 1096 m 2,4,5
 265 1150 265 1150 281.5 1193 c 128,-1,6
 298 1236 298 1236 331.5 1266.5 c 128,-1,7
 365 1297 365 1297 415 1313.5 c 128,-1,8
 465 1330 465 1330 531 1330 c 2,9,-1
 570 1330 l 1,10,-1
 570 497 l 1,11,-1
 531 497 l 2,12,13
 398 497 398 497 331 560 c 128,-1,14
 264 623 264 623 265 732 c 1,15,-1
 265 1096 l 2,4,5
1051 732 m 1,16,17
 1052 623 1052 623 985 560 c 128,-1,18
 918 497 918 497 786 497 c 2,19,-1
 747 497 l 1,20,-1
 747 1330 l 1,21,-1
 786 1330 l 2,22,23
 852 1330 852 1330 901.5 1313.5 c 128,-1,24
 951 1297 951 1297 984.5 1266.5 c 128,-1,25
 1018 1236 1018 1236 1034.5 1193 c 128,-1,26
 1051 1150 1051 1150 1051 1096 c 2,27,-1
 1051 732 l 1,16,17
1688 593 m 1,28,29
 1687 701 1687 701 1754.5 764 c 128,-1,30
 1822 827 1822 827 1953 827 c 2,31,-1
 1992 827 l 1,32,-1
 1992 -12 l 1,33,-1
 1953 -12 l 2,34,35
 1822 -12 1822 -12 1754.5 51 c 128,-1,36
 1687 114 1687 114 1688 222 c 1,37,-1
 1688 593 l 1,28,29
2474 222 m 2,38,39
 2474 168 2474 168 2457.5 125 c 128,-1,40
 2441 82 2441 82 2407.5 51.5 c 128,-1,41
 2374 21 2374 21 2324.5 4.5 c 128,-1,42
 2275 -12 2275 -12 2210 -12 c 2,43,-1
 2169 -12 l 1,44,-1
 2169 827 l 1,45,-1
 2210 827 l 2,46,47
 2275 827 2275 827 2324.5 810.5 c 128,-1,48
 2374 794 2374 794 2407.5 763.5 c 128,-1,49
 2441 733 2441 733 2457.5 690 c 128,-1,50
 2474 647 2474 647 2474 593 c 2,51,-1
 2474 222 l 2,38,39
EndSplineSet
EndChar

StartChar: numbersign
Encoding: 35 35 110
Width: 1874
Flags: W
LayerCount: 2
Fore
SplineSet
1467 469 m 1,0,-1
 1243 469 l 1,1,-1
 1188 0 l 1,2,-1
 995 0 l 1,3,-1
 1050 469 l 1,4,-1
 756 469 l 1,5,-1
 701 0 l 1,6,-1
 509 0 l 1,7,-1
 564 469 l 1,8,-1
 346 469 l 1,9,-1
 365 660 l 1,10,-1
 586 660 l 1,11,-1
 617 923 l 1,12,-1
 388 923 l 1,13,-1
 407 1117 l 1,14,-1
 640 1117 l 1,15,-1
 696 1588 l 1,16,-1
 887 1588 l 1,17,-1
 831 1117 l 1,18,-1
 1127 1116 l 1,19,-1
 1183 1588 l 1,20,-1
 1375 1588 l 1,21,-1
 1319 1116 l 1,22,-1
 1527 1116 l 1,23,-1
 1509 923 l 1,24,-1
 1296 923 l 1,25,-1
 1265 660 l 1,26,-1
 1484 660 l 1,27,-1
 1467 469 l 1,0,-1
778 660 m 1,28,-1
 1073 660 l 1,29,-1
 1104 923 l 1,30,-1
 809 923 l 1,31,-1
 778 660 l 1,28,-1
EndSplineSet
EndChar

StartChar: asterisk
Encoding: 42 42 111
Width: 1366
Flags: W
LayerCount: 2
Fore
SplineSet
743 1243 m 1,0,1
 802 1293 802 1293 859 1335 c 0,2,3
 883 1353 883 1353 909.5 1371.5 c 128,-1,4
 936 1390 936 1390 961.5 1406 c 128,-1,5
 987 1422 987 1422 1010.5 1434.5 c 128,-1,6
 1034 1447 1034 1447 1054 1453 c 2,7,-1
 1174 1491 l 1,8,-1
 1272 1191 l 1,9,-1
 1152 1151 l 2,10,11
 1132 1145 1132 1145 1106 1141 c 128,-1,12
 1080 1137 1080 1137 1050 1134.5 c 128,-1,13
 1020 1132 1020 1132 989 1130.5 c 128,-1,14
 958 1129 958 1129 928 1128 c 0,15,16
 858 1126 858 1126 782 1128 c 1,17,18
 847 1087 847 1087 903 1047 c 0,19,20
 927 1030 927 1030 951.5 1011 c 128,-1,21
 976 992 976 992 998.5 972.5 c 128,-1,22
 1021 953 1021 953 1039 934 c 128,-1,23
 1057 915 1057 915 1069 899 c 2,24,-1
 1143 800 l 1,25,-1
 890 615 l 1,26,-1
 815 719 l 1,27,-1
 684 1057 l 1,28,29
 663 984 663 984 641 919 c 0,30,31
 632 891 632 891 621 862 c 128,-1,32
 610 833 610 833 598.5 806 c 128,-1,33
 587 779 587 779 575.5 755.5 c 128,-1,34
 564 732 564 732 552 716 c 2,35,-1
 478 615 l 1,36,-1
 224 799 l 1,37,-1
 297 900 l 2,38,39
 309 916 309 916 327.5 935 c 128,-1,40
 346 954 346 954 368.5 973 c 128,-1,41
 391 992 391 992 416 1011 c 128,-1,42
 441 1030 441 1030 465 1047 c 0,43,44
 521 1087 521 1087 585 1128 c 1,45,46
 509 1126 509 1126 439 1128 c 0,47,48
 409 1129 409 1129 377.5 1130.5 c 128,-1,49
 346 1132 346 1132 316 1135 c 128,-1,50
 286 1138 286 1138 260 1142.5 c 128,-1,51
 234 1147 234 1147 215 1153 c 2,52,-1
 94 1191 l 1,53,-1
 190 1491 l 1,54,-1
 313 1453 l 2,55,56
 332 1447 332 1447 355.5 1434.5 c 128,-1,57
 379 1422 379 1422 404.5 1406 c 128,-1,58
 430 1390 430 1390 456 1371.5 c 128,-1,59
 482 1353 482 1353 506 1335 c 0,60,61
 563 1293 563 1293 623 1243 c 1,62,63
 595 1316 595 1316 573 1385 c 0,64,65
 564 1414 564 1414 555 1445 c 128,-1,66
 546 1476 546 1476 539 1505.5 c 128,-1,67
 532 1535 532 1535 528 1561.5 c 128,-1,68
 524 1588 524 1588 524 1609 c 2,69,-1
 524 1734 l 1,70,-1
 840 1734 l 1,71,-1
 840 1609 l 2,72,73
 840 1588 840 1588 835.5 1561.5 c 128,-1,74
 831 1535 831 1535 824.5 1505.5 c 128,-1,75
 818 1476 818 1476 809 1445 c 128,-1,76
 800 1414 800 1414 791 1385 c 0,77,78
 770 1316 770 1316 743 1243 c 1,0,1
EndSplineSet
EndChar

StartChar: endash
Encoding: 8211 8211 112
Width: 1368
Flags: W
LayerCount: 2
Fore
SplineSet
1190 479 m 1,0,-1
 173 479 l 1,1,-1
 173 650 l 1,2,-1
 1190 650 l 1,3,-1
 1190 479 l 1,0,-1
EndSplineSet
EndChar

StartChar: emdash
Encoding: 8212 8212 113
Width: 2046
Flags: W
LayerCount: 2
Fore
SplineSet
1870 479 m 1,0,-1
 170 479 l 1,1,-1
 170 650 l 1,2,-1
 1870 650 l 1,3,-1
 1870 479 l 1,0,-1
EndSplineSet
EndChar

StartChar: slash
Encoding: 47 47 114
Width: 1018
Flags: W
LayerCount: 2
Fore
SplineSet
193 -166 m 1,0,-1
 606 1521 l 1,1,-1
 824 1521 l 1,2,-1
 410 -166 l 1,3,-1
 193 -166 l 1,0,-1
EndSplineSet
EndChar

StartChar: backslash
Encoding: 92 92 115
Width: 1018
Flags: W
LayerCount: 2
Fore
SplineSet
606 -166 m 1,0,-1
 193 1521 l 1,1,-1
 411 1521 l 1,2,-1
 824 -166 l 1,3,-1
 606 -166 l 1,0,-1
EndSplineSet
EndChar

StartChar: bar
Encoding: 124 124 116
Width: 1022
Flags: W
LayerCount: 2
Fore
SplineSet
625 1700 m 1,0,-1
 625 -170 l 1,1,-1
 397 -170 l 1,2,-1
 397 1700 l 1,3,-1
 625 1700 l 1,0,-1
EndSplineSet
EndChar

StartChar: brokenbar
Encoding: 166 166 117
Width: 1022
Flags: W
LayerCount: 2
Fore
SplineSet
625 1700 m 1,0,-1
 625 1022 l 1,1,-1
 397 1022 l 1,2,-1
 397 1700 l 1,3,-1
 625 1700 l 1,0,-1
625 508 m 1,4,-1
 625 -170 l 1,5,-1
 397 -170 l 1,6,-1
 397 508 l 1,7,-1
 625 508 l 1,4,-1
EndSplineSet
EndChar

StartChar: paragraph
Encoding: 182 182 118
Width: 2047
Flags: W
LayerCount: 2
Fore
SplineSet
363 929 m 0,0,1
 363 1005 363 1005 376.5 1079 c 128,-1,2
 390 1153 390 1153 419 1219.5 c 128,-1,3
 448 1286 448 1286 492.5 1343 c 128,-1,4
 537 1400 537 1400 598.5 1441.5 c 128,-1,5
 660 1483 660 1483 739 1506.5 c 128,-1,6
 818 1530 818 1530 917 1530 c 2,7,-1
 966 1530 l 1,8,-1
 966 340 l 1,9,-1
 889 340 l 2,10,11
 802 340 802 340 729.5 364.5 c 128,-1,12
 657 389 657 389 598.5 432 c 128,-1,13
 540 475 540 475 496 532.5 c 128,-1,14
 452 590 452 590 422.5 655 c 128,-1,15
 393 720 393 720 378 790.5 c 128,-1,16
 363 861 363 861 363 929 c 0,0,1
1196 -171 m 1,17,-1
 1196 1530 l 1,18,-1
 1684 1530 l 1,19,-1
 1684 -171 l 1,20,-1
 1196 -171 l 1,17,-1
EndSplineSet
EndChar

StartChar: braceleft
Encoding: 123 123 119
Width: 1195
Flags: W
LayerCount: 2
Fore
SplineSet
171 712 m 1,0,-1
 266 714 l 2,1,2
 301 714 301 714 329.5 725 c 128,-1,3
 358 736 358 736 378 755 c 128,-1,4
 398 774 398 774 408.5 798.5 c 128,-1,5
 419 823 419 823 419 852 c 2,6,-1
 419 870 l 2,7,8
 419 912 419 912 417 951.5 c 128,-1,9
 415 991 415 991 403 1048 c 0,10,11
 397 1076 397 1076 393 1107.5 c 128,-1,12
 389 1139 389 1139 386.5 1169 c 128,-1,13
 384 1199 384 1199 383 1227 c 128,-1,14
 382 1255 382 1255 382 1276 c 0,15,16
 382 1360 382 1360 413 1421 c 128,-1,17
 444 1482 444 1482 504 1521.5 c 128,-1,18
 564 1561 564 1561 652 1580 c 128,-1,19
 740 1599 740 1599 854 1599 c 0,20,21
 871 1599 871 1599 892.5 1598.5 c 128,-1,22
 914 1598 914 1598 936.5 1597 c 128,-1,23
 959 1596 959 1596 981.5 1595 c 128,-1,24
 1004 1594 1004 1594 1023 1593 c 1,25,-1
 1023 1403 l 1,26,27
 972 1411 972 1411 924.5 1416 c 128,-1,28
 877 1421 877 1421 837 1421 c 0,29,30
 788 1421 788 1421 740.5 1412.5 c 128,-1,31
 693 1404 693 1404 656 1386.5 c 128,-1,32
 619 1369 619 1369 596 1343 c 128,-1,33
 573 1317 573 1317 573 1282 c 0,34,35
 573 1266 573 1266 573 1239.5 c 128,-1,36
 573 1213 573 1213 574.5 1183.5 c 128,-1,37
 576 1154 576 1154 578 1124 c 128,-1,38
 580 1094 580 1094 585 1070 c 0,39,40
 590 1042 590 1042 593.5 1018.5 c 128,-1,41
 597 995 597 995 599.5 972.5 c 128,-1,42
 602 950 602 950 603 925.5 c 128,-1,43
 604 901 604 901 604 870 c 0,44,45
 604 831 604 831 597.5 791 c 128,-1,46
 591 751 591 751 574 717.5 c 128,-1,47
 557 684 557 684 526 661 c 128,-1,48
 495 638 495 638 446 632 c 1,49,-1
 446 618 l 1,50,51
 495 611 495 611 526 587.5 c 128,-1,52
 557 564 557 564 574.5 530.5 c 128,-1,53
 592 497 592 497 598 457.5 c 128,-1,54
 604 418 604 418 604 379 c 0,55,56
 604 348 604 348 603 323.5 c 128,-1,57
 602 299 602 299 599.5 276.5 c 128,-1,58
 597 254 597 254 593.5 231 c 128,-1,59
 590 208 590 208 585 180 c 0,60,61
 580 156 580 156 578 123 c 128,-1,62
 576 90 576 90 574.5 56 c 128,-1,63
 573 22 573 22 573 -7.5 c 128,-1,64
 573 -37 573 -37 573 -53 c 0,65,66
 573 -88 573 -88 596 -110.5 c 128,-1,67
 619 -133 619 -133 656.5 -146.5 c 128,-1,68
 694 -160 694 -160 741.5 -165.5 c 128,-1,69
 789 -171 789 -171 838 -171 c 0,70,71
 878 -171 878 -171 925 -166.5 c 128,-1,72
 972 -162 972 -162 1023 -154 c 1,73,-1
 1023 -343 l 1,74,75
 1003 -344 1003 -344 980 -345 c 128,-1,76
 957 -346 957 -346 934 -347 c 128,-1,77
 911 -348 911 -348 889 -348.5 c 128,-1,78
 867 -349 867 -349 850 -349 c 0,79,80
 737 -349 737 -349 649.5 -333.5 c 128,-1,81
 562 -318 562 -318 502.5 -282 c 128,-1,82
 443 -246 443 -246 412.5 -188.5 c 128,-1,83
 382 -131 382 -131 382 -47 c 0,84,85
 382 -26 382 -26 383 5 c 128,-1,86
 384 36 384 36 386.5 70 c 128,-1,87
 389 104 389 104 393 138 c 128,-1,88
 397 172 397 172 403 201 c 0,89,90
 415 258 415 258 417 297.5 c 128,-1,91
 419 337 419 337 419 379 c 2,92,-1
 419 397 l 2,93,94
 419 425 419 425 408.5 450 c 128,-1,95
 398 475 398 475 378 494 c 128,-1,96
 358 513 358 513 329.5 524 c 128,-1,97
 301 535 301 535 266 535 c 2,98,-1
 171 535 l 1,99,-1
 171 712 l 1,0,-1
EndSplineSet
EndChar

StartChar: parenleft
Encoding: 40 40 121
Width: 1195
Flags: W
LayerCount: 2
Fore
SplineSet
162 592 m 256,0,1
 162 739 162 739 186.5 857.5 c 128,-1,2
 211 976 211 976 253 1070 c 128,-1,3
 295 1164 295 1164 351.5 1234.5 c 128,-1,4
 408 1305 408 1305 471.5 1357 c 128,-1,5
 535 1409 535 1409 602 1443 c 128,-1,6
 669 1477 669 1477 733.5 1497 c 128,-1,7
 798 1517 798 1517 856 1525.5 c 128,-1,8
 914 1534 914 1534 958 1534 c 1,9,-1
 958 1360 l 1,10,11
 922 1360 922 1360 864 1350 c 128,-1,12
 806 1340 806 1340 739.5 1310.5 c 128,-1,13
 673 1281 673 1281 605 1228 c 128,-1,14
 537 1175 537 1175 482 1089.5 c 128,-1,15
 427 1004 427 1004 392.5 882 c 128,-1,16
 358 760 358 760 358 592 c 256,17,18
 358 424 358 424 392.5 301.5 c 128,-1,19
 427 179 427 179 482 93.5 c 128,-1,20
 537 8 537 8 605 -44.5 c 128,-1,21
 673 -97 673 -97 739.5 -126.5 c 128,-1,22
 806 -156 806 -156 864 -166 c 128,-1,23
 922 -176 922 -176 958 -176 c 1,24,-1
 958 -350 l 1,25,26
 914 -350 914 -350 856 -341.5 c 128,-1,27
 798 -333 798 -333 733.5 -313 c 128,-1,28
 669 -293 669 -293 602 -259 c 128,-1,29
 535 -225 535 -225 471.5 -173.5 c 128,-1,30
 408 -122 408 -122 351.5 -51 c 128,-1,31
 295 20 295 20 253 113.5 c 128,-1,32
 211 207 211 207 186.5 326 c 128,-1,33
 162 445 162 445 162 592 c 256,0,1
EndSplineSet
EndChar

StartChar: bracketleft
Encoding: 91 91 123
Width: 1195
Flags: W
LayerCount: 2
Fore
SplineSet
340 1530 m 1,0,-1
 938 1530 l 1,1,-1
 938 1360 l 1,2,-1
 522 1360 l 1,3,-1
 522 -170 l 1,4,-1
 938 -170 l 1,5,-1
 938 -340 l 1,6,-1
 340 -340 l 1,7,-1
 340 1530 l 1,0,-1
EndSplineSet
EndChar

StartChar: currency
Encoding: 164 164 125
Width: 1874
Flags: W
LayerCount: 2
Fore
SplineSet
1364 745 m 0,0,1
 1364 648 1364 648 1327 569 c 1,2,-1
 1636 261 l 1,3,-1
 1430 57 l 1,4,-1
 1115 369 l 1,5,6
 1021 329 1021 329 913 329 c 0,7,8
 815 329 815 329 736 362 c 1,9,-1
 431 57 l 1,10,-1
 224 261 l 1,11,-1
 530 567 l 1,12,13
 497 645 497 645 497 745 c 0,14,15
 497 801 497 801 508.5 849 c 128,-1,16
 520 897 520 897 542 939 c 1,17,-1
 224 1257 l 1,18,-1
 433 1464 l 1,19,-1
 768 1129 l 1,20,21
 849 1158 849 1158 940 1158 c 0,22,23
 982 1158 982 1158 1022 1151.5 c 128,-1,24
 1062 1145 1062 1145 1098 1133 c 1,25,-1
 1428 1464 l 1,26,-1
 1636 1257 l 1,27,-1
 1321 943 l 1,28,29
 1341 901 1341 901 1352.5 851.5 c 128,-1,30
 1364 802 1364 802 1364 745 c 0,0,1
1139 745 m 256,31,32
 1139 786 1139 786 1122.5 821.5 c 128,-1,33
 1106 857 1106 857 1078 883.5 c 128,-1,34
 1050 910 1050 910 1012.5 925 c 128,-1,35
 975 940 975 940 933 940 c 0,36,37
 889 940 889 940 851 925 c 128,-1,38
 813 910 813 910 784 883.5 c 128,-1,39
 755 857 755 857 738.5 821.5 c 128,-1,40
 722 786 722 786 722 745 c 256,41,42
 722 704 722 704 738 668 c 128,-1,43
 754 632 754 632 781 605.5 c 128,-1,44
 808 579 808 579 844.5 564 c 128,-1,45
 881 549 881 549 923 549 c 0,46,47
 967 549 967 549 1006.5 564 c 128,-1,48
 1046 579 1046 579 1075.5 605.5 c 128,-1,49
 1105 632 1105 632 1122 668 c 128,-1,50
 1139 704 1139 704 1139 745 c 256,31,32
EndSplineSet
EndChar

StartChar: dollar
Encoding: 36 36 126
Width: 1874
Flags: W
LayerCount: 2
Fore
SplineSet
1580 374 m 1,0,1
 1580 271 1580 271 1554.5 200 c 128,-1,2
 1529 129 1529 129 1476 84.5 c 128,-1,3
 1423 40 1423 40 1341 20.5 c 128,-1,4
 1259 1 1259 1 1147 1 c 1,5,-1
 294 959 l 1,6,7
 294 1165 294 1165 402.5 1263 c 128,-1,8
 511 1361 511 1361 737 1361 c 1,9,-1
 1580 374 l 1,0,1
977 1361 m 1,10,-1
 1580 1361 l 1,11,-1
 1580 725 l 1,12,-1
 977 1361 l 1,10,-1
877 0 m 1,13,-1
 297 0 l 1,14,-1
 297 638 l 1,15,-1
 877 0 l 1,13,-1
963 1530 m 1,16,-1
 997 1837 l 1,17,-1
 1212 1837 l 1,18,-1
 1176 1530 l 1,19,-1
 963 1530 l 1,16,-1
769 -450 m 1,20,-1
 803 -167 l 1,21,-1
 1016 -167 l 1,22,-1
 983 -450 l 1,23,-1
 769 -450 l 1,20,-1
EndSplineSet
EndChar

StartChar: cent
Encoding: 162 162 127
Width: 1874
Flags: W
LayerCount: 2
Fore
SplineSet
244 502 m 0,0,1
 244 608 244 608 279 702.5 c 128,-1,2
 314 797 314 797 383.5 867.5 c 128,-1,3
 453 938 453 938 556 979 c 128,-1,4
 659 1020 659 1020 796 1020 c 2,5,-1
 846 1020 l 1,6,-1
 846 0 l 1,7,-1
 796 0 l 2,8,9
 659 0 659 0 556 36 c 128,-1,10
 453 72 453 72 383.5 138 c 128,-1,11
 314 204 314 204 279 296.5 c 128,-1,12
 244 389 244 389 244 502 c 0,0,1
1630 1020 m 1,13,-1
 1630 449 l 1,14,-1
 1579 449 l 2,15,16
 1442 449 1442 449 1344.5 470.5 c 128,-1,17
 1247 492 1247 492 1184.5 538.5 c 128,-1,18
 1122 585 1122 585 1092.5 659.5 c 128,-1,19
 1063 734 1063 734 1063 841 c 2,20,-1
 1063 1020 l 1,21,-1
 1630 1020 l 1,13,-1
1573 261 m 1,22,-1
 1573 233 l 2,23,24
 1573 193 1573 193 1547.5 151.5 c 128,-1,25
 1522 110 1522 110 1474.5 76.5 c 128,-1,26
 1427 43 1427 43 1359.5 21.5 c 128,-1,27
 1292 0 1292 0 1208 0 c 2,28,-1
 1063 0 l 1,29,-1
 1063 261 l 1,30,-1
 1573 261 l 1,22,-1
963 1156 m 1,31,-1
 997 1463 l 1,32,-1
 1212 1463 l 1,33,-1
 1176 1156 l 1,34,-1
 963 1156 l 1,31,-1
769 -450 m 1,35,-1
 803 -167 l 1,36,-1
 1016 -167 l 1,37,-1
 983 -450 l 1,38,-1
 769 -450 l 1,35,-1
EndSplineSet
EndChar

StartChar: sterling
Encoding: 163 163 128
Width: 1874
Flags: W
LayerCount: 2
Fore
SplineSet
1398 644 m 1,0,-1
 933 644 l 1,1,-1
 933 0 l 1,2,-1
 117 0 l 2,3,4
 181 0 181 0 221.5 40.5 c 128,-1,5
 262 81 262 81 285.5 162 c 128,-1,6
 309 243 309 243 318.5 363.5 c 128,-1,7
 328 484 328 484 330 644 c 1,8,-1
 151 644 l 1,9,-1
 151 811 l 1,10,-1
 333 811 l 1,11,12
 342 962 342 962 383.5 1068.5 c 128,-1,13
 425 1175 425 1175 495.5 1242.5 c 128,-1,14
 566 1310 566 1310 664 1340.5 c 128,-1,15
 762 1371 762 1371 885 1371 c 2,16,-1
 933 1371 l 1,17,-1
 933 811 l 1,18,-1
 1398 811 l 1,19,-1
 1398 644 l 1,0,-1
1182 -1 m 1,20,-1
 1182 40 l 2,21,22
 1182 124 1182 124 1197.5 196 c 128,-1,23
 1213 268 1213 268 1259 321 c 128,-1,24
 1305 374 1305 374 1389 404 c 128,-1,25
 1473 434 1473 434 1610 434 c 2,26,-1
 1756 434 l 1,27,-1
 1756 -1 l 1,28,-1
 1182 -1 l 1,20,-1
1668 1371 m 1,29,-1
 1668 992 l 1,30,-1
 1628 992 l 2,31,32
 1491 992 1491 992 1399.5 1004.5 c 128,-1,33
 1308 1017 1308 1017 1253 1053.5 c 128,-1,34
 1198 1090 1198 1090 1175 1155.5 c 128,-1,35
 1152 1221 1152 1221 1152 1328 c 2,36,-1
 1152 1371 l 1,37,-1
 1668 1371 l 1,29,-1
EndSplineSet
EndChar

StartChar: Euro
Encoding: 8364 8364 129
Width: 1874
Flags: W
LayerCount: 2
Fore
SplineSet
1475 341 m 1,0,-1
 926 341 l 1,1,-1
 926 0 l 1,2,-1
 878 0 l 2,3,4
 781 0 781 0 703 24 c 128,-1,5
 625 48 625 48 564 92 c 128,-1,6
 503 136 503 136 458.5 199.5 c 128,-1,7
 414 263 414 263 384 341 c 1,8,-1
 173 341 l 1,9,-1
 173 495 l 1,10,-1
 343 495 l 1,11,12
 335 540 335 540 330.5 587 c 128,-1,13
 326 634 326 634 324 685 c 1,14,-1
 202 685 l 1,15,-1
 202 841 l 1,16,-1
 332 841 l 1,17,18
 347 951 347 951 390.5 1047.5 c 128,-1,19
 434 1144 434 1144 504 1216 c 128,-1,20
 574 1288 574 1288 668 1329.5 c 128,-1,21
 762 1371 762 1371 878 1371 c 2,22,-1
 926 1371 l 1,23,-1
 926 841 l 1,24,-1
 1493 841 l 1,25,-1
 1493 685 l 1,26,-1
 926 685 l 1,27,-1
 926 495 l 1,28,-1
 1475 495 l 1,29,-1
 1475 341 l 1,0,-1
1701 1371 m 1,30,-1
 1701 1020 l 1,31,-1
 1661 1020 l 2,32,33
 1524 1020 1524 1020 1426.5 1030 c 128,-1,34
 1329 1040 1329 1040 1266.5 1064 c 128,-1,35
 1204 1088 1204 1088 1174.5 1127.5 c 128,-1,36
 1145 1167 1145 1167 1145 1226 c 2,37,-1
 1145 1371 l 1,38,-1
 1701 1371 l 1,30,-1
1673 201 m 1,39,-1
 1673 173 l 2,40,41
 1673 133 1673 133 1647.5 101 c 128,-1,42
 1622 69 1622 69 1574.5 46.5 c 128,-1,43
 1527 24 1527 24 1459.5 12 c 128,-1,44
 1392 0 1392 0 1308 0 c 2,45,-1
 1145 0 l 1,46,-1
 1145 201 l 1,47,-1
 1673 201 l 1,39,-1
EndSplineSet
EndChar

StartChar: yen
Encoding: 165 165 130
Width: 1874
Flags: W
LayerCount: 2
Fore
SplineSet
1698 683 m 1,0,-1
 169 683 l 1,1,-1
 169 829 l 1,2,-1
 519 829 l 1,3,4
 448 848 448 848 390 882.5 c 128,-1,5
 332 917 332 917 291 971.5 c 128,-1,6
 250 1026 250 1026 227.5 1102 c 128,-1,7
 205 1178 205 1178 205 1281 c 2,8,-1
 205 1361 l 1,9,-1
 361 1361 l 2,10,11
 484 1361 484 1361 572 1336.5 c 128,-1,12
 660 1312 660 1312 716.5 1260.5 c 128,-1,13
 773 1209 773 1209 799 1129 c 128,-1,14
 825 1049 825 1049 825 937 c 2,15,-1
 825 829 l 1,16,-1
 1049 829 l 1,17,-1
 1049 937 l 2,18,19
 1049 1049 1049 1049 1075.5 1129 c 128,-1,20
 1102 1209 1102 1209 1158 1260.5 c 128,-1,21
 1214 1312 1214 1312 1302 1336.5 c 128,-1,22
 1390 1361 1390 1361 1513 1361 c 2,23,-1
 1699 1361 l 1,24,-1
 1699 1281 l 2,25,26
 1699 1179 1699 1179 1674 1102.5 c 128,-1,27
 1649 1026 1649 1026 1604 971.5 c 128,-1,28
 1559 917 1559 917 1496.5 882.5 c 128,-1,29
 1434 848 1434 848 1360 829 c 1,30,-1
 1698 829 l 1,31,-1
 1698 683 l 1,0,-1
682 0 m 1,32,-1
 682 366 l 1,33,-1
 170 366 l 1,34,-1
 170 510 l 1,35,-1
 1700 510 l 1,36,-1
 1700 366 l 1,37,-1
 1192 366 l 1,38,-1
 1192 0 l 1,39,-1
 682 0 l 1,32,-1
EndSplineSet
EndChar

StartChar: at
Encoding: 64 64 131
Width: 1874
Flags: W
LayerCount: 2
Fore
SplineSet
1763 -380 m 1,0,1
 1722 -396 1722 -396 1659.5 -417.5 c 128,-1,2
 1597 -439 1597 -439 1505 -458.5 c 128,-1,3
 1413 -478 1413 -478 1286 -492 c 128,-1,4
 1159 -506 1159 -506 989 -506 c 0,5,6
 745 -506 745 -506 547.5 -450 c 128,-1,7
 350 -394 350 -394 211 -276 c 128,-1,8
 72 -158 72 -158 -3 25.5 c 128,-1,9
 -78 209 -78 209 -78 465 c 0,10,11
 -78 684 -78 684 4 853 c 128,-1,12
 86 1022 86 1022 233 1136.5 c 128,-1,13
 380 1251 380 1251 582 1310.5 c 128,-1,14
 784 1370 784 1370 1024 1370 c 0,15,16
 1274 1370 1274 1370 1450.5 1316.5 c 128,-1,17
 1627 1263 1627 1263 1739 1168 c 128,-1,18
 1851 1073 1851 1073 1902 942 c 128,-1,19
 1953 811 1953 811 1953 655 c 0,20,21
 1953 530 1953 530 1926 433 c 128,-1,22
 1899 336 1899 336 1854.5 263 c 128,-1,23
 1810 190 1810 190 1752 140 c 128,-1,24
 1694 90 1694 90 1632.5 59 c 128,-1,25
 1571 28 1571 28 1509.5 14 c 128,-1,26
 1448 0 1448 0 1397 0 c 0,27,28
 1295 0 1295 0 1223 16 c 128,-1,29
 1151 32 1151 32 1104.5 67.5 c 128,-1,30
 1058 103 1058 103 1036.5 158.5 c 128,-1,31
 1015 214 1015 214 1015 294 c 2,32,-1
 1015 827 l 1,33,-1
 1428 827 l 1,34,-1
 1428 186 l 1,35,36
 1461 186 1461 186 1498.5 196 c 128,-1,37
 1536 206 1536 206 1573.5 228 c 128,-1,38
 1611 250 1611 250 1645 286 c 128,-1,39
 1679 322 1679 322 1705.5 374 c 128,-1,40
 1732 426 1732 426 1747.5 495.5 c 128,-1,41
 1763 565 1763 565 1763 655 c 0,42,43
 1763 772 1763 772 1722.5 870 c 128,-1,44
 1682 968 1682 968 1593.5 1039.5 c 128,-1,45
 1505 1111 1505 1111 1364.5 1151 c 128,-1,46
 1224 1191 1224 1191 1024 1191 c 256,47,48
 824 1191 824 1191 657 1144 c 128,-1,49
 490 1097 490 1097 370 1005.5 c 128,-1,50
 250 914 250 914 183 778.5 c 128,-1,51
 116 643 116 643 116 465 c 0,52,53
 116 251 116 251 176 100 c 128,-1,54
 236 -51 236 -51 349 -146.5 c 128,-1,55
 462 -242 462 -242 624 -286 c 128,-1,56
 786 -330 786 -330 989 -330 c 0,57,58
 1209 -330 1209 -330 1358 -307 c 128,-1,59
 1507 -284 1507 -284 1597 -255 c 0,60,61
 1703 -222 1703 -222 1763 -180 c 1,62,-1
 1763 -380 l 1,0,1
403 440 m 0,63,64
 403 519 403 519 425.5 589.5 c 128,-1,65
 448 660 448 660 495.5 712.5 c 128,-1,66
 543 765 543 765 617 796 c 128,-1,67
 691 827 691 827 793 827 c 2,68,-1
 851 827 l 1,69,-1
 851 0 l 1,70,-1
 814 0 l 2,71,72
 712 0 712 0 635.5 32 c 128,-1,73
 559 64 559 64 507 121.5 c 128,-1,74
 455 179 455 179 429 260 c 128,-1,75
 403 341 403 341 403 440 c 0,63,64
EndSplineSet
EndChar

StartChar: copyright
Encoding: 169 169 132
Width: 2222
Flags: W
LayerCount: 2
Fore
SplineSet
514 608 m 0,0,1
 514 695 514 695 542.5 770.5 c 128,-1,2
 571 846 571 846 628 901.5 c 128,-1,3
 685 957 685 957 769.5 988.5 c 128,-1,4
 854 1020 854 1020 966 1020 c 2,5,-1
 1007 1020 l 1,6,-1
 1007 160 l 1,7,-1
 966 160 l 2,8,9
 854 160 854 160 769.5 195.5 c 128,-1,10
 685 231 685 231 628 292 c 128,-1,11
 571 353 571 353 542.5 434.5 c 128,-1,12
 514 516 514 516 514 608 c 0,0,1
1649 1020 m 1,13,-1
 1649 565 l 1,14,-1
 1608 565 l 2,15,16
 1495 565 1495 565 1415 582.5 c 128,-1,17
 1335 600 1335 600 1284 638 c 128,-1,18
 1233 676 1233 676 1209 737 c 128,-1,19
 1185 798 1185 798 1185 885 c 2,20,-1
 1185 1020 l 1,21,-1
 1649 1020 l 1,13,-1
1603 372 m 1,22,-1
 1603 349 l 2,23,24
 1603 317 1603 317 1582 283.5 c 128,-1,25
 1561 250 1561 250 1522 222.5 c 128,-1,26
 1483 195 1483 195 1427.5 177.5 c 128,-1,27
 1372 160 1372 160 1303 160 c 2,28,-1
 1185 160 l 1,29,-1
 1185 372 l 1,30,-1
 1603 372 l 1,22,-1
1111 -339 m 0,31,32
 972 -339 972 -339 843 -312 c 128,-1,33
 714 -285 714 -285 601.5 -232 c 128,-1,34
 489 -179 489 -179 396.5 -100.5 c 128,-1,35
 304 -22 304 -22 238 82 c 128,-1,36
 172 186 172 186 135.5 314 c 128,-1,37
 99 442 99 442 99 595 c 0,38,39
 99 747 99 747 135.5 875.5 c 128,-1,40
 172 1004 172 1004 238 1107.5 c 128,-1,41
 304 1211 304 1211 396.5 1290 c 128,-1,42
 489 1369 489 1369 601.5 1421.5 c 128,-1,43
 714 1474 714 1474 843 1501 c 128,-1,44
 972 1528 972 1528 1111 1528 c 0,45,46
 1251 1528 1251 1528 1380.5 1501 c 128,-1,47
 1510 1474 1510 1474 1622.5 1421.5 c 128,-1,48
 1735 1369 1735 1369 1827 1290 c 128,-1,49
 1919 1211 1919 1211 1985 1107.5 c 128,-1,50
 2051 1004 2051 1004 2087 875.5 c 128,-1,51
 2123 747 2123 747 2123 595 c 256,52,53
 2123 443 2123 443 2087 314.5 c 128,-1,54
 2051 186 2051 186 1985 82 c 128,-1,55
 1919 -22 1919 -22 1827 -100.5 c 128,-1,56
 1735 -179 1735 -179 1622.5 -232 c 128,-1,57
 1510 -285 1510 -285 1380.5 -312 c 128,-1,58
 1251 -339 1251 -339 1111 -339 c 0,31,32
1111 1393 m 256,59,60
 928 1393 928 1393 771.5 1341.5 c 128,-1,61
 615 1290 615 1290 500 1189 c 128,-1,62
 385 1088 385 1088 320 939 c 128,-1,63
 255 790 255 790 255 595 c 256,64,65
 255 400 255 400 320 250.5 c 128,-1,66
 385 101 385 101 500 -0.5 c 128,-1,67
 615 -102 615 -102 771.5 -154 c 128,-1,68
 928 -206 928 -206 1111 -206 c 256,69,70
 1294 -206 1294 -206 1451 -154 c 128,-1,71
 1608 -102 1608 -102 1723 -0.5 c 128,-1,72
 1838 101 1838 101 1903.5 250.5 c 128,-1,73
 1969 400 1969 400 1969 595 c 256,74,75
 1969 790 1969 790 1903.5 939 c 128,-1,76
 1838 1088 1838 1088 1723 1189 c 128,-1,77
 1608 1290 1608 1290 1451 1341.5 c 128,-1,78
 1294 1393 1294 1393 1111 1393 c 256,59,60
EndSplineSet
EndChar

StartChar: registered
Encoding: 174 174 133
Width: 2222
Flags: W
LayerCount: 2
Fore
SplineSet
1111 -339 m 0,0,1
 972 -339 972 -339 843 -312 c 128,-1,2
 714 -285 714 -285 601.5 -232 c 128,-1,3
 489 -179 489 -179 396.5 -100.5 c 128,-1,4
 304 -22 304 -22 238 82 c 128,-1,5
 172 186 172 186 135.5 314 c 128,-1,6
 99 442 99 442 99 595 c 0,7,8
 99 747 99 747 135.5 875.5 c 128,-1,9
 172 1004 172 1004 238 1107.5 c 128,-1,10
 304 1211 304 1211 396.5 1290 c 128,-1,11
 489 1369 489 1369 601.5 1421.5 c 128,-1,12
 714 1474 714 1474 843 1501 c 128,-1,13
 972 1528 972 1528 1111 1528 c 0,14,15
 1251 1528 1251 1528 1380.5 1501 c 128,-1,16
 1510 1474 1510 1474 1622.5 1421.5 c 128,-1,17
 1735 1369 1735 1369 1827 1290 c 128,-1,18
 1919 1211 1919 1211 1985 1107.5 c 128,-1,19
 2051 1004 2051 1004 2087 875.5 c 128,-1,20
 2123 747 2123 747 2123 595 c 256,21,22
 2123 443 2123 443 2087 314.5 c 128,-1,23
 2051 186 2051 186 1985 82 c 128,-1,24
 1919 -22 1919 -22 1827 -100.5 c 128,-1,25
 1735 -179 1735 -179 1622.5 -232 c 128,-1,26
 1510 -285 1510 -285 1380.5 -312 c 128,-1,27
 1251 -339 1251 -339 1111 -339 c 0,0,1
1111 1393 m 256,28,29
 928 1393 928 1393 771.5 1341.5 c 128,-1,30
 615 1290 615 1290 500 1189 c 128,-1,31
 385 1088 385 1088 320 939 c 128,-1,32
 255 790 255 790 255 595 c 256,33,34
 255 400 255 400 320 250.5 c 128,-1,35
 385 101 385 101 500 -0.5 c 128,-1,36
 615 -102 615 -102 771.5 -154 c 128,-1,37
 928 -206 928 -206 1111 -206 c 256,38,39
 1294 -206 1294 -206 1451 -154 c 128,-1,40
 1608 -102 1608 -102 1723 -0.5 c 128,-1,41
 1838 101 1838 101 1903.5 250.5 c 128,-1,42
 1969 400 1969 400 1969 595 c 256,43,44
 1969 790 1969 790 1903.5 939 c 128,-1,45
 1838 1088 1838 1088 1723 1189 c 128,-1,46
 1608 1290 1608 1290 1451 1341.5 c 128,-1,47
 1294 1393 1294 1393 1111 1393 c 256,28,29
1158 159 m 1,48,-1
 1158 1020 l 1,49,-1
 1247 1020 l 2,50,51
 1365 1020 1365 1020 1446 1001 c 128,-1,52
 1527 982 1527 982 1577 949.5 c 128,-1,53
 1627 917 1627 917 1648.5 874.5 c 128,-1,54
 1670 832 1670 832 1670 785 c 0,55,56
 1670 678 1670 678 1579 615.5 c 128,-1,57
 1488 553 1488 553 1303 536 c 1,58,59
 1423 533 1423 533 1492.5 512.5 c 128,-1,60
 1562 492 1562 492 1596.5 459 c 128,-1,61
 1631 426 1631 426 1640 382 c 128,-1,62
 1649 338 1649 338 1649 287 c 2,63,-1
 1649 159 l 1,64,-1
 1158 159 l 1,48,-1
547 160 m 1,65,-1
 547 1020 l 1,66,-1
 966 1020 l 1,67,-1
 966 160 l 1,68,-1
 547 160 l 1,65,-1
EndSplineSet
EndChar

StartChar: asciicircum
Encoding: 94 94 134
Width: 1533
Flags: W
LayerCount: 2
Fore
SplineSet
200 607 m 1,0,-1
 759 1571 l 1,1,-1
 1333 607 l 1,2,-1
 1170 512 l 1,3,-1
 758 1226 l 1,4,-1
 364 512 l 1,5,-1
 200 607 l 1,0,-1
EndSplineSet
EndChar

StartChar: underscore
Encoding: 95 95 135
Width: 1189
Flags: W
LayerCount: 2
Fore
SplineSet
1208 -337 m 1,0,-1
 -19 -337 l 1,1,-1
 -19 -173 l 1,2,-1
 1208 -173 l 1,3,-1
 1208 -337 l 1,0,-1
EndSplineSet
EndChar

StartChar: section
Encoding: 167 167 136
Width: 1707
Flags: W
LayerCount: 2
Fore
SplineSet
1550 679 m 1,0,1
 1550 605 1550 605 1529.5 546.5 c 128,-1,2
 1509 488 1509 488 1471 446 c 128,-1,3
 1433 404 1433 404 1379 378 c 128,-1,4
 1325 352 1325 352 1257 344 c 1,5,-1
 1550 0 l 1,6,7
 1550 -83 1550 -83 1524.5 -146 c 128,-1,8
 1499 -209 1499 -209 1452.5 -252 c 128,-1,9
 1406 -295 1406 -295 1339 -317 c 128,-1,10
 1272 -339 1272 -339 1190 -339 c 1,11,-1
 324 680 l 1,12,13
 324 754 324 754 344 813 c 128,-1,14
 364 872 364 872 401.5 914.5 c 128,-1,15
 439 957 439 957 492.5 983 c 128,-1,16
 546 1009 546 1009 614 1017 c 1,17,-1
 324 1359 l 1,18,19
 324 1442 324 1442 348.5 1505.5 c 128,-1,20
 373 1569 373 1569 419.5 1612.5 c 128,-1,21
 466 1656 466 1656 531.5 1678 c 128,-1,22
 597 1700 597 1700 680 1700 c 1,23,-1
 1550 679 l 1,0,1
977 1700 m 1,24,-1
 1550 1700 l 1,25,-1
 1550 1064 l 1,26,-1
 977 1700 l 1,24,-1
877 -340 m 1,27,-1
 327 -340 l 1,28,-1
 327 298 l 1,29,-1
 877 -340 l 1,27,-1
EndSplineSet
EndChar

StartChar: acute
Encoding: 180 180 137
Width: 1018
Flags: W
LayerCount: 2
Fore
SplineSet
850 1699 m 1,0,-1
 630 1479 l 2,1,2
 558 1407 558 1407 484.5 1369.5 c 128,-1,3
 411 1332 411 1332 345 1332 c 0,4,5
 308 1332 308 1332 275 1344.5 c 128,-1,6
 242 1357 242 1357 216 1384 c 2,7,-1
 170 1430 l 1,8,-1
 680 1870 l 1,9,-1
 850 1699 l 1,0,-1
EndSplineSet
EndChar

StartChar: grave
Encoding: 96 96 138
Width: 1189
Flags: W
LayerCount: 2
Fore
SplineSet
340 1870 m 1,0,-1
 850 1430 l 1,1,-1
 804 1384 l 2,2,3
 777 1357 777 1357 744.5 1344.5 c 128,-1,4
 712 1332 712 1332 674 1332 c 0,5,6
 608 1332 608 1332 535 1369.5 c 128,-1,7
 462 1407 462 1407 390 1479 c 2,8,-1
 170 1699 l 1,9,-1
 340 1870 l 1,0,-1
EndSplineSet
EndChar

StartChar: tilde
Encoding: 732 732 139
Width: 1359
Flags: W
LayerCount: 2
Fore
SplineSet
807 1072 m 2,0,1
 745 1072 745 1072 694 1102 c 128,-1,2
 643 1132 643 1132 604.5 1179.5 c 128,-1,3
 566 1227 566 1227 540 1286.5 c 128,-1,4
 514 1346 514 1346 502 1406 c 1,5,6
 490 1346 490 1346 464.5 1286.5 c 128,-1,7
 439 1227 439 1227 400.5 1179.5 c 128,-1,8
 362 1132 362 1132 311 1102 c 128,-1,9
 260 1072 260 1072 198 1072 c 2,10,-1
 137 1072 l 1,11,-1
 137 1209 l 2,12,13
 137 1274 137 1274 158 1332 c 128,-1,14
 179 1390 179 1390 219 1434 c 128,-1,15
 259 1478 259 1478 318 1504 c 128,-1,16
 377 1530 377 1530 452 1530 c 2,17,-1
 553 1530 l 2,18,19
 615 1530 615 1530 665.5 1500.5 c 128,-1,20
 716 1471 716 1471 754.5 1423.5 c 128,-1,21
 793 1376 793 1376 819 1316.5 c 128,-1,22
 845 1257 845 1257 857 1198 c 1,23,24
 869 1257 869 1257 895 1316.5 c 128,-1,25
 921 1376 921 1376 959.5 1423.5 c 128,-1,26
 998 1471 998 1471 1048.5 1500.5 c 128,-1,27
 1099 1530 1099 1530 1161 1530 c 2,28,-1
 1222 1530 l 1,29,-1
 1222 1393 l 2,30,31
 1222 1328 1222 1328 1201 1270 c 128,-1,32
 1180 1212 1180 1212 1140 1168 c 128,-1,33
 1100 1124 1100 1124 1041 1098 c 128,-1,34
 982 1072 982 1072 907 1072 c 2,35,-1
 807 1072 l 2,0,1
EndSplineSet
EndChar

StartChar: asciitilde
Encoding: 126 126 140
Width: 1529
Flags: W
LayerCount: 2
Fore
SplineSet
137 529 m 2,0,1
 137 594 137 594 158 652 c 128,-1,2
 179 710 179 710 219 754 c 128,-1,3
 259 798 259 798 318 824 c 128,-1,4
 377 850 377 850 452 850 c 2,5,-1
 603 850 l 2,6,7
 665 850 665 850 719.5 829 c 128,-1,8
 774 808 774 808 817 772.5 c 128,-1,9
 860 737 860 737 890 690 c 128,-1,10
 920 643 920 643 932 591 c 1,11,12
 944 643 944 643 974 690 c 128,-1,13
 1004 737 1004 737 1047 772.5 c 128,-1,14
 1090 808 1090 808 1144.5 829 c 128,-1,15
 1199 850 1199 850 1261 850 c 2,16,-1
 1322 850 l 1,17,-1
 1322 713 l 2,18,19
 1322 648 1322 648 1301 590 c 128,-1,20
 1280 532 1280 532 1240 488 c 128,-1,21
 1200 444 1200 444 1141 418 c 128,-1,22
 1082 392 1082 392 1007 392 c 2,23,-1
 857 392 l 2,24,25
 795 392 795 392 740 413 c 128,-1,26
 685 434 685 434 642 470 c 128,-1,27
 599 506 599 506 569.5 553 c 128,-1,28
 540 600 540 600 528 652 c 1,29,30
 516 600 516 600 486.5 553 c 128,-1,31
 457 506 457 506 413.5 470 c 128,-1,32
 370 434 370 434 315 413 c 128,-1,33
 260 392 260 392 198 392 c 2,34,-1
 137 392 l 1,35,-1
 137 529 l 2,0,1
EndSplineSet
EndChar

StartChar: dieresis
Encoding: 168 168 141
Width: 1360
Flags: W
LayerCount: 2
Fore
SplineSet
167 1535 m 0,0,1
 167 1588 167 1588 180 1621 c 128,-1,2
 193 1654 193 1654 218.5 1672.5 c 128,-1,3
 244 1691 244 1691 283 1697.5 c 128,-1,4
 322 1704 322 1704 374 1704 c 0,5,6
 425 1704 425 1704 463 1697.5 c 128,-1,7
 501 1691 501 1691 525.5 1672.5 c 128,-1,8
 550 1654 550 1654 562.5 1621 c 128,-1,9
 575 1588 575 1588 575 1535 c 0,10,11
 575 1481 575 1481 564 1447 c 128,-1,12
 553 1413 553 1413 529.5 1393 c 128,-1,13
 506 1373 506 1373 469 1365.5 c 128,-1,14
 432 1358 432 1358 380 1358 c 0,15,16
 329 1358 329 1358 289.5 1365.5 c 128,-1,17
 250 1373 250 1373 223 1393 c 128,-1,18
 196 1413 196 1413 181.5 1447 c 128,-1,19
 167 1481 167 1481 167 1535 c 0,0,1
785 1537 m 0,20,21
 785 1590 785 1590 798 1623 c 128,-1,22
 811 1656 811 1656 836.5 1674.5 c 128,-1,23
 862 1693 862 1693 901 1699.5 c 128,-1,24
 940 1706 940 1706 992 1706 c 0,25,26
 1043 1706 1043 1706 1081 1699.5 c 128,-1,27
 1119 1693 1119 1693 1143.5 1674.5 c 128,-1,28
 1168 1656 1168 1656 1180.5 1623 c 128,-1,29
 1193 1590 1193 1590 1193 1537 c 0,30,31
 1193 1483 1193 1483 1182 1449 c 128,-1,32
 1171 1415 1171 1415 1147.5 1395 c 128,-1,33
 1124 1375 1124 1375 1087 1367.5 c 128,-1,34
 1050 1360 1050 1360 998 1360 c 0,35,36
 947 1360 947 1360 907.5 1367.5 c 128,-1,37
 868 1375 868 1375 841 1395 c 128,-1,38
 814 1415 814 1415 799.5 1449 c 128,-1,39
 785 1483 785 1483 785 1537 c 0,20,21
EndSplineSet
EndChar

StartChar: cedilla
Encoding: 184 184 142
Width: 1229
Flags: W
LayerCount: 2
Fore
SplineSet
918 -233 m 1,0,-1
 582 -560 l 1,1,-1
 485 -463 l 2,2,3
 445 -423 445 -423 445 -368 c 0,4,5
 445 -326 445 -326 469 -279 c 128,-1,6
 493 -232 493 -232 545 -183 c 2,7,-1
 711 -26 l 1,8,-1
 918 -233 l 1,0,-1
EndSplineSet
EndChar

StartChar: circumflex
Encoding: 710 710 143
Width: 1360
Flags: W
LayerCount: 2
Fore
SplineSet
1190 1430 m 1,0,-1
 1144 1384 l 2,1,2
 1117 1357 1117 1357 1086.5 1344.5 c 128,-1,3
 1056 1332 1056 1332 1023 1332 c 0,4,5
 964 1332 964 1332 896.5 1369.5 c 128,-1,6
 829 1407 829 1407 758 1479 c 2,7,-1
 680 1558 l 1,8,-1
 605 1479 l 1,9,10
 533 1407 533 1407 465 1369.5 c 128,-1,11
 397 1332 397 1332 337 1332 c 0,12,13
 303 1332 303 1332 272 1344.5 c 128,-1,14
 241 1357 241 1357 215 1384 c 2,15,-1
 169 1430 l 1,16,-1
 680 1870 l 1,17,-1
 1190 1430 l 1,0,-1
EndSplineSet
EndChar

StartChar: macron
Encoding: 175 175 144
Width: 1022
Flags: W
LayerCount: 2
Fore
SplineSet
907 1200 m 1,0,-1
 115 1200 l 1,1,-1
 115 1417 l 1,2,-1
 907 1417 l 1,3,-1
 907 1200 l 1,0,-1
EndSplineSet
EndChar

StartChar: ae
Encoding: 230 230 145
Width: 2555
Flags: W
LayerCount: 2
Fore
SplineSet
1748 457 m 1,0,-1
 1748 1020 l 1,1,-1
 1789 1020 l 2,2,3
 1912 1020 1912 1020 2000 991.5 c 128,-1,4
 2088 963 2088 963 2144 906 c 128,-1,5
 2200 849 2200 849 2226 764 c 128,-1,6
 2252 679 2252 679 2252 567 c 2,7,-1
 2252 457 l 1,8,-1
 1748 457 l 1,0,-1
2198 261 m 1,9,-1
 2198 233 l 2,10,11
 2198 193 2198 193 2183.5 151.5 c 128,-1,12
 2169 110 2169 110 2136.5 76.5 c 128,-1,13
 2104 43 2104 43 2051.5 21.5 c 128,-1,14
 1999 0 1999 0 1923 0 c 2,15,-1
 1748 0 l 1,16,-1
 1748 261 l 1,17,-1
 2198 261 l 1,9,-1
325 502 m 0,18,19
 325 608 325 608 352.5 702.5 c 128,-1,20
 380 797 380 797 438 867.5 c 128,-1,21
 496 938 496 938 585 979 c 128,-1,22
 674 1020 674 1020 797 1020 c 2,23,-1
 849 1020 l 1,24,-1
 849 0 l 1,25,-1
 822 0 l 2,26,27
 699 0 699 0 606 36 c 128,-1,28
 513 72 513 72 450.5 138 c 128,-1,29
 388 204 388 204 356.5 296.5 c 128,-1,30
 325 389 325 389 325 502 c 0,18,19
1549 1020 m 1,31,-1
 1549 0 l 1,32,-1
 1511 0 l 2,33,34
 1388 0 1388 0 1300.5 22 c 128,-1,35
 1213 44 1213 44 1156.5 91 c 128,-1,36
 1100 138 1100 138 1073.5 213 c 128,-1,37
 1047 288 1047 288 1047 395 c 2,38,-1
 1047 1020 l 1,39,-1
 1549 1020 l 1,31,-1
EndSplineSet
EndChar

StartChar: hbar
Encoding: 295 295 157
Width: 1874
Flags: W
LayerCount: 2
Fore
SplineSet
1100 1191 m 1,0,-1
 170 1191 l 1,1,-1
 170 1361 l 1,2,-1
 1100 1361 l 1,3,-1
 1100 1191 l 1,0,-1
1046 0 m 1,4,-1
 1046 1020 l 1,5,-1
 1111 1020 l 2,6,7
 1234 1020 1234 1020 1317.5 991.5 c 128,-1,8
 1401 963 1401 963 1452.5 907.5 c 128,-1,9
 1504 852 1504 852 1526.5 770.5 c 128,-1,10
 1549 689 1549 689 1549 583 c 2,11,-1
 1549 0 l 1,12,-1
 1046 0 l 1,4,-1
812 1531 m 1,13,-1
 812 0 l 1,14,-1
 324 0 l 1,15,-1
 324 1531 l 1,16,-1
 812 1531 l 1,13,-1
EndSplineSet
EndChar

StartChar: dotlessi
Encoding: 305 305 158
Width: 1196
Flags: W
LayerCount: 2
Fore
SplineSet
842 1019 m 1,0,-1
 842 0 l 1,1,-1
 354 0 l 1,2,-1
 354 1019 l 1,3,-1
 842 1019 l 1,0,-1
EndSplineSet
EndChar

StartChar: kgreenlandic
Encoding: 312 312 167
Width: 1874
Flags: W
LayerCount: 2
Fore
SplineSet
1017 833 m 256,0,1
 1017 886 1017 886 1040 924 c 128,-1,2
 1063 962 1063 962 1101.5 986 c 128,-1,3
 1140 1010 1140 1010 1190.5 1021.5 c 128,-1,4
 1241 1033 1241 1033 1295 1033 c 0,5,6
 1348 1033 1348 1033 1397.5 1021.5 c 128,-1,7
 1447 1010 1447 1010 1485 986 c 128,-1,8
 1523 962 1523 962 1545.5 924 c 128,-1,9
 1568 886 1568 886 1568 833 c 256,10,11
 1568 780 1568 780 1547 741.5 c 128,-1,12
 1526 703 1526 703 1489.5 677.5 c 128,-1,13
 1453 652 1453 652 1404.5 640 c 128,-1,14
 1356 628 1356 628 1302 628 c 0,15,16
 1249 628 1249 628 1197.5 640 c 128,-1,17
 1146 652 1146 652 1106 677.5 c 128,-1,18
 1066 703 1066 703 1041.5 741.5 c 128,-1,19
 1017 780 1017 780 1017 833 c 256,0,1
1055 0 m 1,20,-1
 1055 509 l 1,21,-1
 1120 509 l 2,22,23
 1243 509 1243 509 1327 480.5 c 128,-1,24
 1411 452 1411 452 1462 396.5 c 128,-1,25
 1513 341 1513 341 1535.5 259.5 c 128,-1,26
 1558 178 1558 178 1558 72 c 2,27,-1
 1558 0 l 1,28,-1
 1055 0 l 1,20,-1
821 1020 m 1,29,-1
 821 0 l 1,30,-1
 334 0 l 1,31,-1
 334 1020 l 1,32,-1
 821 1020 l 1,29,-1
EndSplineSet
EndChar

StartChar: lslash
Encoding: 322 322 169
Width: 1018
Flags: W
LayerCount: 2
Fore
SplineSet
0 510 m 1,0,-1
 881 1156 l 1,1,-1
 1018 1020 l 1,2,-1
 136 374 l 1,3,-1
 0 510 l 1,0,-1
753 1531 m 1,4,-1
 753 0 l 1,5,-1
 265 0 l 1,6,-1
 265 1531 l 1,7,-1
 753 1531 l 1,4,-1
EndSplineSet
EndChar

StartChar: oe
Encoding: 339 339 172
Width: 2555
Flags: W
LayerCount: 2
Fore
SplineSet
307 502 m 0,0,1
 307 608 307 608 334.5 702.5 c 128,-1,2
 362 797 362 797 420 867.5 c 128,-1,3
 478 938 478 938 567 979 c 128,-1,4
 656 1020 656 1020 779 1020 c 2,5,-1
 831 1020 l 1,6,-1
 831 0 l 1,7,-1
 804 0 l 2,8,9
 681 0 681 0 588 36 c 128,-1,10
 495 72 495 72 432.5 138 c 128,-1,11
 370 204 370 204 338.5 296.5 c 128,-1,12
 307 389 307 389 307 502 c 0,0,1
1768 457 m 1,13,-1
 1768 1020 l 1,14,-1
 1809 1020 l 2,15,16
 1932 1020 1932 1020 2020 991.5 c 128,-1,17
 2108 963 2108 963 2164 906 c 128,-1,18
 2220 849 2220 849 2246 764 c 128,-1,19
 2272 679 2272 679 2272 567 c 2,20,-1
 2272 457 l 1,21,-1
 1768 457 l 1,13,-1
2218 261 m 1,22,-1
 2218 233 l 2,23,24
 2218 193 2218 193 2203.5 151.5 c 128,-1,25
 2189 110 2189 110 2156.5 76.5 c 128,-1,26
 2124 43 2124 43 2071.5 21.5 c 128,-1,27
 2019 0 2019 0 1943 0 c 2,28,-1
 1768 0 l 1,29,-1
 1768 261 l 1,30,-1
 2218 261 l 1,22,-1
1095 1020 m 2,31,32
 1126 1020 1126 1020 1154.5 1012.5 c 128,-1,33
 1183 1005 1183 1005 1209.5 994 c 128,-1,34
 1236 983 1236 983 1260 971 c 128,-1,35
 1284 959 1284 959 1307 949 c 1,36,37
 1329 959 1329 959 1353.5 971 c 128,-1,38
 1378 983 1378 983 1404 994 c 128,-1,39
 1430 1005 1430 1005 1458.5 1012.5 c 128,-1,40
 1487 1020 1487 1020 1518 1020 c 2,41,-1
 1570 1020 l 1,42,-1
 1570 0 l 1,43,-1
 1543 0 l 2,44,45
 1509 0 1509 0 1477 7.5 c 128,-1,46
 1445 15 1445 15 1415.5 26 c 128,-1,47
 1386 37 1386 37 1358.5 50 c 128,-1,48
 1331 63 1331 63 1306 74 c 1,49,50
 1281 63 1281 63 1254 50 c 128,-1,51
 1227 37 1227 37 1197.5 26 c 128,-1,52
 1168 15 1168 15 1136 7.5 c 128,-1,53
 1104 0 1104 0 1070 0 c 2,54,-1
 1043 0 l 1,55,-1
 1043 1020 l 1,56,-1
 1095 1020 l 2,31,32
EndSplineSet
EndChar

StartChar: oslash
Encoding: 248 248 178
Width: 1874
Flags: W
LayerCount: 2
Fore
SplineSet
1278 895 m 1,0,-1
 1563 1190 l 1,1,-1
 1700 1054 l 1,2,-1
 1278 623 l 1,3,-1
 1278 895 l 1,0,-1
728 251 m 1,4,-1
 306 -170 l 1,5,-1
 170 -34 l 1,6,-1
 728 523 l 1,7,-1
 728 251 l 1,4,-1
307 502 m 0,8,9
 307 608 307 608 334.5 702.5 c 128,-1,10
 362 797 362 797 420 867.5 c 128,-1,11
 478 938 478 938 567 979 c 128,-1,12
 656 1020 656 1020 779 1020 c 2,13,-1
 831 1020 l 1,14,-1
 831 0 l 1,15,-1
 804 0 l 2,16,17
 681 0 681 0 588 36 c 128,-1,18
 495 72 495 72 432.5 138 c 128,-1,19
 370 204 370 204 338.5 296.5 c 128,-1,20
 307 389 307 389 307 502 c 0,8,9
1567 502 m 0,21,22
 1567 389 1567 389 1535.5 296.5 c 128,-1,23
 1504 204 1504 204 1441.5 138 c 128,-1,24
 1379 72 1379 72 1286 36 c 128,-1,25
 1193 0 1193 0 1070 0 c 2,26,-1
 1043 0 l 1,27,-1
 1043 1020 l 1,28,-1
 1095 1020 l 2,29,30
 1218 1020 1218 1020 1307 979 c 128,-1,31
 1396 938 1396 938 1454 867.5 c 128,-1,32
 1512 797 1512 797 1539.5 702.5 c 128,-1,33
 1567 608 1567 608 1567 502 c 0,21,22
EndSplineSet
EndChar

StartChar: germandbls
Encoding: 223 223 181
Width: 1874
Flags: W
LayerCount: 2
Fore
SplineSet
316 0 m 1,0,-1
 316 680 l 1,1,-1
 151 680 l 1,2,-1
 151 847 l 1,3,-1
 316 847 l 1,4,-1
 316 924 l 2,5,6
 316 1030 316 1030 338.5 1111.5 c 128,-1,7
 361 1193 361 1193 412.5 1248.5 c 128,-1,8
 464 1304 464 1304 547.5 1332.5 c 128,-1,9
 631 1361 631 1361 754 1361 c 2,10,-1
 819 1361 l 1,11,-1
 819 0 l 1,12,-1
 316 0 l 1,0,-1
1494 1099 m 0,13,14
 1494 1049 1494 1049 1481 999.5 c 128,-1,15
 1468 950 1468 950 1438.5 906.5 c 128,-1,16
 1409 863 1409 863 1362 827.5 c 128,-1,17
 1315 792 1315 792 1247 771 c 1,18,19
 1328 759 1328 759 1392.5 734 c 128,-1,20
 1457 709 1457 709 1501.5 667.5 c 128,-1,21
 1546 626 1546 626 1570 566.5 c 128,-1,22
 1594 507 1594 507 1594 426 c 0,23,24
 1594 324 1594 324 1562.5 245 c 128,-1,25
 1531 166 1531 166 1469 111.5 c 128,-1,26
 1407 57 1407 57 1314.5 28.5 c 128,-1,27
 1222 0 1222 0 1099 0 c 2,28,-1
 1032 0 l 1,29,-1
 1032 1361 l 1,30,-1
 1084 1361 l 2,31,32
 1207 1361 1207 1361 1286.5 1333 c 128,-1,33
 1366 1305 1366 1305 1412 1264.5 c 128,-1,34
 1458 1224 1458 1224 1476 1178.5 c 128,-1,35
 1494 1133 1494 1133 1494 1099 c 0,13,14
EndSplineSet
EndChar

StartChar: eth
Encoding: 240 240 188
Width: 1874
Flags: W
LayerCount: 2
Fore
SplineSet
1043 1484 m 1,0,-1
 1043 1771 l 1,1,-1
 1096 1771 l 2,2,3
 1151 1771 1151 1771 1199 1757.5 c 128,-1,4
 1247 1744 1247 1744 1288.5 1720 c 128,-1,5
 1330 1696 1330 1696 1365.5 1662 c 128,-1,6
 1401 1628 1401 1628 1430 1587 c 1,7,-1
 1739 1669 l 1,8,-1
 1789 1482 l 1,9,-1
 1522 1412 l 1,10,11
 1546 1351 1546 1351 1562.5 1286.5 c 128,-1,12
 1579 1222 1579 1222 1589.5 1158.5 c 128,-1,13
 1600 1095 1600 1095 1604.5 1033.5 c 128,-1,14
 1609 972 1609 972 1609 917 c 0,15,16
 1609 829 1609 829 1598 726.5 c 128,-1,17
 1587 624 1587 624 1563 522 c 128,-1,18
 1539 420 1539 420 1499.5 326 c 128,-1,19
 1460 232 1460 232 1403 159.5 c 128,-1,20
 1346 87 1346 87 1270 43.5 c 128,-1,21
 1194 0 1194 0 1096 0 c 2,22,-1
 1043 0 l 1,23,-1
 1043 1285 l 1,24,-1
 768 1213 l 1,25,-1
 720 1399 l 1,26,-1
 1043 1484 l 1,0,-1
330 502 m 0,27,28
 330 608 330 608 357.5 702.5 c 128,-1,29
 385 797 385 797 443 867.5 c 128,-1,30
 501 938 501 938 590 979 c 128,-1,31
 679 1020 679 1020 802 1020 c 2,32,-1
 854 1020 l 1,33,-1
 854 0 l 1,34,-1
 827 0 l 2,35,36
 704 0 704 0 611 36 c 128,-1,37
 518 72 518 72 455.5 138 c 128,-1,38
 393 204 393 204 361.5 296.5 c 128,-1,39
 330 389 330 389 330 502 c 0,27,28
EndSplineSet
EndChar

StartChar: thorn
Encoding: 254 254 189
Width: 1874
Flags: W
LayerCount: 2
Fore
SplineSet
328 -540 m 1,0,-1
 328 1530 l 1,1,-1
 816 1530 l 1,2,-1
 816 -540 l 1,3,-1
 328 -540 l 1,0,-1
1554 502 m 0,4,5
 1554 389 1554 389 1522.5 296.5 c 128,-1,6
 1491 204 1491 204 1429 138 c 128,-1,7
 1367 72 1367 72 1274.5 36 c 128,-1,8
 1182 0 1182 0 1059 0 c 2,9,-1
 1032 0 l 1,10,-1
 1032 1020 l 1,11,-1
 1084 1020 l 2,12,13
 1207 1020 1207 1020 1296 979 c 128,-1,14
 1385 938 1385 938 1442 867.5 c 128,-1,15
 1499 797 1499 797 1526.5 702.5 c 128,-1,16
 1554 608 1554 608 1554 502 c 0,4,5
EndSplineSet
EndChar

StartChar: AE
Encoding: 198 198 190
Width: 2558
Flags: W
LayerCount: 2
Fore
SplineSet
1054 2 m 1,0,-1
 1054 1361 l 1,1,-1
 1542 1361 l 1,2,-1
 1542 813 l 1,3,-1
 1943 813 l 1,4,-1
 1943 552 l 1,5,-1
 1542 552 l 1,6,-1
 1542 2 l 1,7,-1
 1054 2 l 1,0,-1
316 0 m 1,8,-1
 316 924 l 2,9,10
 316 1030 316 1030 338.5 1111.5 c 128,-1,11
 361 1193 361 1193 412.5 1248.5 c 128,-1,12
 464 1304 464 1304 547.5 1332.5 c 128,-1,13
 631 1361 631 1361 754 1361 c 2,14,-1
 819 1361 l 1,15,-1
 819 0 l 1,16,-1
 316 0 l 1,8,-1
1764 0 m 1,17,-1
 1764 97 l 2,18,19
 1764 149 1764 149 1783 204 c 128,-1,20
 1802 259 1802 259 1852.5 304 c 128,-1,21
 1903 349 1903 349 1991 377.5 c 128,-1,22
 2079 406 2079 406 2216 406 c 2,23,-1
 2270 406 l 1,24,-1
 2270 0 l 1,25,-1
 1764 0 l 1,17,-1
2270 1361 m 1,26,-1
 2270 983 l 1,27,-1
 2191 983 l 2,28,29
 2054 983 2054 983 1970.5 1005.5 c 128,-1,30
 1887 1028 1887 1028 1841.5 1069 c 128,-1,31
 1796 1110 1796 1110 1780.5 1167 c 128,-1,32
 1765 1224 1765 1224 1765 1294 c 2,33,-1
 1765 1361 l 1,34,-1
 2270 1361 l 1,26,-1
EndSplineSet
EndChar

StartChar: Lslash
Encoding: 321 321 209
Width: 1874
Flags: W
LayerCount: 2
Fore
SplineSet
1190 850 m 1,0,-1
 80 420 l 1,1,-1
 80 618 l 1,2,-1
 1190 1048 l 1,3,-1
 1190 850 l 1,0,-1
1039 0 m 1,4,-1
 1039 97 l 2,5,6
 1039 149 1039 149 1058 204 c 128,-1,7
 1077 259 1077 259 1127.5 304 c 128,-1,8
 1178 349 1178 349 1266 377.5 c 128,-1,9
 1354 406 1354 406 1491 406 c 2,10,-1
 1545 406 l 1,11,-1
 1545 0 l 1,12,-1
 1039 0 l 1,4,-1
329 2 m 1,13,-1
 329 1361 l 1,14,-1
 817 1361 l 1,15,-1
 817 2 l 1,16,-1
 329 2 l 1,13,-1
EndSplineSet
EndChar

StartChar: OE
Encoding: 338 338 212
Width: 2558
Flags: W
LayerCount: 2
Fore
SplineSet
1045 2 m 1,0,-1
 1045 1361 l 1,1,-1
 1533 1361 l 1,2,-1
 1533 813 l 1,3,-1
 1934 813 l 1,4,-1
 1934 552 l 1,5,-1
 1533 552 l 1,6,-1
 1533 2 l 1,7,-1
 1045 2 l 1,0,-1
265 717 m 0,8,9
 265 799 265 799 276 878.5 c 128,-1,10
 287 958 287 958 311 1029.5 c 128,-1,11
 335 1101 335 1101 374.5 1161.5 c 128,-1,12
 414 1222 414 1222 471 1266.5 c 128,-1,13
 528 1311 528 1311 604 1336 c 128,-1,14
 680 1361 680 1361 778 1361 c 2,15,-1
 831 1361 l 1,16,-1
 831 0 l 1,17,-1
 778 0 l 2,18,19
 680 0 680 0 604 28.5 c 128,-1,20
 528 57 528 57 471 107.5 c 128,-1,21
 414 158 414 158 374.5 226.5 c 128,-1,22
 335 295 335 295 311 374.5 c 128,-1,23
 287 454 287 454 276 541.5 c 128,-1,24
 265 629 265 629 265 717 c 0,8,9
1755 0 m 1,25,-1
 1755 97 l 2,26,27
 1755 149 1755 149 1774 204 c 128,-1,28
 1793 259 1793 259 1843.5 304 c 128,-1,29
 1894 349 1894 349 1982 377.5 c 128,-1,30
 2070 406 2070 406 2207 406 c 2,31,-1
 2261 406 l 1,32,-1
 2261 0 l 1,33,-1
 1755 0 l 1,25,-1
2261 1361 m 1,34,-1
 2261 983 l 1,35,-1
 2182 983 l 2,36,37
 2045 983 2045 983 1961.5 1005.5 c 128,-1,38
 1878 1028 1878 1028 1832.5 1069 c 128,-1,39
 1787 1110 1787 1110 1771.5 1167 c 128,-1,40
 1756 1224 1756 1224 1756 1294 c 2,41,-1
 1756 1361 l 1,42,-1
 2261 1361 l 1,34,-1
EndSplineSet
EndChar

StartChar: Oslash
Encoding: 216 216 218
Width: 1874
Flags: W
LayerCount: 2
Fore
SplineSet
1245 1195 m 1,0,-1
 1530 1530 l 1,1,-1
 1667 1394 l 1,2,-1
 1245 923 l 1,3,-1
 1245 1195 l 1,0,-1
762 301 m 1,4,-1
 340 -170 l 1,5,-1
 204 -34 l 1,6,-1
 762 573 l 1,7,-1
 762 301 l 1,4,-1
1609 717 m 0,8,9
 1609 629 1609 629 1598 541.5 c 128,-1,10
 1587 454 1587 454 1563 374.5 c 128,-1,11
 1539 295 1539 295 1499.5 226.5 c 128,-1,12
 1460 158 1460 158 1403 107.5 c 128,-1,13
 1346 57 1346 57 1270 28.5 c 128,-1,14
 1194 0 1194 0 1096 0 c 2,15,-1
 1043 0 l 1,16,-1
 1043 1361 l 1,17,-1
 1096 1361 l 2,18,19
 1194 1361 1194 1361 1270 1336 c 128,-1,20
 1346 1311 1346 1311 1403 1266.5 c 128,-1,21
 1460 1222 1460 1222 1499.5 1161.5 c 128,-1,22
 1539 1101 1539 1101 1563 1029.5 c 128,-1,23
 1587 958 1587 958 1598 878.5 c 128,-1,24
 1609 799 1609 799 1609 717 c 0,8,9
264 717 m 0,25,26
 264 799 264 799 275 878.5 c 128,-1,27
 286 958 286 958 310 1029.5 c 128,-1,28
 334 1101 334 1101 373.5 1161.5 c 128,-1,29
 413 1222 413 1222 470 1266.5 c 128,-1,30
 527 1311 527 1311 603 1336 c 128,-1,31
 679 1361 679 1361 777 1361 c 2,32,-1
 830 1361 l 1,33,-1
 830 0 l 1,34,-1
 777 0 l 2,35,36
 679 0 679 0 603 28.5 c 128,-1,37
 527 57 527 57 470 107.5 c 128,-1,38
 413 158 413 158 373.5 226.5 c 128,-1,39
 334 295 334 295 310 374.5 c 128,-1,40
 286 454 286 454 275 541.5 c 128,-1,41
 264 629 264 629 264 717 c 0,25,26
EndSplineSet
EndChar

StartChar: Eth
Encoding: 208 208 227
Width: 1874
Flags: W
LayerCount: 2
Fore
SplineSet
328 2 m 1,0,-1
 328 644 l 1,1,-1
 151 644 l 1,2,-1
 151 811 l 1,3,-1
 328 811 l 1,4,-1
 328 1361 l 1,5,-1
 816 1361 l 1,6,-1
 816 2 l 1,7,-1
 328 2 l 1,0,-1
1595 742 m 0,8,9
 1595 573 1595 573 1565 436 c 128,-1,10
 1535 299 1535 299 1473.5 202 c 128,-1,11
 1412 105 1412 105 1316.5 52.5 c 128,-1,12
 1221 0 1221 0 1091 0 c 2,13,-1
 1032 0 l 1,14,-1
 1032 1361 l 1,15,-1
 1091 1361 l 2,16,17
 1239 1361 1239 1361 1336 1314.5 c 128,-1,18
 1433 1268 1433 1268 1490.5 1185 c 128,-1,19
 1548 1102 1548 1102 1571.5 988.5 c 128,-1,20
 1595 875 1595 875 1595 742 c 0,8,9
EndSplineSet
EndChar

StartChar: Thorn
Encoding: 222 222 228
Width: 1874
Flags: W
LayerCount: 2
Fore
SplineSet
1649 670 m 0,0,1
 1649 465 1649 465 1516 357 c 128,-1,2
 1383 249 1383 249 1123 249 c 2,3,-1
 1046 249 l 1,4,-1
 1046 1104 l 1,5,-1
 1095 1104 l 2,6,7
 1243 1104 1243 1104 1348 1076 c 128,-1,8
 1453 1048 1453 1048 1520 993 c 128,-1,9
 1587 938 1587 938 1618 857 c 128,-1,10
 1649 776 1649 776 1649 670 c 0,0,1
328 2 m 1,11,-1
 328 1361 l 1,12,-1
 816 1361 l 1,13,-1
 816 2 l 1,14,-1
 328 2 l 1,11,-1
EndSplineSet
EndChar

StartChar: ring
Encoding: 730 730 249
Width: 1019
Flags: W
LayerCount: 2
Fore
SplineSet
886 1561 m 256,0,1
 886 1488 886 1488 855.5 1430.5 c 128,-1,2
 825 1373 825 1373 773 1333 c 128,-1,3
 721 1293 721 1293 653 1271.5 c 128,-1,4
 585 1250 585 1250 510 1250 c 0,5,6
 436 1250 436 1250 372.5 1271.5 c 128,-1,7
 309 1293 309 1293 262.5 1333 c 128,-1,8
 216 1373 216 1373 190 1430.5 c 128,-1,9
 164 1488 164 1488 164 1561 c 256,10,11
 164 1634 164 1634 193.5 1691.5 c 128,-1,12
 223 1749 223 1749 273.5 1788.5 c 128,-1,13
 324 1828 324 1828 391 1849 c 128,-1,14
 458 1870 458 1870 533 1870 c 256,15,16
 608 1870 608 1870 673 1849 c 128,-1,17
 738 1828 738 1828 785 1788.5 c 128,-1,18
 832 1749 832 1749 859 1691.5 c 128,-1,19
 886 1634 886 1634 886 1561 c 256,0,1
698 1561 m 0,20,21
 698 1623 698 1623 654 1657.5 c 128,-1,22
 610 1692 610 1692 532 1692 c 0,23,24
 492 1692 492 1692 458.5 1683 c 128,-1,25
 425 1674 425 1674 401 1657 c 128,-1,26
 377 1640 377 1640 364 1616 c 128,-1,27
 351 1592 351 1592 351 1561 c 0,28,29
 351 1499 351 1499 393 1464 c 128,-1,30
 435 1429 435 1429 513 1429 c 0,31,32
 553 1429 553 1429 587 1438 c 128,-1,33
 621 1447 621 1447 646 1464 c 128,-1,34
 671 1481 671 1481 684.5 1505.5 c 128,-1,35
 698 1530 698 1530 698 1561 c 0,20,21
EndSplineSet
EndChar

StartChar: caron
Encoding: 711 711 250
Width: 1229
Flags: W
LayerCount: 2
Fore
SplineSet
170 1726 m 1,0,-1
 216 1772 l 2,1,2
 253 1809 253 1809 297 1819.5 c 128,-1,3
 341 1830 341 1830 390 1817 c 128,-1,4
 439 1804 439 1804 492.5 1768.5 c 128,-1,5
 546 1733 546 1733 602 1677 c 2,6,-1
 680 1598 l 1,7,-1
 755 1677 l 1,8,9
 811 1733 811 1733 865 1768.5 c 128,-1,10
 919 1804 919 1804 968.5 1817 c 128,-1,11
 1018 1830 1018 1830 1062.5 1819.5 c 128,-1,12
 1107 1809 1107 1809 1144 1772 c 2,13,-1
 1190 1726 l 1,14,-1
 680 1286 l 1,15,-1
 170 1726 l 1,0,-1
EndSplineSet
EndChar

StartChar: commaaccent
Encoding: 65539 -1 251
Width: 1025
Flags: W
LayerCount: 2
Fore
SplineSet
712 -149 m 1,0,-1
 712 -306 l 2,1,2
 712 -346 712 -346 697 -391 c 128,-1,3
 682 -436 682 -436 643.5 -473.5 c 128,-1,4
 605 -511 605 -511 539.5 -535.5 c 128,-1,5
 474 -560 474 -560 374 -560 c 2,6,-1
 306 -560 l 1,7,-1
 306 -149 l 1,8,-1
 712 -149 l 1,0,-1
EndSplineSet
EndChar

StartChar: grave.cap
Encoding: 65540 -1 252
Width: 1025
Flags: W
LayerCount: 2
Fore
SplineSet
340 2000 m 1,0,-1
 850 1560 l 1,1,-1
 804 1514 l 2,2,3
 767 1477 767 1477 719 1466.5 c 128,-1,4
 671 1456 671 1456 616.5 1469 c 128,-1,5
 562 1482 562 1482 504 1517.5 c 128,-1,6
 446 1553 446 1553 390 1609 c 2,7,-1
 170 1829 l 1,8,-1
 340 2000 l 1,0,-1
EndSplineSet
EndChar

StartChar: acute.cap
Encoding: 65541 -1 253
Width: 1025
Flags: W
LayerCount: 2
Fore
SplineSet
850 1829 m 1,0,-1
 630 1609 l 2,1,2
 574 1553 574 1553 516 1517.5 c 128,-1,3
 458 1482 458 1482 403.5 1469 c 128,-1,4
 349 1456 349 1456 301 1466.5 c 128,-1,5
 253 1477 253 1477 216 1514 c 2,6,-1
 170 1560 l 1,7,-1
 680 2000 l 1,8,-1
 850 1829 l 1,0,-1
EndSplineSet
EndChar

StartChar: circumflex.cap
Encoding: 65542 -1 254
Width: 1025
Flags: W
LayerCount: 2
Fore
SplineSet
1019 1560 m 1,0,-1
 973 1514 l 2,1,2
 946 1487 946 1487 915.5 1474.5 c 128,-1,3
 885 1462 885 1462 852 1462 c 0,4,5
 793 1462 793 1462 725.5 1499.5 c 128,-1,6
 658 1537 658 1537 587 1609 c 2,7,-1
 509 1688 l 1,8,-1
 434 1609 l 1,9,10
 362 1537 362 1537 294 1499.5 c 128,-1,11
 226 1462 226 1462 166 1462 c 0,12,13
 132 1462 132 1462 101 1474.5 c 128,-1,14
 70 1487 70 1487 44 1514 c 2,15,-1
 -2 1560 l 1,16,-1
 509 2000 l 1,17,-1
 1019 1560 l 1,0,-1
EndSplineSet
EndChar

StartChar: dieresis.cap
Encoding: 65543 -1 255
Width: 1025
Flags: W
LayerCount: 2
Fore
SplineSet
0 1829 m 0,0,1
 0 1882 0 1882 13 1915 c 128,-1,2
 26 1948 26 1948 51.5 1966.5 c 128,-1,3
 77 1985 77 1985 116 1991.5 c 128,-1,4
 155 1998 155 1998 207 1998 c 0,5,6
 258 1998 258 1998 296 1991.5 c 128,-1,7
 334 1985 334 1985 358.5 1966.5 c 128,-1,8
 383 1948 383 1948 395.5 1915 c 128,-1,9
 408 1882 408 1882 408 1829 c 0,10,11
 408 1775 408 1775 397 1741 c 128,-1,12
 386 1707 386 1707 362.5 1687 c 128,-1,13
 339 1667 339 1667 302 1659.5 c 128,-1,14
 265 1652 265 1652 213 1652 c 0,15,16
 162 1652 162 1652 122.5 1659.5 c 128,-1,17
 83 1667 83 1667 56 1687 c 128,-1,18
 29 1707 29 1707 14.5 1741 c 128,-1,19
 0 1775 0 1775 0 1829 c 0,0,1
618 1831 m 0,20,21
 618 1884 618 1884 631 1917 c 128,-1,22
 644 1950 644 1950 669.5 1968.5 c 128,-1,23
 695 1987 695 1987 734 1993.5 c 128,-1,24
 773 2000 773 2000 825 2000 c 0,25,26
 876 2000 876 2000 914 1993.5 c 128,-1,27
 952 1987 952 1987 976.5 1968.5 c 128,-1,28
 1001 1950 1001 1950 1013.5 1917 c 128,-1,29
 1026 1884 1026 1884 1026 1831 c 0,30,31
 1026 1777 1026 1777 1015 1743 c 128,-1,32
 1004 1709 1004 1709 980.5 1689 c 128,-1,33
 957 1669 957 1669 920 1661.5 c 128,-1,34
 883 1654 883 1654 831 1654 c 0,35,36
 780 1654 780 1654 740.5 1661.5 c 128,-1,37
 701 1669 701 1669 674 1689 c 128,-1,38
 647 1709 647 1709 632.5 1743 c 128,-1,39
 618 1777 618 1777 618 1831 c 0,20,21
EndSplineSet
EndChar

StartChar: dotlessj
Encoding: 567 567 256
Width: 1196
Flags: W
LayerCount: 2
Fore
SplineSet
849 1020 m 1,0,-1
 849 -5 l 2,1,2
 849 -118 849 -118 827 -210.5 c 128,-1,3
 805 -303 805 -303 754 -369 c 128,-1,4
 703 -435 703 -435 619.5 -471.5 c 128,-1,5
 536 -508 536 -508 413 -508 c 2,6,-1
 361 -508 l 1,7,-1
 361 1020 l 1,8,-1
 849 1020 l 1,0,-1
EndSplineSet
EndChar

StartChar: ring.cap
Encoding: 65544 -1 257
Width: 1025
Flags: W
LayerCount: 2
Fore
SplineSet
875 1691 m 256,0,1
 875 1618 875 1618 844.5 1560.5 c 128,-1,2
 814 1503 814 1503 762 1463 c 128,-1,3
 710 1423 710 1423 642 1401.5 c 128,-1,4
 574 1380 574 1380 499 1380 c 0,5,6
 425 1380 425 1380 361.5 1401.5 c 128,-1,7
 298 1423 298 1423 251.5 1463 c 128,-1,8
 205 1503 205 1503 179 1560.5 c 128,-1,9
 153 1618 153 1618 153 1691 c 256,10,11
 153 1764 153 1764 182.5 1821.5 c 128,-1,12
 212 1879 212 1879 262.5 1918.5 c 128,-1,13
 313 1958 313 1958 380 1979 c 128,-1,14
 447 2000 447 2000 522 2000 c 256,15,16
 597 2000 597 2000 662 1979 c 128,-1,17
 727 1958 727 1958 774 1918.5 c 128,-1,18
 821 1879 821 1879 848 1821.5 c 128,-1,19
 875 1764 875 1764 875 1691 c 256,0,1
687 1691 m 0,20,21
 687 1753 687 1753 643 1787.5 c 128,-1,22
 599 1822 599 1822 521 1822 c 0,23,24
 481 1822 481 1822 447.5 1813 c 128,-1,25
 414 1804 414 1804 390 1787 c 128,-1,26
 366 1770 366 1770 353 1746 c 128,-1,27
 340 1722 340 1722 340 1691 c 0,28,29
 340 1629 340 1629 382 1594 c 128,-1,30
 424 1559 424 1559 502 1559 c 0,31,32
 542 1559 542 1559 576 1568 c 128,-1,33
 610 1577 610 1577 635 1594 c 128,-1,34
 660 1611 660 1611 673.5 1635.5 c 128,-1,35
 687 1660 687 1660 687 1691 c 0,20,21
EndSplineSet
EndChar

StartChar: cedilla.cap
Encoding: 65545 -1 258
Width: 1229
Flags: W
LayerCount: 2
Fore
SplineSet
918 -233 m 1,0,-1
 582 -560 l 1,1,-1
 485 -463 l 2,2,3
 445 -423 445 -423 445 -368 c 0,4,5
 445 -326 445 -326 469 -279 c 128,-1,6
 493 -232 493 -232 545 -183 c 2,7,-1
 711 -26 l 1,8,-1
 918 -233 l 1,0,-1
EndSplineSet
EndChar

StartChar: florin
Encoding: 402 402 259
Width: 1712
Flags: W
LayerCount: 2
Fore
SplineSet
171 -340 m 1,0,-1
 429 1061 l 2,1,2
 448 1167 448 1167 488 1257 c 128,-1,3
 528 1347 528 1347 592.5 1411.5 c 128,-1,4
 657 1476 657 1476 749 1512.5 c 128,-1,5
 841 1549 841 1549 964 1549 c 2,6,-1
 1006 1549 l 1,7,-1
 659 -340 l 1,8,-1
 171 -340 l 1,0,-1
1608 1550 m 1,9,-1
 1521 1080 l 1,10,-1
 1460 1080 l 2,11,12
 1426 1080 1426 1080 1390 1082 c 128,-1,13
 1354 1084 1354 1084 1322 1093 c 128,-1,14
 1290 1102 1290 1102 1263.5 1121 c 128,-1,15
 1237 1140 1237 1140 1220.5 1174.5 c 128,-1,16
 1204 1209 1204 1209 1200.5 1261 c 128,-1,17
 1197 1313 1197 1313 1211 1388 c 2,18,-1
 1241 1550 l 1,19,-1
 1608 1550 l 1,9,-1
1389 825 m 1,20,-1
 1331 510 l 1,21,-1
 1050 510 l 1,22,-1
 1108 825 l 1,23,-1
 1389 825 l 1,20,-1
EndSplineSet
EndChar

StartChar: dagger
Encoding: 8224 8224 260
Width: 1366
Flags: W
LayerCount: 2
Fore
SplineSet
925 1700 m 1,0,-1
 925 1019 l 1,1,-1
 1234 1019 l 1,2,-1
 1234 828 l 1,3,-1
 925 828 l 1,4,-1
 925 -37 l 2,5,6
 925 -150 925 -150 903 -242.5 c 128,-1,7
 881 -335 881 -335 830 -401 c 128,-1,8
 779 -467 779 -467 695.5 -503.5 c 128,-1,9
 612 -540 612 -540 489 -540 c 2,10,-1
 437 -540 l 1,11,-1
 437 828 l 1,12,-1
 114 828 l 1,13,-1
 114 1019 l 1,14,-1
 437 1019 l 1,15,-1
 437 1700 l 1,16,-1
 925 1700 l 1,0,-1
EndSplineSet
EndChar

StartChar: daggerdbl
Encoding: 8225 8225 261
Width: 1366
Flags: W
LayerCount: 2
Fore
SplineSet
925 1700 m 1,0,-1
 925 1019 l 1,1,-1
 1234 1019 l 1,2,-1
 1234 828 l 1,3,-1
 925 828 l 1,4,-1
 925 508 l 1,5,-1
 1234 508 l 1,6,-1
 1234 317 l 1,7,-1
 925 317 l 1,8,-1
 925 -37 l 2,9,10
 925 -150 925 -150 903 -242.5 c 128,-1,11
 881 -335 881 -335 830 -401 c 128,-1,12
 779 -467 779 -467 695.5 -503.5 c 128,-1,13
 612 -540 612 -540 489 -540 c 2,14,-1
 437 -540 l 1,15,-1
 437 317 l 1,16,-1
 114 317 l 1,17,-1
 114 508 l 1,18,-1
 437 508 l 1,19,-1
 437 828 l 1,20,-1
 114 828 l 1,21,-1
 114 1019 l 1,22,-1
 437 1019 l 1,23,-1
 437 1700 l 1,24,-1
 925 1700 l 1,0,-1
EndSplineSet
EndChar

StartChar: commaaccent.cap
Encoding: 65546 -1 262
Width: 1025
Flags: W
LayerCount: 2
Fore
SplineSet
712 -149 m 1,0,-1
 712 -306 l 2,1,2
 712 -346 712 -346 697 -391 c 128,-1,3
 682 -436 682 -436 643.5 -473.5 c 128,-1,4
 605 -511 605 -511 539.5 -535.5 c 128,-1,5
 474 -560 474 -560 374 -560 c 2,6,-1
 306 -560 l 1,7,-1
 306 -149 l 1,8,-1
 712 -149 l 1,0,-1
EndSplineSet
EndChar

StartChar: caron.cap
Encoding: 65547 -1 263
Width: 1025
Flags: W
LayerCount: 2
Fore
SplineSet
0 1902 m 1,0,-1
 46 1948 l 2,1,2
 98 2000 98 2000 167 2000 c 0,3,4
 226 2000 226 2000 293.5 1962.5 c 128,-1,5
 361 1925 361 1925 432 1853 c 2,6,-1
 510 1774 l 1,7,-1
 585 1853 l 1,8,9
 657 1925 657 1925 724.5 1962.5 c 128,-1,10
 792 2000 792 2000 852 2000 c 0,11,12
 921 2000 921 2000 974 1948 c 2,13,-1
 1020 1902 l 1,14,-1
 510 1462 l 1,15,-1
 0 1902 l 1,0,-1
EndSplineSet
EndChar

StartChar: tilde.cap
Encoding: 65548 -1 264
Width: 1025
Flags: W
LayerCount: 2
Fore
SplineSet
639 1542 m 2,0,1
 577 1542 577 1542 526 1572 c 128,-1,2
 475 1602 475 1602 436.5 1649.5 c 128,-1,3
 398 1697 398 1697 372 1756.5 c 128,-1,4
 346 1816 346 1816 334 1876 c 1,5,6
 322 1816 322 1816 296.5 1756.5 c 128,-1,7
 271 1697 271 1697 232.5 1649.5 c 128,-1,8
 194 1602 194 1602 143 1572 c 128,-1,9
 92 1542 92 1542 30 1542 c 2,10,-1
 -31 1542 l 1,11,-1
 -31 1679 l 2,12,13
 -31 1744 -31 1744 -10 1802 c 128,-1,14
 11 1860 11 1860 51 1904 c 128,-1,15
 91 1948 91 1948 150 1974 c 128,-1,16
 209 2000 209 2000 284 2000 c 2,17,-1
 385 2000 l 2,18,19
 447 2000 447 2000 497.5 1970.5 c 128,-1,20
 548 1941 548 1941 586.5 1893.5 c 128,-1,21
 625 1846 625 1846 651 1786.5 c 128,-1,22
 677 1727 677 1727 689 1668 c 1,23,24
 701 1727 701 1727 727 1786.5 c 128,-1,25
 753 1846 753 1846 791.5 1893.5 c 128,-1,26
 830 1941 830 1941 880.5 1970.5 c 128,-1,27
 931 2000 931 2000 993 2000 c 2,28,-1
 1054 2000 l 1,29,-1
 1054 1863 l 2,30,31
 1054 1798 1054 1798 1033 1740 c 128,-1,32
 1012 1682 1012 1682 972 1638 c 128,-1,33
 932 1594 932 1594 873 1568 c 128,-1,34
 814 1542 814 1542 739 1542 c 2,35,-1
 639 1542 l 2,0,1
EndSplineSet
EndChar

StartChar: breve
Encoding: 728 728 265
Width: 1359
Flags: W
LayerCount: 2
Fore
SplineSet
680 1281 m 0,0,1
 574 1281 574 1281 481.5 1300 c 128,-1,2
 389 1319 389 1319 320 1362 c 128,-1,3
 251 1405 251 1405 211.5 1475 c 128,-1,4
 172 1545 172 1545 172 1647 c 2,5,-1
 172 1699 l 1,6,-1
 417 1699 l 1,7,8
 417 1645 417 1645 438.5 1609 c 128,-1,9
 460 1573 460 1573 496 1550.5 c 128,-1,10
 532 1528 532 1528 580.5 1518.5 c 128,-1,11
 629 1509 629 1509 683 1509 c 0,12,13
 738 1509 738 1509 782.5 1518.5 c 128,-1,14
 827 1528 827 1528 858.5 1550.5 c 128,-1,15
 890 1573 890 1573 906.5 1609 c 128,-1,16
 923 1645 923 1645 923 1699 c 1,17,-1
 1192 1699 l 1,18,-1
 1192 1672 l 2,19,20
 1192 1560 1192 1560 1154 1485 c 128,-1,21
 1116 1410 1116 1410 1048.5 1364.5 c 128,-1,22
 981 1319 981 1319 886.5 1300 c 128,-1,23
 792 1281 792 1281 680 1281 c 0,0,1
EndSplineSet
EndChar

StartChar: breve.cap
Encoding: 65549 -1 266
Width: 1025
Flags: W
LayerCount: 2
Fore
SplineSet
511 1582 m 0,0,1
 405 1582 405 1582 312.5 1601 c 128,-1,2
 220 1620 220 1620 151 1663 c 128,-1,3
 82 1706 82 1706 42.5 1776 c 128,-1,4
 3 1846 3 1846 3 1948 c 2,5,-1
 3 2000 l 1,6,-1
 248 2000 l 1,7,8
 248 1946 248 1946 269.5 1910 c 128,-1,9
 291 1874 291 1874 327 1851.5 c 128,-1,10
 363 1829 363 1829 411.5 1819.5 c 128,-1,11
 460 1810 460 1810 514 1810 c 0,12,13
 569 1810 569 1810 613.5 1819.5 c 128,-1,14
 658 1829 658 1829 689.5 1851.5 c 128,-1,15
 721 1874 721 1874 737.5 1910 c 128,-1,16
 754 1946 754 1946 754 2000 c 1,17,-1
 1023 2000 l 1,18,-1
 1023 1973 l 2,19,20
 1023 1861 1023 1861 985 1786 c 128,-1,21
 947 1711 947 1711 879.5 1665.5 c 128,-1,22
 812 1620 812 1620 717.5 1601 c 128,-1,23
 623 1582 623 1582 511 1582 c 0,0,1
EndSplineSet
EndChar

StartChar: dotaccent
Encoding: 729 729 267
Width: 1021
Flags: W
LayerCount: 2
Fore
SplineSet
213 1501 m 0,0,1
 213 1607 213 1607 286 1653.5 c 128,-1,2
 359 1700 359 1700 510 1700 c 0,3,4
 657 1700 657 1700 728 1653.5 c 128,-1,5
 799 1607 799 1607 799 1501 c 0,6,7
 799 1394 799 1394 733 1344 c 128,-1,8
 667 1294 667 1294 519 1294 c 0,9,10
 373 1294 373 1294 293 1344 c 128,-1,11
 213 1394 213 1394 213 1501 c 0,0,1
EndSplineSet
EndChar

StartChar: hungarumlaut
Encoding: 733 733 269
Width: 0
Flags: W
LayerCount: 2
Fore
SplineSet
710 1699 m 1,0,-1
 490 1479 l 2,1,2
 434 1423 434 1423 376 1387.5 c 128,-1,3
 318 1352 318 1352 263.5 1339 c 128,-1,4
 209 1326 209 1326 161 1336.5 c 128,-1,5
 113 1347 113 1347 76 1384 c 2,6,-1
 30 1430 l 1,7,-1
 540 1870 l 1,8,-1
 710 1699 l 1,0,-1
1350 1699 m 1,9,-1
 1130 1479 l 2,10,11
 1074 1423 1074 1423 1016 1387.5 c 128,-1,12
 958 1352 958 1352 903.5 1339 c 128,-1,13
 849 1326 849 1326 801 1336.5 c 128,-1,14
 753 1347 753 1347 716 1384 c 2,15,-1
 670 1430 l 1,16,-1
 1180 1870 l 1,17,-1
 1350 1699 l 1,9,-1
EndSplineSet
EndChar

StartChar: hungarumlaut.cap
Encoding: 65550 -1 270
Width: 1025
Flags: W
LayerCount: 2
Fore
SplineSet
720 1829 m 1,0,-1
 500 1609 l 2,1,2
 444 1553 444 1553 386 1517.5 c 128,-1,3
 328 1482 328 1482 273.5 1469 c 128,-1,4
 219 1456 219 1456 171 1466.5 c 128,-1,5
 123 1477 123 1477 86 1514 c 2,6,-1
 40 1560 l 1,7,-1
 550 2000 l 1,8,-1
 720 1829 l 1,0,-1
1360 1829 m 1,9,-1
 1140 1609 l 2,10,11
 1084 1553 1084 1553 1026 1517.5 c 128,-1,12
 968 1482 968 1482 913.5 1469 c 128,-1,13
 859 1456 859 1456 811 1466.5 c 128,-1,14
 763 1477 763 1477 726 1514 c 2,15,-1
 680 1560 l 1,16,-1
 1190 2000 l 1,17,-1
 1360 1829 l 1,9,-1
EndSplineSet
EndChar

StartChar: macron.cap
Encoding: 65551 -1 271
Width: 1025
Flags: W
LayerCount: 2
Fore
SplineSet
850 1643 m 1,0,-1
 170 1643 l 1,1,-1
 170 1870 l 1,2,-1
 850 1870 l 1,3,-1
 850 1643 l 1,0,-1
EndSplineSet
EndChar

StartChar: lacute
Encoding: 314 314 272
Width: 1018
Flags: W
LayerCount: 2
Fore
SplineSet
850 1829 m 1,0,-1
 630 1609 l 2,1,2
 574 1553 574 1553 516 1517.5 c 128,-1,3
 458 1482 458 1482 403.5 1469 c 128,-1,4
 349 1456 349 1456 301 1466.5 c 128,-1,5
 253 1477 253 1477 216 1514 c 2,6,-1
 170 1560 l 1,7,-1
 680 2000 l 1,8,-1
 850 1829 l 1,0,-1
753 1359 m 1,9,-1
 753 0 l 1,10,-1
 265 0 l 1,11,-1
 265 1359 l 1,12,-1
 753 1359 l 1,9,-1
EndSplineSet
EndChar

StartChar: Lacute
Encoding: 313 313 273
Width: 1874
Flags: W
LayerCount: 2
Fore
SplineSet
1190 1829 m 1,0,-1
 970 1609 l 2,1,2
 914 1553 914 1553 856 1517.5 c 128,-1,3
 798 1482 798 1482 743.5 1469 c 128,-1,4
 689 1456 689 1456 641 1466.5 c 128,-1,5
 593 1477 593 1477 556 1514 c 2,6,-1
 510 1560 l 1,7,-1
 1020 2000 l 1,8,-1
 1190 1829 l 1,0,-1
1208 0 m 1,9,-1
 1208 97 l 2,10,11
 1208 149 1208 149 1227 204 c 128,-1,12
 1246 259 1246 259 1296.5 304 c 128,-1,13
 1347 349 1347 349 1435 377.5 c 128,-1,14
 1523 406 1523 406 1660 406 c 2,15,-1
 1714 406 l 1,16,-1
 1714 0 l 1,17,-1
 1208 0 l 1,9,-1
498 2 m 1,18,-1
 498 1361 l 1,19,-1
 986 1361 l 1,20,-1
 986 2 l 1,21,-1
 498 2 l 1,18,-1
EndSplineSet
EndChar

StartChar: Dcroat
Encoding: 272 272 274
Width: 1874
Flags: W
LayerCount: 2
Fore
SplineSet
328 2 m 1,0,-1
 328 644 l 1,1,-1
 151 644 l 1,2,-1
 151 811 l 1,3,-1
 328 811 l 1,4,-1
 328 1361 l 1,5,-1
 816 1361 l 1,6,-1
 816 2 l 1,7,-1
 328 2 l 1,0,-1
1595 742 m 0,8,9
 1595 573 1595 573 1565 436 c 128,-1,10
 1535 299 1535 299 1473.5 202 c 128,-1,11
 1412 105 1412 105 1316.5 52.5 c 128,-1,12
 1221 0 1221 0 1091 0 c 2,13,-1
 1032 0 l 1,14,-1
 1032 1361 l 1,15,-1
 1091 1361 l 2,16,17
 1239 1361 1239 1361 1336 1314.5 c 128,-1,18
 1433 1268 1433 1268 1490.5 1185 c 128,-1,19
 1548 1102 1548 1102 1571.5 988.5 c 128,-1,20
 1595 875 1595 875 1595 742 c 0,8,9
EndSplineSet
EndChar

StartChar: tbar
Encoding: 359 359 275
Width: 1874
Flags: W
LayerCount: 2
Fore
SplineSet
335 1020 m 1,0,-1
 335 1021 l 1,1,-1
 747 1291 l 1,2,-1
 858 1291 l 1,3,-1
 858 0 l 1,4,-1
 805 0 l 2,5,6
 681 0 681 0 592 31 c 128,-1,7
 503 62 503 62 446 120.5 c 128,-1,8
 389 179 389 179 362 262.5 c 128,-1,9
 335 346 335 346 335 452 c 2,10,-1
 335 508 l 1,11,-1
 170 508 l 1,12,-1
 170 678 l 1,13,-1
 335 678 l 1,14,-1
 335 850 l 1,15,-1
 170 850 l 1,16,-1
 170 1020 l 1,17,-1
 335 1020 l 1,0,-1
1559 357 m 1,18,-1
 1559 339 l 2,19,20
 1559 258 1559 258 1536 194.5 c 128,-1,21
 1513 131 1513 131 1460.5 88 c 128,-1,22
 1408 45 1408 45 1323 22.5 c 128,-1,23
 1238 0 1238 0 1115 0 c 2,24,-1
 1054 0 l 1,25,-1
 1054 357 l 1,26,-1
 1559 357 l 1,18,-1
1482 678 m 1,27,-1
 1482 508 l 1,28,-1
 1053 508 l 1,29,-1
 1053 678 l 1,30,-1
 1482 678 l 1,27,-1
1482 1020 m 1,31,-1
 1482 850 l 1,32,-1
 1053 850 l 1,33,-1
 1053 1020 l 1,34,-1
 1482 1020 l 1,31,-1
EndSplineSet
EndChar

StartChar: Tbar
Encoding: 358 358 276
Width: 1874
Flags: W
LayerCount: 2
Fore
SplineSet
1697 678 m 1,0,-1
 1697 508 l 1,1,-1
 507 508 l 1,2,-1
 507 678 l 1,3,-1
 1697 678 l 1,0,-1
1351 1361 m 1,4,-1
 1351 0 l 1,5,-1
 863 0 l 1,6,-1
 863 1361 l 1,7,-1
 1351 1361 l 1,4,-1
1908 796 m 1,8,-1
 1821 796 l 2,9,10
 1751 796 1751 796 1694 811.5 c 128,-1,11
 1637 827 1637 827 1596 872.5 c 128,-1,12
 1555 918 1555 918 1532.5 1001.5 c 128,-1,13
 1510 1085 1510 1085 1510 1222 c 2,14,-1
 1510 1361 l 1,15,-1
 1908 1361 l 1,16,-1
 1908 796 l 1,8,-1
303 1361 m 1,17,-1
 701 1361 l 1,18,-1
 701 1222 l 2,19,20
 701 1085 701 1085 678.5 1001.5 c 128,-1,21
 656 918 656 918 615 872.5 c 128,-1,22
 574 827 574 827 517 811.5 c 128,-1,23
 460 796 460 796 390 796 c 2,24,-1
 303 796 l 1,25,-1
 303 1361 l 1,17,-1
EndSplineSet
EndChar

StartChar: Hbar
Encoding: 294 294 277
Width: 1874
Flags: W
LayerCount: 2
Fore
SplineSet
328 1020 m 1,0,-1
 328 1361 l 1,1,-1
 816 1361 l 1,2,-1
 816 1020 l 1,3,-1
 1061 1020 l 1,4,-1
 1061 1361 l 1,5,-1
 1549 1361 l 1,6,-1
 1549 1020 l 1,7,-1
 1700 1020 l 1,8,-1
 1700 850 l 1,9,-1
 1549 850 l 1,10,-1
 1549 2 l 1,11,-1
 1061 2 l 1,12,-1
 1061 529 l 1,13,-1
 816 529 l 1,14,-1
 816 2 l 1,15,-1
 328 2 l 1,16,-1
 328 850 l 1,17,-1
 170 850 l 1,18,-1
 170 1020 l 1,19,-1
 328 1020 l 1,0,-1
816 680 m 1,20,-1
 1061 680 l 1,21,-1
 1061 850 l 1,22,-1
 816 850 l 1,23,-1
 816 680 l 1,20,-1
EndSplineSet
EndChar

StartChar: dcroat
Encoding: 273 273 278
Width: 1874
Flags: W
LayerCount: 2
Fore
SplineSet
1870 1191 m 1,0,-1
 940 1191 l 1,1,-1
 940 1361 l 1,2,-1
 1870 1361 l 1,3,-1
 1870 1191 l 1,0,-1
1724 1531 m 1,4,-1
 1724 0 l 1,5,-1
 1241 0 l 1,6,-1
 1241 1531 l 1,7,-1
 1724 1531 l 1,4,-1
500 502 m 0,8,9
 500 608 500 608 527.5 702.5 c 128,-1,10
 555 797 555 797 613 867.5 c 128,-1,11
 671 938 671 938 760 979 c 128,-1,12
 849 1020 849 1020 972 1020 c 2,13,-1
 1024 1020 l 1,14,-1
 1024 0 l 1,15,-1
 997 0 l 2,16,17
 874 0 874 0 781 36 c 128,-1,18
 688 72 688 72 625.5 138 c 128,-1,19
 563 204 563 204 531.5 296.5 c 128,-1,20
 500 389 500 389 500 502 c 0,8,9
EndSplineSet
EndChar

StartChar: Lcaron
Encoding: 317 317 279
Width: 1874
Flags: W
LayerCount: 2
Fore
SplineSet
1530 1586 m 1,0,-1
 1530 1329 l 2,1,2
 1530 1216 1530 1216 1520 1141 c 128,-1,3
 1510 1066 1510 1066 1478.5 1020.5 c 128,-1,4
 1447 975 1447 975 1386.5 956 c 128,-1,5
 1326 937 1326 937 1226 937 c 2,6,-1
 1188 937 l 1,7,-1
 1188 1586 l 1,8,-1
 1530 1586 l 1,0,-1
1208 0 m 1,9,-1
 1208 97 l 2,10,11
 1208 149 1208 149 1227 204 c 128,-1,12
 1246 259 1246 259 1296.5 304 c 128,-1,13
 1347 349 1347 349 1435 377.5 c 128,-1,14
 1523 406 1523 406 1660 406 c 2,15,-1
 1714 406 l 1,16,-1
 1714 0 l 1,17,-1
 1208 0 l 1,9,-1
498 2 m 1,18,-1
 498 1361 l 1,19,-1
 986 1361 l 1,20,-1
 986 2 l 1,21,-1
 498 2 l 1,18,-1
EndSplineSet
EndChar

StartChar: tcaron
Encoding: 357 357 280
Width: 2218
Flags: W
LayerCount: 2
Fore
SplineSet
1902 1586 m 1,0,-1
 1902 1329 l 2,1,2
 1902 1216 1902 1216 1892 1141 c 128,-1,3
 1882 1066 1882 1066 1850.5 1020.5 c 128,-1,4
 1819 975 1819 975 1758.5 956 c 128,-1,5
 1698 937 1698 937 1598 937 c 2,6,-1
 1560 937 l 1,7,-1
 1560 1586 l 1,8,-1
 1902 1586 l 1,0,-1
737 1291 m 1,9,-1
 848 1291 l 1,10,-1
 848 0 l 1,11,-1
 795 0 l 2,12,13
 671 0 671 0 582 31 c 128,-1,14
 493 62 493 62 436 120.5 c 128,-1,15
 379 179 379 179 352 262.5 c 128,-1,16
 325 346 325 346 325 452 c 2,17,-1
 325 1021 l 1,18,-1
 737 1291 l 1,9,-1
1549 427 m 1,19,-1
 1549 339 l 2,20,21
 1549 258 1549 258 1526 194.5 c 128,-1,22
 1503 131 1503 131 1450.5 88 c 128,-1,23
 1398 45 1398 45 1313 22.5 c 128,-1,24
 1228 0 1228 0 1105 0 c 2,25,-1
 1044 0 l 1,26,-1
 1044 427 l 1,27,-1
 1549 427 l 1,19,-1
1360 1020 m 1,28,-1
 1360 685 l 1,29,-1
 1043 685 l 1,30,-1
 1043 1020 l 1,31,-1
 1360 1020 l 1,28,-1
EndSplineSet
EndChar

StartChar: lozenge
Encoding: 9674 9674 281
Width: 1536
Flags: W
LayerCount: 2
Fore
SplineSet
756 -337 m 1,0,-1
 135 596 l 1,1,-1
 756 1527 l 1,2,-1
 757 1530 l 1,3,-1
 757 1529 l 1,4,-1
 758 1530 l 1,5,-1
 759 1527 l 1,6,-1
 1380 596 l 1,7,-1
 758 -337 l 1,8,-1
 758 -340 l 1,9,-1
 757 -339 l 1,10,-1
 757 -340 l 1,11,-1
 756 -337 l 1,0,-1
757 1183 m 1,12,-1
 407 596 l 1,13,-1
 757 6 l 1,14,-1
 1108 596 l 1,15,-1
 757 1183 l 1,12,-1
EndSplineSet
EndChar

StartChar: notequal
Encoding: 8800 8800 282
Width: 1018
Flags: W
LayerCount: 2
Fore
SplineSet
174 -3 m 1,0,-1
 673 1246 l 1,1,-1
 850 1190 l 1,2,-1
 351 -60 l 1,3,-1
 174 -3 l 1,0,-1
985 267 m 1,4,-1
 33 267 l 1,5,-1
 33 461 l 1,6,-1
 985 461 l 1,7,-1
 985 267 l 1,4,-1
985 670 m 1,8,-1
 33 670 l 1,9,-1
 33 861 l 1,10,-1
 985 861 l 1,11,-1
 985 670 l 1,8,-1
EndSplineSet
EndChar

StartChar: lessequal
Encoding: 8804 8804 283
Width: 1538
Flags: W
LayerCount: 2
Fore
SplineSet
968 343 m 1,0,-1
 345 892 l 1,1,-1
 968 1458 l 1,2,-1
 1093 1322 l 1,3,-1
 617 892 l 1,4,-1
 1093 479 l 1,5,-1
 968 343 l 1,0,-1
1279 -1 m 1,6,-1
 258 -1 l 1,7,-1
 258 191 l 1,8,-1
 1279 191 l 1,9,-1
 1279 -1 l 1,6,-1
EndSplineSet
EndChar

StartChar: greaterequal
Encoding: 8805 8805 284
Width: 1538
Flags: W
LayerCount: 2
Fore
SplineSet
365 476 m 1,0,-1
 842 889 l 1,1,-1
 365 1319 l 1,2,-1
 489 1455 l 1,3,-1
 1113 889 l 1,4,-1
 489 340 l 1,5,-1
 365 476 l 1,0,-1
1279 -1 m 1,6,-1
 258 -1 l 1,7,-1
 258 191 l 1,8,-1
 1279 191 l 1,9,-1
 1279 -1 l 1,6,-1
EndSplineSet
EndChar

StartChar: infinity
Encoding: 8734 8734 285
Width: 1707
Flags: W
LayerCount: 2
Fore
SplineSet
524 1187 m 0,0,1
 586 1187 586 1187 633 1167.5 c 128,-1,2
 680 1148 680 1148 717.5 1113.5 c 128,-1,3
 755 1079 755 1079 786.5 1030 c 128,-1,4
 818 981 818 981 849 923 c 1,5,6
 877 974 877 974 911.5 1021 c 128,-1,7
 946 1068 946 1068 990 1105 c 128,-1,8
 1034 1142 1034 1142 1089.5 1164 c 128,-1,9
 1145 1186 1145 1186 1216 1186 c 0,10,11
 1300 1186 1300 1186 1361.5 1157.5 c 128,-1,12
 1423 1129 1423 1129 1464 1075.5 c 128,-1,13
 1505 1022 1505 1022 1525 945 c 128,-1,14
 1545 868 1545 868 1545 772 c 0,15,16
 1545 685 1545 685 1525 608.5 c 128,-1,17
 1505 532 1505 532 1464.5 475 c 128,-1,18
 1424 418 1424 418 1362.5 385 c 128,-1,19
 1301 352 1301 352 1219 352 c 0,20,21
 1148 352 1148 352 1094.5 367.5 c 128,-1,22
 1041 383 1041 383 999 411.5 c 128,-1,23
 957 440 957 440 924.5 480 c 128,-1,24
 892 520 892 520 863 570 c 1,25,26
 833 520 833 520 799.5 478.5 c 128,-1,27
 766 437 766 437 726 407 c 128,-1,28
 686 377 686 377 636.5 360.5 c 128,-1,29
 587 344 587 344 526 344 c 0,30,31
 435 344 435 344 366.5 374.5 c 128,-1,32
 298 405 298 405 252.5 461.5 c 128,-1,33
 207 518 207 518 184 597 c 128,-1,34
 161 676 161 676 161 772 c 0,35,36
 161 850 161 850 182 924.5 c 128,-1,37
 203 999 203 999 247 1057.5 c 128,-1,38
 291 1116 291 1116 360 1151.5 c 128,-1,39
 429 1187 429 1187 524 1187 c 0,0,1
528 510 m 0,40,41
 560 510 560 510 589 526.5 c 128,-1,42
 618 543 618 543 647 577.5 c 128,-1,43
 676 612 676 612 707.5 663.5 c 128,-1,44
 739 715 739 715 776 786 c 1,45,46
 753 832 753 832 726 874.5 c 128,-1,47
 699 917 699 917 668 949 c 128,-1,48
 637 981 637 981 601.5 1000.5 c 128,-1,49
 566 1020 566 1020 526 1020 c 0,50,51
 483 1020 483 1020 448.5 997.5 c 128,-1,52
 414 975 414 975 389.5 939.5 c 128,-1,53
 365 904 365 904 351.5 860 c 128,-1,54
 338 816 338 816 338 772 c 0,55,56
 338 712 338 712 351.5 663.5 c 128,-1,57
 365 615 365 615 389.5 581 c 128,-1,58
 414 547 414 547 449 528.5 c 128,-1,59
 484 510 484 510 528 510 c 0,40,41
1203 1020 m 0,60,61
 1153 1020 1153 1020 1119.5 998 c 128,-1,62
 1086 976 1086 976 1058 935.5 c 128,-1,63
 1030 895 1030 895 1003 837.5 c 128,-1,64
 976 780 976 780 939 709 c 1,65,66
 963 668 963 668 991.5 632 c 128,-1,67
 1020 596 1020 596 1052.5 569 c 128,-1,68
 1085 542 1085 542 1120 526 c 128,-1,69
 1155 510 1155 510 1192 510 c 0,70,71
 1226 510 1226 510 1257 531 c 128,-1,72
 1288 552 1288 552 1311 588 c 128,-1,73
 1334 624 1334 624 1348 671.5 c 128,-1,74
 1362 719 1362 719 1362 772 c 0,75,76
 1362 895 1362 895 1317.5 957.5 c 128,-1,77
 1273 1020 1273 1020 1203 1020 c 0,60,61
EndSplineSet
EndChar

StartChar: minus
Encoding: 8722 8722 286
Width: 1538
Flags: W
LayerCount: 2
Fore
SplineSet
1245 469 m 1,0,-1
 293 469 l 1,1,-1
 293 660 l 1,2,-1
 1245 660 l 1,3,-1
 1245 469 l 1,0,-1
EndSplineSet
EndChar

StartChar: ogonek
Encoding: 731 731 287
Width: 1229
Flags: W
LayerCount: 2
Fore
SplineSet
170 -263 m 0,0,1
 170 -191 170 -191 189 -133 c 128,-1,2
 208 -75 208 -75 241.5 -34 c 128,-1,3
 275 7 275 7 322 29.5 c 128,-1,4
 369 52 369 52 425 52 c 1,5,-1
 425 -28 l 2,6,7
 425 -83 425 -83 433 -121.5 c 128,-1,8
 441 -160 441 -160 459 -184 c 128,-1,9
 477 -208 477 -208 506.5 -219 c 128,-1,10
 536 -230 536 -230 579 -230 c 2,11,-1
 680 -230 l 1,12,-1
 680 -560 l 1,13,-1
 489 -560 l 2,14,15
 428 -560 428 -560 370.5 -540.5 c 128,-1,16
 313 -521 313 -521 268.5 -483 c 128,-1,17
 224 -445 224 -445 197 -389.5 c 128,-1,18
 170 -334 170 -334 170 -263 c 0,0,1
EndSplineSet
EndChar

StartChar: trademark
Encoding: 8482 8482 288
Width: 4424
Flags: W
LayerCount: 2
Fore
SplineSet
1181 1361 m 1,0,-1
 1181 340 l 1,1,-1
 693 340 l 1,2,-1
 693 1361 l 1,3,-1
 1181 1361 l 1,0,-1
1738 796 m 1,4,-1
 1651 796 l 2,5,6
 1581 796 1581 796 1524 811.5 c 128,-1,7
 1467 827 1467 827 1426 872.5 c 128,-1,8
 1385 918 1385 918 1362.5 1001.5 c 128,-1,9
 1340 1085 1340 1085 1340 1222 c 2,10,-1
 1340 1361 l 1,11,-1
 1738 1361 l 1,12,-1
 1738 796 l 1,4,-1
133 1361 m 1,13,-1
 531 1361 l 1,14,-1
 531 1222 l 2,15,16
 531 1085 531 1085 508.5 1001.5 c 128,-1,17
 486 918 486 918 445 872.5 c 128,-1,18
 404 827 404 827 347 811.5 c 128,-1,19
 290 796 290 796 220 796 c 2,20,-1
 133 796 l 1,21,-1
 133 1361 l 1,13,-1
2660 1362 m 1,22,-1
 2660 340 l 1,23,-1
 2154 340 l 1,24,-1
 2154 1362 l 1,25,-1
 2660 1362 l 1,22,-1
3640 340 m 1,26,-1
 3640 1362 l 1,27,-1
 3705 1362 l 2,28,29
 3828 1362 3828 1362 3912 1333.5 c 128,-1,30
 3996 1305 3996 1305 4047 1249.5 c 128,-1,31
 4098 1194 4098 1194 4120.5 1112.5 c 128,-1,32
 4143 1031 4143 1031 4143 925 c 2,33,-1
 4143 340 l 1,34,-1
 3640 340 l 1,26,-1
3404 1362 m 1,35,-1
 3404 340 l 1,36,-1
 2898 340 l 1,37,-1
 2898 1362 l 1,38,-1
 3404 1362 l 1,35,-1
EndSplineSet
EndChar

StartChar: Delta
Encoding: 916 916 289
AltUni2: 002206.ffffffff.0
Width: 1698
Flags: W
LayerCount: 2
Fore
SplineSet
857 1530 m 1,0,-1
 858 1527 l 1,1,-1
 1599 0 l 1,2,-1
 99 0 l 1,3,-1
 855 1527 l 1,4,-1
 856 1530 l 1,5,-1
 856 1529 l 1,6,-1
 857 1530 l 1,0,-1
856 1120 m 1,7,-1
 386 162 l 1,8,-1
 1327 162 l 1,9,-1
 856 1120 l 1,7,-1
EndSplineSet
EndChar

StartChar: radical
Encoding: 8730 8730 290
Width: 1529
Flags: W
LayerCount: 2
Fore
SplineSet
680 -339 m 1,0,-1
 680 -337 l 1,1,-1
 170 680 l 1,2,-1
 392 680 l 1,3,-1
 665 123 l 1,4,-1
 1126 1360 l 1,5,-1
 1360 1360 l 1,6,-1
 681 -337 l 1,7,-1
 681 -340 l 1,8,-1
 680 -339 l 1,0,-1
EndSplineSet
EndChar

StartChar: Omega
Encoding: 937 937 291
AltUni2: 002126.ffffffff.0
Width: 2211
Flags: W
LayerCount: 2
Fore
SplineSet
250 339 m 1,0,-1
 340 339 l 2,1,2
 383 339 383 339 443.5 327 c 128,-1,3
 504 315 504 315 571 295 c 1,4,5
 523 335 523 335 481 376 c 128,-1,6
 439 417 439 417 407.5 472.5 c 128,-1,7
 376 528 376 528 358 606.5 c 128,-1,8
 340 685 340 685 340 800 c 0,9,10
 340 927 340 927 379.5 1031 c 128,-1,11
 419 1135 419 1135 496 1208 c 128,-1,12
 573 1281 573 1281 686 1321 c 128,-1,13
 799 1361 799 1361 946 1361 c 2,14,-1
 999 1361 l 1,15,-1
 999 0 l 1,16,-1
 250 0 l 1,17,-1
 250 339 l 1,0,-1
1962 0 m 1,18,-1
 1212 0 l 1,19,-1
 1212 1361 l 1,20,-1
 1265 1361 l 2,21,22
 1412 1361 1412 1361 1525 1321 c 128,-1,23
 1638 1281 1638 1281 1714.5 1208 c 128,-1,24
 1791 1135 1791 1135 1830.5 1031 c 128,-1,25
 1870 927 1870 927 1870 800 c 0,26,27
 1870 684 1870 684 1851.5 606.5 c 128,-1,28
 1833 529 1833 529 1801.5 473.5 c 128,-1,29
 1770 418 1770 418 1728 377 c 128,-1,30
 1686 336 1686 336 1638 295 c 1,31,32
 1706 315 1706 315 1767 327 c 128,-1,33
 1828 339 1828 339 1872 339 c 2,34,-1
 1962 339 l 1,35,-1
 1962 0 l 1,18,-1
EndSplineSet
EndChar

StartChar: integral
Encoding: 8747 8747 292
Width: 2211
Flags: W
LayerCount: 2
Fore
SplineSet
1348 149 m 1,0,-1
 1348 148 l 2,1,2
 1348 41 1348 41 1324.5 -48.5 c 128,-1,3
 1301 -138 1301 -138 1248.5 -202.5 c 128,-1,4
 1196 -267 1196 -267 1110.5 -303.5 c 128,-1,5
 1025 -340 1025 -340 902 -340 c 2,6,-1
 860 -340 l 1,7,-1
 860 149 l 1,8,-1
 862 150 l 1,9,-1
 862 1061 l 2,10,11
 862 1167 862 1167 885.5 1257 c 128,-1,12
 909 1347 909 1347 961.5 1411.5 c 128,-1,13
 1014 1476 1014 1476 1099.5 1512.5 c 128,-1,14
 1185 1549 1185 1549 1308 1549 c 2,15,-1
 1350 1549 l 1,16,-1
 1350 149 l 1,17,-1
 1348 149 l 1,0,-1
229 -341 m 1,18,-1
 229 149 l 1,19,-1
 320 149 l 2,20,21
 354 149 354 149 390.5 147 c 128,-1,22
 427 145 427 145 461 136 c 128,-1,23
 495 127 495 127 525 108 c 128,-1,24
 555 89 555 89 577.5 54.5 c 128,-1,25
 600 20 600 20 613 -32 c 128,-1,26
 626 -84 626 -84 626 -159 c 2,27,-1
 626 -341 l 1,28,-1
 229 -341 l 1,18,-1
1981 1550 m 1,29,-1
 1981 1060 l 1,30,-1
 1890 1060 l 2,31,32
 1855 1060 1855 1060 1819 1062 c 128,-1,33
 1783 1064 1783 1064 1749 1073 c 128,-1,34
 1715 1082 1715 1082 1685 1101 c 128,-1,35
 1655 1120 1655 1120 1632.5 1154.5 c 128,-1,36
 1610 1189 1610 1189 1597 1241 c 128,-1,37
 1584 1293 1584 1293 1584 1368 c 2,38,-1
 1584 1550 l 1,39,-1
 1981 1550 l 1,29,-1
EndSplineSet
EndChar

StartChar: pi
Encoding: 960 960 293
Width: 1874
Flags: W
LayerCount: 2
Fore
SplineSet
766 680 m 1,0,-1
 766 0 l 1,1,-1
 427 0 l 1,2,-1
 427 680 l 1,3,-1
 766 680 l 1,0,-1
1617 850 m 1,4,-1
 257 850 l 1,5,-1
 257 1190 l 1,6,-1
 1617 1190 l 1,7,-1
 1617 850 l 1,4,-1
1446 680 m 1,8,-1
 1446 0 l 1,9,-1
 1381 0 l 2,10,11
 1280 0 1280 0 1224 28.5 c 128,-1,12
 1168 57 1168 57 1142 112.5 c 128,-1,13
 1116 168 1116 168 1111 249.5 c 128,-1,14
 1106 331 1106 331 1106 437 c 2,15,-1
 1106 680 l 1,16,-1
 1446 680 l 1,8,-1
EndSplineSet
EndChar

StartChar: product
Encoding: 8719 8719 294
Width: 1874
Flags: W
LayerCount: 2
Fore
SplineSet
1617 1196 m 1,0,-1
 257 1196 l 1,1,-1
 257 1530 l 1,2,-1
 1617 1530 l 1,3,-1
 1617 1196 l 1,0,-1
767 1020 m 1,4,-1
 767 0 l 1,5,-1
 427 0 l 1,6,-1
 427 1020 l 1,7,-1
 767 1020 l 1,4,-1
1447 1020 m 1,8,-1
 1447 0 l 1,9,-1
 1107 0 l 1,10,-1
 1107 1020 l 1,11,-1
 1447 1020 l 1,8,-1
EndSplineSet
EndChar

StartChar: summation
Encoding: 8721 8721 295
Width: 1872
Flags: W
LayerCount: 2
Fore
SplineSet
1544 1361 m 1,0,-1
 1544 983 l 1,1,-1
 1465 983 l 2,2,3
 1328 983 1328 983 1244.5 1005.5 c 128,-1,4
 1161 1028 1161 1028 1115.5 1069 c 128,-1,5
 1070 1110 1070 1110 1054.5 1167 c 128,-1,6
 1039 1224 1039 1224 1039 1294 c 2,7,-1
 1039 1361 l 1,8,-1
 1544 1361 l 1,0,-1
1038 0 m 1,9,-1
 1038 97 l 2,10,11
 1038 149 1038 149 1057 204 c 128,-1,12
 1076 259 1076 259 1126.5 304 c 128,-1,13
 1177 349 1177 349 1265 377.5 c 128,-1,14
 1353 406 1353 406 1490 406 c 2,15,-1
 1544 406 l 1,16,-1
 1544 0 l 1,17,-1
 1038 0 l 1,9,-1
328 2 m 1,18,-1
 633 680 l 1,19,-1
 328 1361 l 1,20,-1
 816 1361 l 1,21,-1
 1121 680 l 1,22,-1
 816 2 l 1,23,-1
 328 2 l 1,18,-1
EndSplineSet
EndChar

StartChar: fraction
Encoding: 8260 8260 296
Width: 1364
Flags: W
LayerCount: 2
Fore
SplineSet
234 -274 m 1,0,-1
 891 1709 l 1,1,-1
 1129 1644 l 1,2,-1
 472 -340 l 1,3,-1
 234 -274 l 1,0,-1
EndSplineSet
EndChar

StartChar: Eng
Encoding: 330 330 297
Width: 1874
Flags: W
LayerCount: 2
Fore
SplineSet
1557 -101 m 2,0,1
 1557 -207 1557 -207 1535 -288.5 c 128,-1,2
 1513 -370 1513 -370 1462 -425.5 c 128,-1,3
 1411 -481 1411 -481 1327.5 -509.5 c 128,-1,4
 1244 -538 1244 -538 1121 -538 c 2,5,-1
 1056 -538 l 1,6,-1
 1054 0 l 1,7,-1
 1054 1361 l 1,8,-1
 1119 1361 l 2,9,10
 1242 1361 1242 1361 1325.5 1332.5 c 128,-1,11
 1409 1304 1409 1304 1460.5 1248.5 c 128,-1,12
 1512 1193 1512 1193 1534.5 1111.5 c 128,-1,13
 1557 1030 1557 1030 1557 924 c 2,14,-1
 1557 -101 l 2,0,1
328 0 m 1,15,-1
 328 1361 l 1,16,-1
 816 1361 l 1,17,-1
 816 0 l 1,18,-1
 328 0 l 1,15,-1
EndSplineSet
EndChar

StartChar: eng
Encoding: 331 331 298
Width: 1874
Flags: W
LayerCount: 2
Fore
SplineSet
1121 1020 m 2,0,1
 1244 1020 1244 1020 1327.5 991.5 c 128,-1,2
 1411 963 1411 963 1462.5 907.5 c 128,-1,3
 1514 852 1514 852 1536.5 770.5 c 128,-1,4
 1559 689 1559 689 1559 583 c 2,5,-1
 1559 -5 l 2,6,7
 1559 -118 1559 -118 1535 -210.5 c 128,-1,8
 1511 -303 1511 -303 1457 -369 c 128,-1,9
 1403 -435 1403 -435 1317 -471.5 c 128,-1,10
 1231 -508 1231 -508 1108 -508 c 2,11,-1
 1056 -508 l 1,12,-1
 1056 1020 l 1,13,-1
 1121 1020 l 2,0,1
841 1020 m 1,14,-1
 841 0 l 1,15,-1
 335 0 l 1,16,-1
 335 1020 l 1,17,-1
 841 1020 l 1,14,-1
EndSplineSet
EndChar

StartChar: ellipsis
Encoding: 8230 8230 299
Width: 2562
Flags: W
LayerCount: 2
Fore
SplineSet
134 207 m 0,0,1
 134 313 134 313 207 359.5 c 128,-1,2
 280 406 280 406 431 406 c 0,3,4
 578 406 578 406 649 359.5 c 128,-1,5
 720 313 720 313 720 207 c 0,6,7
 720 100 720 100 654 50 c 128,-1,8
 588 0 588 0 440 0 c 0,9,10
 294 0 294 0 214 50 c 128,-1,11
 134 100 134 100 134 207 c 0,0,1
988 207 m 0,12,13
 988 313 988 313 1061 359.5 c 128,-1,14
 1134 406 1134 406 1285 406 c 0,15,16
 1432 406 1432 406 1503 359.5 c 128,-1,17
 1574 313 1574 313 1574 207 c 0,18,19
 1574 100 1574 100 1508 50 c 128,-1,20
 1442 0 1442 0 1294 0 c 0,21,22
 1148 0 1148 0 1068 50 c 128,-1,23
 988 100 988 100 988 207 c 0,12,13
1842 207 m 0,24,25
 1842 313 1842 313 1915 359.5 c 128,-1,26
 1988 406 1988 406 2139 406 c 0,27,28
 2286 406 2286 406 2357 359.5 c 128,-1,29
 2428 313 2428 313 2428 207 c 0,30,31
 2428 100 2428 100 2362 50 c 128,-1,32
 2296 0 2296 0 2148 0 c 0,33,34
 2002 0 2002 0 1922 50 c 128,-1,35
 1842 100 1842 100 1842 207 c 0,24,25
EndSplineSet
EndChar

StartChar: dotaccent.cap
Encoding: 65552 -1 300
Width: 1025
Flags: W
LayerCount: 2
Fore
SplineSet
213 1801 m 0,0,1
 213 1907 213 1907 286 1953.5 c 128,-1,2
 359 2000 359 2000 510 2000 c 0,3,4
 657 2000 657 2000 728 1953.5 c 128,-1,5
 799 1907 799 1907 799 1801 c 0,6,7
 799 1694 799 1694 733 1644 c 128,-1,8
 667 1594 667 1594 519 1594 c 0,9,10
 373 1594 373 1594 293 1644 c 128,-1,11
 213 1694 213 1694 213 1801 c 0,0,1
EndSplineSet
EndChar

StartChar: perthousand
Encoding: 8240 8240 302
Width: 3740
Flags: W
LayerCount: 2
Fore
SplineSet
922 -274 m 1,0,-1
 1579 1709 l 1,1,-1
 1817 1644 l 1,2,-1
 1160 -340 l 1,3,-1
 922 -274 l 1,0,-1
265 1096 m 2,4,5
 265 1150 265 1150 281.5 1193 c 128,-1,6
 298 1236 298 1236 331.5 1266.5 c 128,-1,7
 365 1297 365 1297 415 1313.5 c 128,-1,8
 465 1330 465 1330 531 1330 c 2,9,-1
 570 1330 l 1,10,-1
 570 497 l 1,11,-1
 531 497 l 2,12,13
 398 497 398 497 331 560 c 128,-1,14
 264 623 264 623 265 732 c 1,15,-1
 265 1096 l 2,4,5
1051 732 m 1,16,17
 1052 623 1052 623 985 560 c 128,-1,18
 918 497 918 497 786 497 c 2,19,-1
 747 497 l 1,20,-1
 747 1330 l 1,21,-1
 786 1330 l 2,22,23
 852 1330 852 1330 901.5 1313.5 c 128,-1,24
 951 1297 951 1297 984.5 1266.5 c 128,-1,25
 1018 1236 1018 1236 1034.5 1193 c 128,-1,26
 1051 1150 1051 1150 1051 1096 c 2,27,-1
 1051 732 l 1,16,17
1688 593 m 1,28,29
 1687 701 1687 701 1754.5 764 c 128,-1,30
 1822 827 1822 827 1953 827 c 2,31,-1
 1992 827 l 1,32,-1
 1992 -12 l 1,33,-1
 1953 -12 l 2,34,35
 1822 -12 1822 -12 1754.5 51 c 128,-1,36
 1687 114 1687 114 1688 222 c 1,37,-1
 1688 593 l 1,28,29
2474 222 m 2,38,39
 2474 168 2474 168 2457.5 125 c 128,-1,40
 2441 82 2441 82 2407.5 51.5 c 128,-1,41
 2374 21 2374 21 2324.5 4.5 c 128,-1,42
 2275 -12 2275 -12 2210 -12 c 2,43,-1
 2169 -12 l 1,44,-1
 2169 827 l 1,45,-1
 2210 827 l 2,46,47
 2275 827 2275 827 2324.5 810.5 c 128,-1,48
 2374 794 2374 794 2407.5 763.5 c 128,-1,49
 2441 733 2441 733 2457.5 690 c 128,-1,50
 2474 647 2474 647 2474 593 c 2,51,-1
 2474 222 l 2,38,39
2720 593 m 1,52,53
 2719 701 2719 701 2786.5 764 c 128,-1,54
 2854 827 2854 827 2985 827 c 2,55,-1
 3024 827 l 1,56,-1
 3024 -12 l 1,57,-1
 2985 -12 l 2,58,59
 2854 -12 2854 -12 2786.5 51 c 128,-1,60
 2719 114 2719 114 2720 222 c 1,61,-1
 2720 593 l 1,52,53
3506 222 m 2,62,63
 3506 168 3506 168 3489.5 125 c 128,-1,64
 3473 82 3473 82 3439.5 51.5 c 128,-1,65
 3406 21 3406 21 3356.5 4.5 c 128,-1,66
 3307 -12 3307 -12 3242 -12 c 2,67,-1
 3201 -12 l 1,68,-1
 3201 827 l 1,69,-1
 3242 827 l 2,70,71
 3307 827 3307 827 3356.5 810.5 c 128,-1,72
 3406 794 3406 794 3439.5 763.5 c 128,-1,73
 3473 733 3473 733 3489.5 690 c 128,-1,74
 3506 647 3506 647 3506 593 c 2,75,-1
 3506 222 l 2,62,63
EndSplineSet
EndChar

StartChar: partialdiff
Encoding: 8706 8706 409
Width: 1874
Flags: W
LayerCount: 2
Fore
SplineSet
330 502 m 0,0,1
 330 608 330 608 357.5 702.5 c 128,-1,2
 385 797 385 797 443 867.5 c 128,-1,3
 501 938 501 938 590 979 c 128,-1,4
 679 1020 679 1020 802 1020 c 2,5,-1
 854 1020 l 1,6,-1
 854 0 l 1,7,-1
 827 0 l 2,8,9
 704 0 704 0 611 36 c 128,-1,10
 518 72 518 72 455.5 138 c 128,-1,11
 393 204 393 204 361.5 296.5 c 128,-1,12
 330 389 330 389 330 502 c 0,0,1
1609 917 m 0,13,14
 1609 829 1609 829 1598 726.5 c 128,-1,15
 1587 624 1587 624 1563 522 c 128,-1,16
 1539 420 1539 420 1499.5 326 c 128,-1,17
 1460 232 1460 232 1403 159.5 c 128,-1,18
 1346 87 1346 87 1270 43.5 c 128,-1,19
 1194 0 1194 0 1096 0 c 2,20,-1
 1043 0 l 1,21,-1
 1043 1771 l 1,22,-1
 1096 1771 l 2,23,24
 1194 1771 1194 1771 1270 1730.5 c 128,-1,25
 1346 1690 1346 1690 1403 1622.5 c 128,-1,26
 1460 1555 1460 1555 1499.5 1467 c 128,-1,27
 1539 1379 1539 1379 1563 1284 c 128,-1,28
 1587 1189 1587 1189 1598 1094 c 128,-1,29
 1609 999 1609 999 1609 917 c 0,13,14
EndSplineSet
EndChar

StartChar: dcaron
Encoding: 271 271 414
Width: 2380
Flags: W
LayerCount: 2
Fore
SplineSet
2091 1586 m 1,0,-1
 2091 1329 l 2,1,2
 2091 1216 2091 1216 2081 1141 c 128,-1,3
 2071 1066 2071 1066 2039.5 1020.5 c 128,-1,4
 2008 975 2008 975 1947.5 956 c 128,-1,5
 1887 937 1887 937 1787 937 c 2,6,-1
 1749 937 l 1,7,-1
 1749 1586 l 1,8,-1
 2091 1586 l 1,0,-1
1549 1531 m 1,9,-1
 1549 0 l 1,10,-1
 1066 0 l 1,11,-1
 1066 1531 l 1,12,-1
 1549 1531 l 1,9,-1
325 502 m 0,13,14
 325 608 325 608 352.5 702.5 c 128,-1,15
 380 797 380 797 438 867.5 c 128,-1,16
 496 938 496 938 585 979 c 128,-1,17
 674 1020 674 1020 797 1020 c 2,18,-1
 849 1020 l 1,19,-1
 849 0 l 1,20,-1
 822 0 l 2,21,22
 699 0 699 0 606 36 c 128,-1,23
 513 72 513 72 450.5 138 c 128,-1,24
 388 204 388 204 356.5 296.5 c 128,-1,25
 325 389 325 389 325 502 c 0,13,14
EndSplineSet
EndChar

StartChar: lcaron
Encoding: 318 318 415
Width: 1018
Flags: W
LayerCount: 2
Fore
SplineSet
1294 1586 m 1,0,-1
 1294 1329 l 2,1,2
 1294 1216 1294 1216 1284 1141 c 128,-1,3
 1274 1066 1274 1066 1242.5 1020.5 c 128,-1,4
 1211 975 1211 975 1150.5 956 c 128,-1,5
 1090 937 1090 937 990 937 c 2,6,-1
 952 937 l 1,7,-1
 952 1586 l 1,8,-1
 1294 1586 l 1,0,-1
753 1531 m 1,9,-1
 753 0 l 1,10,-1
 265 0 l 1,11,-1
 265 1531 l 1,12,-1
 753 1531 l 1,9,-1
EndSplineSet
EndChar

